NotoSansSinhala.glyphspackage
{
glyphname = "eight-lith-sinh";
layers = (
{
layerId = "7977A986-4EFB-4152-84F8-5A02CD382AAF";
paths = (
{
closed = 1;
nodes = (
"541 -11 OFFCURVE",
"629 113 OFFCURVE",
"629 277 CURVE SMOOTH",
"629 462 OFFCURVE",
"506 555 OFFCURVE",
"361 555 CURVE SMOOTH",
"315 555 OFFCURVE",
"275 545 OFFCURVE",
"239 529 CURVE",
"246 506 LINE",
"280 520 OFFCURVE",
"321 529 OFFCURVE",
"360 529 CURVE SMOOTH",
"498 529 OFFCURVE",
"602 439 OFFCURVE",
"602 276 CURVE SMOOTH",
"602 127 OFFCURVE",
"522 15 OFFCURVE",
"326 15 CURVE SMOOTH",
"148 15 OFFCURVE",
"68 113 OFFCURVE",
"68 275 CURVE SMOOTH",
"68 407 OFFCURVE",
"155 494 OFFCURVE",
"278 540 CURVE",
"281 543 LINE",
"403 604 OFFCURVE",
"532 689 OFFCURVE",
"633 776 CURVE",
"615 797 LINE",
"515 712 OFFCURVE",
"396 631 OFFCURVE",
"284 574 CURVE",
"161 522 OFFCURVE",
"41 440 OFFCURVE",
"41 275 CURVE SMOOTH",
"41 102 OFFCURVE",
"129 -11 OFFCURVE",
"324 -11 CURVE SMOOTH"
);
}
);
width = 669;
},
{
layerId = UUID0;
paths = (
{
closed = 1;
nodes = (
"549 -11 OFFCURVE",
"666 93 OFFCURVE",
"666 270 CURVE SMOOTH",
"666 453 OFFCURVE",
"542 536 OFFCURVE",
"386 536 CURVE SMOOTH",
"348 536 OFFCURVE",
"306 531 OFFCURVE",
"264 518 CURVE",
"272 461 LINE",
"300 467 OFFCURVE",
"339 470 OFFCURVE",
"369 470 CURVE SMOOTH",
"499 470 OFFCURVE",
"593 415 OFFCURVE",
"593 270 CURVE SMOOTH",
"593 149 OFFCURVE",
"524 60 OFFCURVE",
"350 60 CURVE SMOOTH",
"181 60 OFFCURVE",
"109 147 OFFCURVE",
"109 280 CURVE SMOOTH",
"109 377 OFFCURVE",
"145 458 OFFCURVE",
"319 517 CURVE",
"334 530 LINE",
"439 573 OFFCURVE",
"574 661 OFFCURVE",
"677 749 CURVE",
"629 805 LINE",
"520 715 OFFCURVE",
"403 642 OFFCURVE",
"302 586 CURVE",
"136 520 OFFCURVE",
"36 443 OFFCURVE",
"36 276 CURVE SMOOTH",
"36 93 OFFCURVE",
"149 -11 OFFCURVE",
"346 -11 CURVE SMOOTH"
);
}
);
width = 702;
},
{
layerId = "C62AB4C0-B70D-46F6-9B13-45217A94AFC9";
paths = (
{
closed = 1;
nodes = (
"590 -11 OFFCURVE",
"720 101 OFFCURVE",
"720 286 CURVE SMOOTH",
"720 446 OFFCURVE",
"618 545 OFFCURVE",
"439 545 CURVE SMOOTH",
"390 545 OFFCURVE",
"344 538 OFFCURVE",
"300 525 CURVE",
"318 401 LINE",
"349 409 OFFCURVE",
"387 414 OFFCURVE",
"422 414 CURVE SMOOTH",
"526 414 OFFCURVE",
"578 373 OFFCURVE",
"578 301 CURVE SMOOTH",
"578 222 OFFCURVE",
"511 172 OFFCURVE",
"369 172 CURVE SMOOTH",
"233 172 OFFCURVE",
"172 221 OFFCURVE",
"172 306 CURVE SMOOTH",
"172 398 OFFCURVE",
"239 450 OFFCURVE",
"358 486 CURVE",
"406 511 LINE",
"515 550 OFFCURVE",
"642 620 OFFCURVE",
"739 702 CURVE",
"642 814 LINE",
"519 721 OFFCURVE",
"411 651 OFFCURVE",
"295 594 CURVE",
"104 524 OFFCURVE",
"30 415 OFFCURVE",
"30 278 CURVE SMOOTH",
"30 92 OFFCURVE",
"164 -11 OFFCURVE",
"369 -11 CURVE SMOOTH"
);
}
);
width = 750;
},
{
layerId = "CF8E177F-0CDC-40C1-8828-F158AA64F32E";
paths = (
{
closed = 1;
nodes = (
"392 -11 OFFCURVE",
"458 110 OFFCURVE",
"458 281 CURVE SMOOTH",
"458 470 OFFCURVE",
"373 551 OFFCURVE",
"272 551 CURVE SMOOTH",
"249 551 OFFCURVE",
"233 547 OFFCURVE",
"213 539 CURVE",
"218 516 LINE",
"237 523 OFFCURVE",
"256 525 OFFCURVE",
"271 525 CURVE SMOOTH",
"366 525 OFFCURVE",
"431 444 OFFCURVE",
"431 281 CURVE SMOOTH",
"431 128 OFFCURVE",
"378 15 OFFCURVE",
"244 15 CURVE SMOOTH",
"123 15 OFFCURVE",
"67 109 OFFCURVE",
"67 256 CURVE SMOOTH",
"67 394 OFFCURVE",
"118 479 OFFCURVE",
"229 541 CURVE",
"233 544 LINE",
"303 594 OFFCURVE",
"413 689 OFFCURVE",
"482 779 CURVE",
"462 797 LINE",
"391 710 OFFCURVE",
"314 636 OFFCURVE",
"234 578 CURVE",
"125 510 OFFCURVE",
"40 437 OFFCURVE",
"40 257 CURVE SMOOTH",
"40 95 OFFCURVE",
"106 -11 OFFCURVE",
"243 -11 CURVE SMOOTH"
);
}
);
width = 498;
},
{
layerId = "56AEB5FB-BA14-4784-B08F-18006463EEDB";
paths = (
{
closed = 1;
nodes = (
"406 -11 OFFCURVE",
"494 86 OFFCURVE",
"494 271 CURVE SMOOTH",
"494 438 OFFCURVE",
"419 534 OFFCURVE",
"293 534 CURVE SMOOTH",
"258 534 OFFCURVE",
"229 526 OFFCURVE",
"205 515 CURVE",
"218 456 LINE",
"237 464 OFFCURVE",
"260 470 OFFCURVE",
"285 470 CURVE SMOOTH",
"376 470 OFFCURVE",
"424 397 OFFCURVE",
"424 270 CURVE SMOOTH",
"424 142 OFFCURVE",
"372 57 OFFCURVE",
"259 57 CURVE SMOOTH",
"155 57 OFFCURVE",
"105 132 OFFCURVE",
"105 258 CURVE SMOOTH",
"105 384 OFFCURVE",
"157 471 OFFCURVE",
"265 517 CURVE",
"273 529 LINE",
"363 591 OFFCURVE",
"457 681 OFFCURVE",
"520 758 CURVE",
"468 805 LINE",
"384 708 OFFCURVE",
"307 633 OFFCURVE",
"243 584 CURVE",
"110 508 OFFCURVE",
"35 424 OFFCURVE",
"35 259 CURVE SMOOTH",
"35 85 OFFCURVE",
"115 -11 OFFCURVE",
"258 -11 CURVE SMOOTH"
);
}
);
width = 528;
},
{
layerId = "DC607D84-584B-45E6-A9EB-D1AF471CA2AE";
paths = (
{
closed = 1;
nodes = (
"461 -11 OFFCURVE",
"555 101 OFFCURVE",
"555 276 CURVE SMOOTH",
"555 424 OFFCURVE",
"486 538 OFFCURVE",
"326 538 CURVE SMOOTH",
"281 538 OFFCURVE",
"239 529 OFFCURVE",
"206 517 CURVE",
"234 406 LINE",
"257 412 OFFCURVE",
"282 415 OFFCURVE",
"303 415 CURVE SMOOTH",
"393 415 OFFCURVE",
"418 351 OFFCURVE",
"418 294 CURVE SMOOTH",
"418 223 OFFCURVE",
"380 164 OFFCURVE",
"288 164 CURVE SMOOTH",
"199 164 OFFCURVE",
"164 221 OFFCURVE",
"164 303 CURVE SMOOTH",
"164 395 OFFCURVE",
"210 451 OFFCURVE",
"297 500 CURVE",
"322 517 LINE",
"407 555 OFFCURVE",
"511 631 OFFCURVE",
"576 719 CURVE",
"472 814 LINE",
"392 723 OFFCURVE",
"321 657 OFFCURVE",
"221 592 CURVE",
"74 502 OFFCURVE",
"27 415 OFFCURVE",
"27 282 CURVE SMOOTH",
"27 87 OFFCURVE",
"134 -11 OFFCURVE",
"290 -11 CURVE SMOOTH"
);
}
);
width = 582;
}
);
unicode = 0DEE;
}
{
glyphname = "ii-sign-sinh";
layers = (
{
anchors = (
{
name = _iVowel;
position = "{272, 6}";
}
);
layerId = "7977A986-4EFB-4152-84F8-5A02CD382AAF";
paths = (
{
closed = 1;
nodes = (
"60 876 OFFCURVE",
"20 760 OFFCURVE",
"20 703 CURVE SMOOTH",
"20 652 OFFCURVE",
"50 592 OFFCURVE",
"130 592 CURVE",
"130 612 LINE",
"79 612 OFFCURVE",
"47 657 OFFCURVE",
"47 703 CURVE SMOOTH",
"47 752 OFFCURVE",
"83 850 OFFCURVE",
"273 850 CURVE SMOOTH",
"334 850 OFFCURVE",
"396 840 OFFCURVE",
"449 812 CURVE",
"478 803 OFFCURVE",
"521 756 OFFCURVE",
"521 697 CURVE SMOOTH",
"521 650 OFFCURVE",
"495 618 OFFCURVE",
"449 618 CURVE SMOOTH",
"407 618 OFFCURVE",
"375 643 OFFCURVE",
"375 693 CURVE SMOOTH",
"375 757 OFFCURVE",
"427 788 OFFCURVE",
"478 802 CURVE",
"454 820 LINE",
"404 809 OFFCURVE",
"347 761 OFFCURVE",
"347 691 CURVE SMOOTH",
"347 630 OFFCURVE",
"388 599 OFFCURVE",
"448 599 CURVE SMOOTH",
"512 599 OFFCURVE",
"547 635 OFFCURVE",
"547 695 CURVE SMOOTH",
"547 778 OFFCURVE",
"479 876 OFFCURVE",
"276 876 CURVE SMOOTH"
);
}
);
width = 567;
},
{
anchors = (
{
name = _iVowel;
position = "{286, 0}";
}
);
background = {
paths = (
{
closed = 1;
nodes = (
"103 895 OFFCURVE",
"21 799 OFFCURVE",
"21 693 CURVE SMOOTH",
"21 615 OFFCURVE",
"76 547 OFFCURVE",
"159 547 CURVE",
"159 601 LINE",
"125 601 OFFCURVE",
"93 641 OFFCURVE",
"93 695 CURVE SMOOTH",
"93 768 OFFCURVE",
"148 825 OFFCURVE",
"287 825 CURVE SMOOTH",
"437 825 OFFCURVE",
"497 768 OFFCURVE",
"497 695 CURVE SMOOTH",
"497 641 OFFCURVE",
"470 600 OFFCURVE",
"427 600 CURVE",
"427 546 LINE",
"529 546 OFFCURVE",
"568 632 OFFCURVE",
"568 693 CURVE SMOOTH",
"568 800 OFFCURVE",
"493 895 OFFCURVE",
"287 895 CURVE SMOOTH"
);
}
);
};
layerId = UUID0;
paths = (
{
closed = 1;
nodes = (
"99 896 OFFCURVE",
"20 792 OFFCURVE",
"20 694 CURVE SMOOTH",
"20 610 OFFCURVE",
"79 547 OFFCURVE",
"159 547 CURVE",
"159 601 LINE",
"125 601 OFFCURVE",
"94 640 OFFCURVE",
"94 694 CURVE SMOOTH",
"94 750 OFFCURVE",
"128 825 OFFCURVE",
"287 825 CURVE SMOOTH",
"347 825 OFFCURVE",
"394 815 OFFCURVE",
"419 804 CURVE",
"475 790 OFFCURVE",
"498 745 OFFCURVE",
"498 702 CURVE SMOOTH",
"498 662 OFFCURVE",
"479 640 OFFCURVE",
"443 640 CURVE SMOOTH",
"409 640 OFFCURVE",
"387 660 OFFCURVE",
"387 696 CURVE SMOOTH",
"387 734 OFFCURVE",
"410 764 OFFCURVE",
"449 797 CURVE",
"393 827 LINE",
"360 801 OFFCURVE",
"321 748 OFFCURVE",
"321 685 CURVE SMOOTH",
"321 627 OFFCURVE",
"357 581 OFFCURVE",
"444 581 CURVE SMOOTH",
"524 581 OFFCURVE",
"568 622 OFFCURVE",
"568 697 CURVE SMOOTH",
"568 786 OFFCURVE",
"506 896 OFFCURVE",
"298 896 CURVE SMOOTH"
);
}
);
width = 588;
},
{
anchors = (
{
name = _iVowel;
position = "{327, 0}";
}
);
layerId = "C62AB4C0-B70D-46F6-9B13-45217A94AFC9";
paths = (
{
closed = 1;
nodes = (
"114 952 OFFCURVE",
"20 825 OFFCURVE",
"20 700 CURVE SMOOTH",
"20 599 OFFCURVE",
"85 499 OFFCURVE",
"212 499 CURVE",
"228 586 LINE",
"189 586 OFFCURVE",
"157 630 OFFCURVE",
"157 681 CURVE SMOOTH",
"157 740 OFFCURVE",
"199 818 OFFCURVE",
"339 818 CURVE SMOOTH",
"388 818 OFFCURVE",
"427 808 OFFCURVE",
"448 798 CURVE",
"508 795 OFFCURVE",
"531 718 OFFCURVE",
"531 692 CURVE SMOOTH",
"531 675 OFFCURVE",
"521 649 OFFCURVE",
"492 649 CURVE SMOOTH",
"468 649 OFFCURVE",
"455 667 OFFCURVE",
"455 692 CURVE SMOOTH",
"455 727 OFFCURVE",
"482 758 OFFCURVE",
"544 802 CURVE",
"415 819 LINE",
"368 788 OFFCURVE",
"337 738 OFFCURVE",
"337 679 CURVE SMOOTH",
"337 591 OFFCURVE",
"408 531 OFFCURVE",
"496 531 CURVE SMOOTH",
"600 531 OFFCURVE",
"657 617 OFFCURVE",
"657 701 CURVE SMOOTH",
"657 771 OFFCURVE",
"617 952 OFFCURVE",
"340 952 CURVE SMOOTH"
);
}
);
width = 677;
},
{
anchors = (
{
name = _iVowel;
position = "{217, 0}";
}
);
layerId = "CF8E177F-0CDC-40C1-8828-F158AA64F32E";
paths = (
{
closed = 1;
nodes = (
"56 876 OFFCURVE",
"20 761 OFFCURVE",
"20 700 CURVE SMOOTH",
"20 651 OFFCURVE",
"42 592 OFFCURVE",
"96 592 CURVE",
"102 612 LINE",
"67 612 OFFCURVE",
"47 658 OFFCURVE",
"47 702 CURVE SMOOTH",
"47 753 OFFCURVE",
"76 851 OFFCURVE",
"208 851 CURVE SMOOTH",
"249 851 OFFCURVE",
"294 842 OFFCURVE",
"333 812 CURVE",
"357 803 OFFCURVE",
"385 754 OFFCURVE",
"385 698 CURVE SMOOTH",
"385 650 OFFCURVE",
"366 618 OFFCURVE",
"333 618 CURVE SMOOTH",
"304 618 OFFCURVE",
"280 643 OFFCURVE",
"280 693 CURVE SMOOTH",
"280 757 OFFCURVE",
"317 788 OFFCURVE",
"355 802 CURVE",
"335 820 LINE",
"298 809 OFFCURVE",
"255 760 OFFCURVE",
"255 691 CURVE SMOOTH",
"255 630 OFFCURVE",
"287 599 OFFCURVE",
"333 599 CURVE SMOOTH",
"381 599 OFFCURVE",
"409 635 OFFCURVE",
"409 696 CURVE SMOOTH",
"409 777 OFFCURVE",
"359 876 OFFCURVE",
"211 876 CURVE SMOOTH"
);
}
);
width = 429;
},
{
anchors = (
{
name = _iVowel;
position = "{244, 0}";
}
);
layerId = "56AEB5FB-BA14-4784-B08F-18006463EEDB";
paths = (
{
closed = 1;
nodes = (
"85 896 OFFCURVE",
"20 793 OFFCURVE",
"20 691 CURVE SMOOTH",
"20 611 OFFCURVE",
"62 547 OFFCURVE",
"122 547 CURVE",
"140 601 LINE",
"112 601 OFFCURVE",
"90 642 OFFCURVE",
"90 693 CURVE SMOOTH",
"90 750 OFFCURVE",
"119 825 OFFCURVE",
"243 825 CURVE SMOOTH",
"290 825 OFFCURVE",
"328 815 OFFCURVE",
"349 804 CURVE",
"394 790 OFFCURVE",
"413 746 OFFCURVE",
"413 702 CURVE SMOOTH",
"413 664 OFFCURVE",
"399 640 OFFCURVE",
"371 640 CURVE SMOOTH",
"344 640 OFFCURVE",
"327 661 OFFCURVE",
"327 696 CURVE SMOOTH",
"327 735 OFFCURVE",
"347 764 OFFCURVE",
"382 797 CURVE",
"326 827 LINE",
"296 800 OFFCURVE",
"265 746 OFFCURVE",
"265 688 CURVE SMOOTH",
"265 627 OFFCURVE",
"301 581 OFFCURVE",
"372 581 CURVE SMOOTH",
"441 581 OFFCURVE",
"478 624 OFFCURVE",
"478 699 CURVE SMOOTH",
"478 786 OFFCURVE",
"427 896 OFFCURVE",
"252 896 CURVE SMOOTH"
);
}
);
width = 498;
},
{
anchors = (
{
name = _iVowel;
position = "{282, 0}";
}
);
layerId = "DC607D84-584B-45E6-A9EB-D1AF471CA2AE";
paths = (
{
closed = 1;
nodes = (
"102 952 OFFCURVE",
"20 823 OFFCURVE",
"20 700 CURVE SMOOTH",
"20 598 OFFCURVE",
"79 499 OFFCURVE",
"206 499 CURVE",
"206 586 LINE",
"172 586 OFFCURVE",
"154 638 OFFCURVE",
"154 684 CURVE SMOOTH",
"154 743 OFFCURVE",
"188 818 OFFCURVE",
"293 818 CURVE SMOOTH",
"331 818 OFFCURVE",
"360 808 OFFCURVE",
"375 798 CURVE",
"419 795 OFFCURVE",
"444 732 OFFCURVE",
"444 692 CURVE SMOOTH",
"444 666 OFFCURVE",
"433 649 OFFCURVE",
"419 649 CURVE SMOOTH",
"404 649 OFFCURVE",
"397 668 OFFCURVE",
"397 690 CURVE SMOOTH",
"397 727 OFFCURVE",
"419 757 OFFCURVE",
"478 802 CURVE",
"347 819 LINE",
"303 788 OFFCURVE",
"282 738 OFFCURVE",
"282 681 CURVE SMOOTH",
"282 582 OFFCURVE",
"347 531 OFFCURVE",
"420 531 CURVE SMOOTH",
"513 531 OFFCURVE",
"567 616 OFFCURVE",
"567 700 CURVE SMOOTH",
"567 772 OFFCURVE",
"526 952 OFFCURVE",
"294 952 CURVE SMOOTH"
);
}
);
width = 587;
}
);
unicode = 0DD3;
category = Mark;
subCategory = Nonspacing;
}
{
glyphname = "nga-sinh";
layers = (
{
anchors = (
{
name = rakar;
position = "{774, 0}";
},
{
name = repaya;
position = "{331, 810}";
},
{
name = uvowel;
position = "{744, 0}";
}
);
layerId = "7977A986-4EFB-4152-84F8-5A02CD382AAF";
paths = (
{
closed = 1;
nodes = (
"334 -11 OFFCURVE",
"383 43 OFFCURVE",
"402 117 CURVE",
"398 117 LINE",
"415 41 OFFCURVE",
"470 -11 OFFCURVE",
"562 -11 CURVE SMOOTH",
"687 -11 OFFCURVE",
"774 81 OFFCURVE",
"774 348 CURVE SMOOTH",
"774 701 OFFCURVE",
"614 836 OFFCURVE",
"377 836 CURVE SMOOTH",
"270 836 OFFCURVE",
"205 810 OFFCURVE",
"111 769 CURVE",
"122 745 LINE",
"207 785 OFFCURVE",
"282 810 OFFCURVE",
"378 810 CURVE SMOOTH",
"623 810 OFFCURVE",
"747 655 OFFCURVE",
"747 345 CURVE SMOOTH",
"747 102 OFFCURVE",
"675 15 OFFCURVE",
"562 15 CURVE SMOOTH",
"445 15 OFFCURVE",
"413 114 OFFCURVE",
"413 171 CURVE SMOOTH",
"413 204 LINE",
"387 204 LINE",
"387 170 LINE SMOOTH",
"387 109 OFFCURVE",
"351 15 OFFCURVE",
"240 15 CURVE SMOOTH",
"148 15 OFFCURVE",
"87 80 OFFCURVE",
"87 199 CURVE SMOOTH",
"87 384 OFFCURVE",
"231 375 OFFCURVE",
"258 375 CURVE SMOOTH",
"309 375 OFFCURVE",
"341 350 OFFCURVE",
"395 350 CURVE SMOOTH",
"462 350 OFFCURVE",
"500 391 OFFCURVE",
"500 455 CURVE SMOOTH",
"500 566 OFFCURVE",
"387 612 OFFCURVE",
"280 612 CURVE SMOOTH",
"185 612 OFFCURVE",
"60 574 OFFCURVE",
"60 466 CURVE SMOOTH",
"60 413 OFFCURVE",
"88 366 OFFCURVE",
"157 366 CURVE SMOOTH",
"216 366 OFFCURVE",
"258 400 OFFCURVE",
"258 467 CURVE SMOOTH",
"258 526 OFFCURVE",
"224 562 OFFCURVE",
"151 576 CURVE",
"140 559 LINE",
"211 545 OFFCURVE",
"231 512 OFFCURVE",
"231 468 CURVE SMOOTH",
"231 421 OFFCURVE",
"207 392 OFFCURVE",
"158 392 CURVE SMOOTH",
"108 392 OFFCURVE",
"87 422 OFFCURVE",
"87 466 CURVE SMOOTH",
"87 515 OFFCURVE",
"114 546 OFFCURVE",
"155 564 CURVE SMOOTH",
"190 580 OFFCURVE",
"234 586 OFFCURVE",
"275 586 CURVE SMOOTH",
"376 586 OFFCURVE",
"473 549 OFFCURVE",
"473 454 CURVE SMOOTH",
"473 405 OFFCURVE",
"445 376 OFFCURVE",
"394 376 CURVE SMOOTH",
"346 376 OFFCURVE",
"311 401 OFFCURVE",
"253 401 CURVE SMOOTH",
"201 401 OFFCURVE",
"60 381 OFFCURVE",
"60 196 CURVE SMOOTH",
"60 70 OFFCURVE",
"129 -11 OFFCURVE",
"241 -11 CURVE SMOOTH"
);
}
);
width = 834;
},
{
anchors = (
{
name = rakar;
position = "{816, 0}";
},
{
name = repaya;
position = "{437, 770}";
},
{
name = uvowel;
position = "{775, 0}";
}
);
layerId = UUID0;
paths = (
{
closed = 1;
nodes = (
"340 -11 OFFCURVE",
"395 38 OFFCURVE",
"419 94 CURVE",
"404 94 LINE",
"416 44 OFFCURVE",
"473 -11 OFFCURVE",
"575 -11 CURVE SMOOTH",
"713 -11 OFFCURVE",
"816 84 OFFCURVE",
"816 349 CURVE SMOOTH",
"816 684 OFFCURVE",
"652 836 OFFCURVE",
"380 836 CURVE SMOOTH",
"265 836 OFFCURVE",
"171 810 OFFCURVE",
"76 766 CURVE",
"109 701 LINE",
"192 737 OFFCURVE",
"263 766 OFFCURVE",
"377 766 CURVE SMOOTH",
"625 766 OFFCURVE",
"741 622 OFFCURVE",
"741 345 CURVE SMOOTH",
"741 131 OFFCURVE",
"668 60 OFFCURVE",
"570 60 CURVE SMOOTH",
"475 60 OFFCURVE",
"444 122 OFFCURVE",
"444 208 CURVE SMOOTH",
"444 214 LINE",
"377 214 LINE",
"377 208 LINE SMOOTH",
"377 119 OFFCURVE",
"342 60 OFFCURVE",
"245 60 CURVE SMOOTH",
"158 60 OFFCURVE",
"109 111 OFFCURVE",
"109 208 CURVE SMOOTH",
"109 294 OFFCURVE",
"146 347 OFFCURVE",
"215 347 CURVE SMOOTH",
"272 347 OFFCURVE",
"299 310 OFFCURVE",
"375 310 CURVE SMOOTH",
"478 310 OFFCURVE",
"512 382 OFFCURVE",
"512 448 CURVE SMOOTH",
"512 566 OFFCURVE",
"407 612 OFFCURVE",
"271 612 CURVE SMOOTH",
"114 612 OFFCURVE",
"36 553 OFFCURVE",
"36 467 CURVE SMOOTH",
"36 401 OFFCURVE",
"85 345 OFFCURVE",
"155 345 CURVE SMOOTH",
"211 345 OFFCURVE",
"278 383 OFFCURVE",
"278 463 CURVE SMOOTH",
"278 523 OFFCURVE",
"238 558 OFFCURVE",
"202 557 CURVE",
"134 548 LINE",
"176 543 OFFCURVE",
"210 511 OFFCURVE",
"210 467 CURVE SMOOTH",
"210 437 OFFCURVE",
"193 410 OFFCURVE",
"157 410 CURVE SMOOTH",
"120 410 OFFCURVE",
"107 437 OFFCURVE",
"107 466 CURVE SMOOTH",
"107 521 OFFCURVE",
"152 541 OFFCURVE",
"189 541 CURVE",
"201 543 OFFCURVE",
"244 546 OFFCURVE",
"277 546 CURVE SMOOTH",
"357 546 OFFCURVE",
"439 527 OFFCURVE",
"439 447 CURVE SMOOTH",
"439 408 OFFCURVE",
"419 376 OFFCURVE",
"368 376 CURVE SMOOTH",
"313 376 OFFCURVE",
"278 414 OFFCURVE",
"206 414 CURVE SMOOTH",
"102 414 OFFCURVE",
"36 331 OFFCURVE",
"36 205 CURVE SMOOTH",
"36 65 OFFCURVE",
"122 -11 OFFCURVE",
"241 -11 CURVE SMOOTH"
);
}
);
width = 864;
},
{
anchors = (
{
name = rakar;
position = "{876, 0}";
},
{
name = repaya;
position = "{400, 750}";
},
{
name = uvowel;
position = "{821, 0}";
}
);
layerId = "C62AB4C0-B70D-46F6-9B13-45217A94AFC9";
paths = (
{
closed = 1;
nodes = (
"358 -11 OFFCURVE",
"440 54 OFFCURVE",
"436 155 CURVE",
"428 155 LINE",
"423 54 OFFCURVE",
"507 -11 OFFCURVE",
"621 -11 CURVE SMOOTH",
"763 -11 OFFCURVE",
"876 86 OFFCURVE",
"876 361 CURVE SMOOTH",
"876 707 OFFCURVE",
"705 836 OFFCURVE",
"412 836 CURVE SMOOTH",
"247 836 OFFCURVE",
"111 793 OFFCURVE",
"32 761 CURVE",
"82 632 LINE",
"149 660 OFFCURVE",
"258 692 OFFCURVE",
"388 692 CURVE SMOOTH",
"602 692 OFFCURVE",
"702 610 OFFCURVE",
"702 362 CURVE SMOOTH",
"702 231 OFFCURVE",
"674 137 OFFCURVE",
"592 137 CURVE SMOOTH",
"535 137 OFFCURVE",
"506 180 OFFCURVE",
"506 252 CURVE SMOOTH",
"506 256 LINE",
"356 256 LINE",
"356 252 LINE SMOOTH",
"356 184 OFFCURVE",
"330 137 OFFCURVE",
"265 137 CURVE SMOOTH",
"208 137 OFFCURVE",
"181 173 OFFCURVE",
"181 220 CURVE SMOOTH",
"181 257 OFFCURVE",
"198 309 OFFCURVE",
"279 309 CURVE SMOOTH",
"329 309 OFFCURVE",
"357 291 OFFCURVE",
"410 291 CURVE SMOOTH",
"515 291 OFFCURVE",
"561 364 OFFCURVE",
"561 442 CURVE SMOOTH",
"561 553 OFFCURVE",
"466 622 OFFCURVE",
"284 622 CURVE SMOOTH",
"98 622 OFFCURVE",
"20 546 OFFCURVE",
"20 457 CURVE SMOOTH",
"20 369 OFFCURVE",
"92 333 OFFCURVE",
"161 333 CURVE SMOOTH",
"232 333 OFFCURVE",
"321 372 OFFCURVE",
"321 455 CURVE SMOOTH",
"321 470 OFFCURVE",
"318 510 OFFCURVE",
"268 550 CURVE",
"195 515 LINE",
"204 499 OFFCURVE",
"214 476 OFFCURVE",
"214 458 CURVE SMOOTH",
"214 436 OFFCURVE",
"202 419 OFFCURVE",
"175 419 CURVE SMOOTH",
"150 419 OFFCURVE",
"136 434 OFFCURVE",
"136 457 CURVE SMOOTH",
"136 490 OFFCURVE",
"164 504 OFFCURVE",
"226 507 CURVE SMOOTH",
"245 508 OFFCURVE",
"263 508 OFFCURVE",
"279 508 CURVE SMOOTH",
"387 508 OFFCURVE",
"432 490 OFFCURVE",
"432 450 CURVE SMOOTH",
"432 424 OFFCURVE",
"414 411 OFFCURVE",
"384 411 CURVE SMOOTH",
"351 411 OFFCURVE",
"299 426 OFFCURVE",
"245 426 CURVE SMOOTH",
"102 426 OFFCURVE",
"20 315 OFFCURVE",
"20 201 CURVE SMOOTH",
"20 78 OFFCURVE",
"115 -11 OFFCURVE",
"248 -11 CURVE SMOOTH"
);
}
);
width = 900;
},
{
anchors = (
{
name = rakar;
position = "{564, 0}";
},
{
name = repaya;
position = "{207, 810}";
},
{
name = uvowel;
position = "{539, 0}";
}
);
layerId = "CF8E177F-0CDC-40C1-8828-F158AA64F32E";
paths = (
{
closed = 1;
nodes = (
"254 -11 OFFCURVE",
"285 56 OFFCURVE",
"292 110 CURVE",
"290 110 LINE",
"297 56 OFFCURVE",
"330 -11 OFFCURVE",
"409 -11 CURVE SMOOTH",
"499 -11 OFFCURVE",
"564 74 OFFCURVE",
"564 351 CURVE SMOOTH",
"564 695 OFFCURVE",
"457 836 OFFCURVE",
"280 836 CURVE SMOOTH",
"197 836 OFFCURVE",
"128 807 OFFCURVE",
"74 777 CURVE",
"86 754 LINE",
"136 782 OFFCURVE",
"197 810 OFFCURVE",
"276 810 CURVE SMOOTH",
"446 810 OFFCURVE",
"537 674 OFFCURVE",
"537 350 CURVE SMOOTH",
"537 91 OFFCURVE",
"482 15 OFFCURVE",
"408 15 CURVE SMOOTH",
"328 15 OFFCURVE",
"304 103 OFFCURVE",
"304 167 CURVE SMOOTH",
"304 204 LINE",
"278 204 LINE",
"278 167 LINE SMOOTH",
"278 104 OFFCURVE",
"254 15 OFFCURVE",
"178 15 CURVE SMOOTH",
"112 15 OFFCURVE",
"69 85 OFFCURVE",
"69 192 CURVE SMOOTH",
"69 276 OFFCURVE",
"95 365 OFFCURVE",
"166 365 CURVE SMOOTH",
"210 365 OFFCURVE",
"229 332 OFFCURVE",
"284 332 CURVE SMOOTH",
"353 332 OFFCURVE",
"384 387 OFFCURVE",
"384 453 CURVE SMOOTH",
"384 544 OFFCURVE",
"323 612 OFFCURVE",
"215 612 CURVE SMOOTH",
"104 612 OFFCURVE",
"44 545 OFFCURVE",
"44 468 CURVE SMOOTH",
"44 407 OFFCURVE",
"82 365 OFFCURVE",
"141 365 CURVE SMOOTH",
"193 365 OFFCURVE",
"236 399 OFFCURVE",
"236 468 CURVE SMOOTH",
"236 539 OFFCURVE",
"189 566 OFFCURVE",
"135 579 CURVE",
"112 566 LINE",
"168 555 OFFCURVE",
"210 529 OFFCURVE",
"210 467 CURVE SMOOTH",
"210 418 OFFCURVE",
"185 391 OFFCURVE",
"141 391 CURVE SMOOTH",
"95 391 OFFCURVE",
"71 420 OFFCURVE",
"71 468 CURVE SMOOTH",
"71 531 OFFCURVE",
"113 559 OFFCURVE",
"138 570 CURVE SMOOTH",
"160 580 OFFCURVE",
"189 586 OFFCURVE",
"217 586 CURVE SMOOTH",
"303 586 OFFCURVE",
"357 533 OFFCURVE",
"357 452 CURVE SMOOTH",
"357 405 OFFCURVE",
"340 359 OFFCURVE",
"285 359 CURVE SMOOTH",
"238 359 OFFCURVE",
"212 391 OFFCURVE",
"163 391 CURVE SMOOTH",
"74 391 OFFCURVE",
"42 288 OFFCURVE",
"42 193 CURVE SMOOTH",
"42 74 OFFCURVE",
"94 -11 OFFCURVE",
"178 -11 CURVE SMOOTH"
);
}
);
width = 606;
},
{
anchors = (
{
name = rakar;
position = "{562.755, 0}";
},
{
name = repaya;
position = "{310.4, 770}";
},
{
name = uvowel;
position = "{560.259, 0}";
}
);
associatedMasterId = "CF8E177F-0CDC-40C1-8828-F158AA64F32E";
layerId = "ACD513A8-06CB-463D-9D2D-D443D55702BE";
name = "21 Apr 25, 10:52";
paths = (
{
closed = 1;
nodes = (
"512 -11 OFFCURVE",
"577 74 OFFCURVE",
"577 352 CURVE SMOOTH",
"577 696 OFFCURVE",
"469 836 OFFCURVE",
"276 836 CURVE SMOOTH",
"196 836 OFFCURVE",
"122 813 OFFCURVE",
"59 779 CURVE",
"71 756 LINE",
"130 788 OFFCURVE",
"193 810 OFFCURVE",
"277 810 CURVE SMOOTH",
"456 810 OFFCURVE",
"550 675 OFFCURVE",
"550 352 CURVE SMOOTH",
"550 90 OFFCURVE",
"495 15 OFFCURVE",
"421 15 CURVE SMOOTH",
"340 15 OFFCURVE",
"316 101 OFFCURVE",
"316 168 CURVE SMOOTH",
"316 204 LINE",
"290 204 LINE",
"290 168 LINE SMOOTH",
"290 96 OFFCURVE",
"266 15 OFFCURVE",
"189 15 CURVE SMOOTH",
"127 15 OFFCURVE",
"88 67 OFFCURVE",
"88 169 CURVE SMOOTH",
"88 262 OFFCURVE",
"137 305 OFFCURVE",
"199 344 CURVE SMOOTH",
"239 369 LINE SMOOTH",
"298 406 OFFCURVE",
"335 434 OFFCURVE",
"335 500 CURVE SMOOTH",
"335 573 OFFCURVE",
"276 612 OFFCURVE",
"180 612 CURVE SMOOTH",
"66 612 OFFCURVE",
"21 554 OFFCURVE",
"21 483 CURVE SMOOTH",
"21 423 OFFCURVE",
"49 386 OFFCURVE",
"98 386 CURVE SMOOTH",
"143 386 OFFCURVE",
"180 412 OFFCURVE",
"180 481 CURVE SMOOTH",
"180 535 OFFCURVE",
"159 574 OFFCURVE",
"142 594 CURVE",
"115 589 LINE",
"138 560 OFFCURVE",
"154 524 OFFCURVE",
"154 481 CURVE SMOOTH",
"154 431 OFFCURVE",
"132 412 OFFCURVE",
"99 412 CURVE SMOOTH",
"65 412 OFFCURVE",
"48 435 OFFCURVE",
"48 483 CURVE SMOOTH",
"48 546 OFFCURVE",
"86 574 OFFCURVE",
"137 583 CURVE",
"151 586 OFFCURVE",
"167 586 OFFCURVE",
"182 586 CURVE SMOOTH",
"253 586 OFFCURVE",
"308 563 OFFCURVE",
"308 500 CURVE SMOOTH",
"308 451 OFFCURVE",
"285 430 OFFCURVE",
"232 396 CURVE SMOOTH",
"189 368 LINE SMOOTH",
"136 333 OFFCURVE",
"102 305 OFFCURVE",
"83 267 CURVE SMOOTH",
"70 240 OFFCURVE",
"61 210 OFFCURVE",
"61 171 CURVE SMOOTH",
"61 59 OFFCURVE",
"108 -11 OFFCURVE",
"187 -11 CURVE SMOOTH",
"258 -11 OFFCURVE",
"293 44 OFFCURVE",
"302 97 CURVE",
"316 37 OFFCURVE",
"349 -11 OFFCURVE",
"422 -11 CURVE SMOOTH"
);
}
);
width = 620;
},
{
anchors = (
{
name = rakar;
position = "{608, 0}";
},
{
name = repaya;
position = "{290, 782}";
},
{
name = uvowel;
position = "{583, 0}";
}
);
layerId = "56AEB5FB-BA14-4784-B08F-18006463EEDB";
paths = (
{
closed = 1;
nodes = (
"260 -11 OFFCURVE",
"311 43 OFFCURVE",
"316 103 CURVE",
"310 103 LINE",
"317 42 OFFCURVE",
"360 -11 OFFCURVE",
"438 -11 CURVE SMOOTH",
"539 -11 OFFCURVE",
"608 72 OFFCURVE",
"608 350 CURVE SMOOTH",
"608 692 OFFCURVE",
"497 836 OFFCURVE",
"285 836 CURVE SMOOTH",
"190 836 OFFCURVE",
"134 805 OFFCURVE",
"62 764 CURVE",
"92 706 LINE",
"152 741 OFFCURVE",
"204 770 OFFCURVE",
"284 770 CURVE SMOOTH",
"463 770 OFFCURVE",
"538 636 OFFCURVE",
"538 345 CURVE SMOOTH",
"538 124 OFFCURVE",
"497 56 OFFCURVE",
"429 56 CURVE SMOOTH",
"371 56 OFFCURVE",
"345 102 OFFCURVE",
"345 199 CURVE SMOOTH",
"345 213 LINE",
"281 213 LINE",
"281 196 LINE SMOOTH",
"281 109 OFFCURVE",
"254 56 OFFCURVE",
"191 56 CURVE SMOOTH",
"134 56 OFFCURVE",
"106 100 OFFCURVE",
"106 205 CURVE SMOOTH",
"106 258 OFFCURVE",
"113 348 OFFCURVE",
"179 348 CURVE SMOOTH",
"219 348 OFFCURVE",
"239 312 OFFCURVE",
"290 312 CURVE SMOOTH",
"348 312 OFFCURVE",
"394 361 OFFCURVE",
"394 447 CURVE SMOOTH",
"394 551 OFFCURVE",
"325 612 OFFCURVE",
"211 612 CURVE SMOOTH",
"90 612 OFFCURVE",
"36 547 OFFCURVE",
"36 467 CURVE SMOOTH",
"36 396 OFFCURVE",
"77 348 OFFCURVE",
"134 348 CURVE SMOOTH",
"188 348 OFFCURVE",
"241 390 OFFCURVE",
"241 460 CURVE SMOOTH",
"241 502 OFFCURVE",
"222 543 OFFCURVE",
"186 560 CURVE",
"129 550 LINE",
"173 532 OFFCURVE",
"178 498 OFFCURVE",
"178 475 CURVE SMOOTH",
"178 435 OFFCURVE",
"162 411 OFFCURVE",
"137 411 CURVE SMOOTH",
"112 411 OFFCURVE",
"100 436 OFFCURVE",
"100 469 CURVE SMOOTH",
"100 509 OFFCURVE",
"117 545 OFFCURVE",
"177 548 CURVE SMOOTH",
"179 548 OFFCURVE",
"194 550 OFFCURVE",
"213 550 CURVE SMOOTH",
"292 550 OFFCURVE",
"326 513 OFFCURVE",
"326 447 CURVE SMOOTH",
"326 405 OFFCURVE",
"312 379 OFFCURVE",
"280 379 CURVE SMOOTH",
"243 379 OFFCURVE",
"219 413 OFFCURVE",
"166 413 CURVE SMOOTH",
"82 413 OFFCURVE",
"37 321 OFFCURVE",
"37 198 CURVE SMOOTH",
"37 59 OFFCURVE",
"97 -11 OFFCURVE",
"185 -11 CURVE SMOOTH"
);
}
);
width = 644;
},
{
anchors = (
{
name = rakar;
position = "{606.323, 0}";
},
{
name = repaya;
position = "{334.431, 770}";
},
{
name = uvowel;
position = "{603.634, 0}";
}
);
associatedMasterId = "56AEB5FB-BA14-4784-B08F-18006463EEDB";
layerId = "3D32F712-13D8-4E73-8409-342D1FCBC865";
name = "21 Apr 25, 13:08";
paths = (
{
closed = 1;
nodes = (
"561 -11 OFFCURVE",
"630 69 OFFCURVE",
"630 351 CURVE SMOOTH",
"630 692 OFFCURVE",
"519 836 OFFCURVE",
"302 836 CURVE SMOOTH",
"203 836 OFFCURVE",
"130 810 OFFCURVE",
"62 771 CURVE",
"90 713 LINE",
"150 748 OFFCURVE",
"213 770 OFFCURVE",
"302 770 CURVE SMOOTH",
"485 770 OFFCURVE",
"560 634 OFFCURVE",
"560 350 CURVE SMOOTH",
"560 123 OFFCURVE",
"519 56 OFFCURVE",
"452 56 CURVE SMOOTH",
"393 56 OFFCURVE",
"366 109 OFFCURVE",
"366 194 CURVE SMOOTH",
"366 213 LINE",
"302 213 LINE",
"302 196 LINE SMOOTH",
"302 109 OFFCURVE",
"277 56 OFFCURVE",
"211 56 CURVE SMOOTH",
"161 56 OFFCURVE",
"133 92 OFFCURVE",
"133 172 CURVE SMOOTH",
"133 251 OFFCURVE",
"170 286 OFFCURVE",
"225 321 CURVE SMOOTH",
"266 347 LINE SMOOTH",
"339 393 OFFCURVE",
"379 424 OFFCURVE",
"379 491 CURVE SMOOTH",
"379 571 OFFCURVE",
"310 612 OFFCURVE",
"210 612 CURVE SMOOTH",
"75 612 OFFCURVE",
"21 552 OFFCURVE",
"21 473 CURVE SMOOTH",
"21 400 OFFCURVE",
"62 365 OFFCURVE",
"120 365 CURVE SMOOTH",
"168 365 OFFCURVE",
"221 391 OFFCURVE",
"221 469 CURVE SMOOTH",
"221 503 OFFCURVE",
"210 538 OFFCURVE",
"190 560 CURVE",
"133 550 LINE",
"149 528 OFFCURVE",
"158 503 OFFCURVE",
"158 472 CURVE SMOOTH",
"158 440 OFFCURVE",
"145 426 OFFCURVE",
"122 426 CURVE SMOOTH",
"97 426 OFFCURVE",
"85 442 OFFCURVE",
"85 476 CURVE SMOOTH",
"85 514 OFFCURVE",
"103 546 OFFCURVE",
"162 548 CURVE",
"172 549 OFFCURVE",
"184 550 OFFCURVE",
"211 550 CURVE SMOOTH",
"270 550 OFFCURVE",
"311 533 OFFCURVE",
"311 492 CURVE SMOOTH",
"311 457 OFFCURVE",
"287 437 OFFCURVE",
"237 405 CURVE SMOOTH",
"207 386 LINE SMOOTH",
"150 350 OFFCURVE",
"122 326 OFFCURVE",
"101 296 CURVE SMOOTH",
"80 266 OFFCURVE",
"64 229 OFFCURVE",
"64 176 CURVE SMOOTH",
"64 53 OFFCURVE",
"119 -11 OFFCURVE",
"209 -11 CURVE SMOOTH",
"269 -11 OFFCURVE",
"304 20 OFFCURVE",
"333 77 CURVE",
"359 26 OFFCURVE",
"392 -11 OFFCURVE",
"458 -11 CURVE SMOOTH"
);
}
);
width = 668;
},
{
anchors = (
{
name = rakar;
position = "{701, 0}";
},
{
name = repaya;
position = "{306, 752}";
},
{
name = uvowel;
position = "{656, 0}";
}
);
layerId = "DC607D84-584B-45E6-A9EB-D1AF471CA2AE";
paths = (
{
closed = 1;
nodes = (
"301 -11 OFFCURVE",
"358 66 OFFCURVE",
"357 136 CURVE",
"343 136 LINE",
"342 66 OFFCURVE",
"396 -11 OFFCURVE",
"501 -11 CURVE SMOOTH",
"626 -11 OFFCURVE",
"701 94 OFFCURVE",
"701 350 CURVE SMOOTH",
"701 692 OFFCURVE",
"561 836 OFFCURVE",
"320 836 CURVE SMOOTH",
"210 836 OFFCURVE",
"137 808 OFFCURVE",
"46 766 CURVE",
"95 649 LINE",
"167 683 OFFCURVE",
"226 706 OFFCURVE",
"308 706 CURVE SMOOTH",
"492 706 OFFCURVE",
"554 584 OFFCURVE",
"554 349 CURVE SMOOTH",
"554 201 OFFCURVE",
"530 133 OFFCURVE",
"476 133 CURVE SMOOTH",
"433 133 OFFCURVE",
"415 176 OFFCURVE",
"415 249 CURVE SMOOTH",
"415 257 LINE",
"285 257 LINE",
"285 245 LINE SMOOTH",
"285 175 OFFCURVE",
"261 133 OFFCURVE",
"216 133 CURVE SMOOTH",
"180 133 OFFCURVE",
"161 162 OFFCURVE",
"161 210 CURVE SMOOTH",
"161 251 OFFCURVE",
"174 306 OFFCURVE",
"231 306 CURVE SMOOTH",
"264 306 OFFCURVE",
"301 288 OFFCURVE",
"346 288 CURVE SMOOTH",
"433 288 OFFCURVE",
"469 358 OFFCURVE",
"469 431 CURVE SMOOTH",
"469 551 OFFCURVE",
"377 622 OFFCURVE",
"235 622 CURVE SMOOTH",
"87 622 OFFCURVE",
"24 548 OFFCURVE",
"24 465 CURVE SMOOTH",
"24 386 OFFCURVE",
"85 335 OFFCURVE",
"157 335 CURVE SMOOTH",
"217 335 OFFCURVE",
"279 370 OFFCURVE",
"279 451 CURVE SMOOTH",
"279 485 OFFCURVE",
"268 524 OFFCURVE",
"228 560 CURVE",
"178 520 LINE",
"189 508 OFFCURVE",
"198 473 OFFCURVE",
"198 457 CURVE SMOOTH",
"198 426 OFFCURVE",
"173 419 OFFCURVE",
"161 419 CURVE SMOOTH",
"150 419 OFFCURVE",
"127 425 OFFCURVE",
"127 459 CURVE SMOOTH",
"127 493 OFFCURVE",
"148 513 OFFCURVE",
"195 517 CURVE SMOOTH",
"207 518 OFFCURVE",
"221 518 OFFCURVE",
"256 518 CURVE SMOOTH",
"315 518 OFFCURVE",
"355 490 OFFCURVE",
"355 443 CURVE SMOOTH",
"355 416 OFFCURVE",
"342 398 OFFCURVE",
"313 398 CURVE SMOOTH",
"281 398 OFFCURVE",
"218 419 OFFCURVE",
"175 419 CURVE SMOOTH",
"77 419 OFFCURVE",
"24 307 OFFCURVE",
"24 207 CURVE SMOOTH",
"24 100 OFFCURVE",
"81 -11 OFFCURVE",
"203 -11 CURVE SMOOTH"
);
}
);
width = 725;
},
{
anchors = (
{
name = rakar;
position = "{692.552, 0}";
},
{
name = repaya;
position = "{381.992, 770}";
},
{
name = uvowel;
position = "{689.48, 0}";
}
);
associatedMasterId = "DC607D84-584B-45E6-A9EB-D1AF471CA2AE";
layerId = "6C83B9BC-6CAD-47C6-AA60-AEAA5AB7A015";
name = "21 Apr 25, 17:53";
paths = (
{
closed = 1;
nodes = (
"668 -11 OFFCURVE",
"736 90 OFFCURVE",
"736 359 CURVE SMOOTH",
"736 692 OFFCURVE",
"600 836 OFFCURVE",
"362 836 CURVE SMOOTH",
"252 836 OFFCURVE",
"168 808 OFFCURVE",
"77 766 CURVE",
"126 649 LINE",
"198 683 OFFCURVE",
"265 706 OFFCURVE",
"357 706 CURVE SMOOTH",
"534 706 OFFCURVE",
"596 573 OFFCURVE",
"596 363 CURVE SMOOTH",
"596 223 OFFCURVE",
"576 159 OFFCURVE",
"517 159 CURVE SMOOTH",
"478 159 OFFCURVE",
"457 196 OFFCURVE",
"457 249 CURVE SMOOTH",
"457 257 LINE",
"327 257 LINE",
"327 250 LINE SMOOTH",
"327 182 OFFCURVE",
"304 159 OFFCURVE",
"261 159 CURVE SMOOTH",
"224 159 OFFCURVE",
"210 180 OFFCURVE",
"210 205 CURVE SMOOTH",
"210 233 OFFCURVE",
"226 251 OFFCURVE",
"271 276 CURVE SMOOTH",
"324 306 LINE SMOOTH",
"415 358 OFFCURVE",
"445 401 OFFCURVE",
"445 471 CURVE SMOOTH",
"445 570 OFFCURVE",
"373 622 OFFCURVE",
"226 622 CURVE SMOOTH",
"69 622 OFFCURVE",
"9 554 OFFCURVE",
"9 473 CURVE SMOOTH",
"9 378 OFFCURVE",
"70 344 OFFCURVE",
"142 344 CURVE SMOOTH",
"202 344 OFFCURVE",
"264 373 OFFCURVE",
"264 455 CURVE SMOOTH",
"264 488 OFFCURVE",
"253 524 OFFCURVE",
"213 560 CURVE",
"150 520 LINE",
"161 508 OFFCURVE",
"170 497 OFFCURVE",
"170 475 CURVE SMOOTH",
"170 450 OFFCURVE",
"158 443 OFFCURVE",
"146 443 CURVE SMOOTH",
"137 443 OFFCURVE",
"121 449 OFFCURVE",
"121 473 CURVE SMOOTH",
"121 500 OFFCURVE",
"137 513 OFFCURVE",
"173 514 CURVE",
"192 515 OFFCURVE",
"206 515 OFFCURVE",
"222 515 CURVE SMOOTH",
"286 515 OFFCURVE",
"310 499 OFFCURVE",
"310 473 CURVE SMOOTH",
"310 443 OFFCURVE",
"290 431 OFFCURVE",
"242 403 CURVE SMOOTH",
"210 384 LINE SMOOTH",
"168 360 OFFCURVE",
"129 330 OFFCURVE",
"107 296 CURVE SMOOTH",
"87 266 OFFCURVE",
"75 229 OFFCURVE",
"75 184 CURVE SMOOTH",
"75 58 OFFCURVE",
"147 -11 OFFCURVE",
"248 -11 CURVE SMOOTH",
"317 -11 OFFCURVE",
"354 17 OFFCURVE",
"391 68 CURVE",
"421 23 OFFCURVE",
"460 -11 OFFCURVE",
"530 -11 CURVE SMOOTH"
);
}
);
width = 763;
}
);
leftMetricsKey = "ga-sinh";
rightKerningGroup = "nga-sinh";
rightMetricsKey = "tta-sinh";
unicode = 0D9E;
script = sinhala;
category = Letter;
subCategory = Letter;
}
{
glyphname = "ra-sinh";
layers = (
{
anchors = (
{
name = alSign;
position = "{219, 0}";
}
);
layerId = "7977A986-4EFB-4152-84F8-5A02CD382AAF";
paths = (
{
closed = 1;
nodes = (
"553 -11 OFFCURVE",
"648 121 OFFCURVE",
"648 281 CURVE SMOOTH",
"648 476 OFFCURVE",
"504 565 OFFCURVE",
"373 565 CURVE SMOOTH",
"339 565 OFFCURVE",
"301 559 OFFCURVE",
"283 549 CURVE SMOOTH",
"253 532 LINE SMOOTH",
"221 514 OFFCURVE",
"289 539 OFFCURVE",
"350 539 CURVE SMOOTH",
"512 539 OFFCURVE",
"621 447 OFFCURVE",
"621 281 CURVE SMOOTH",
"621 134 OFFCURVE",
"527 15 OFFCURVE",
"350 15 CURVE SMOOTH",
"177 15 OFFCURVE",
"87 123 OFFCURVE",
"87 278 CURVE SMOOTH",
"87 405 OFFCURVE",
"144 494 OFFCURVE",
"308 549 CURVE",
"318 560 LINE",
"415 601 OFFCURVE",
"531 689 OFFCURVE",
"632 776 CURVE",
"614 797 LINE",
"514 712 OFFCURVE",
"415 631 OFFCURVE",
"303 574 CURVE",
"169 522 OFFCURVE",
"60 460 OFFCURVE",
"60 276 CURVE SMOOTH",
"60 111 OFFCURVE",
"154 -11 OFFCURVE",
"350 -11 CURVE SMOOTH"
);
}
);
width = 698;
},
{
anchors = (
{
name = alSign;
position = "{252, 0}";
}
);
layerId = UUID0;
paths = (
{
closed = 1;
nodes = (
"539 -11 OFFCURVE",
"664 96 OFFCURVE",
"664 284 CURVE SMOOTH",
"664 469 OFFCURVE",
"543 563 OFFCURVE",
"364 563 CURVE SMOOTH",
"338 563 OFFCURVE",
"309 561 OFFCURVE",
"287 552 CURVE",
"182 459 LINE",
"246 503 OFFCURVE",
"306 506 OFFCURVE",
"337 506 CURVE SMOOTH",
"497 506 OFFCURVE",
"591 427 OFFCURVE",
"591 283 CURVE SMOOTH",
"591 155 OFFCURVE",
"514 60 OFFCURVE",
"341 60 CURVE SMOOTH",
"179 60 OFFCURVE",
"107 149 OFFCURVE",
"107 282 CURVE SMOOTH",
"107 395 OFFCURVE",
"156 476 OFFCURVE",
"318 521 CURVE",
"347 552 LINE",
"436 585 OFFCURVE",
"552 661 OFFCURVE",
"655 749 CURVE",
"607 805 LINE",
"498 715 OFFCURVE",
"377 629 OFFCURVE",
"276 573 CURVE",
"116 515 OFFCURVE",
"34 441 OFFCURVE",
"34 279 CURVE SMOOTH",
"34 94 OFFCURVE",
"146 -11 OFFCURVE",
"340 -11 CURVE SMOOTH"
);
}
);
width = 690;
},
{
anchors = (
{
name = alSign;
position = "{172, 0}";
}
);
layerId = "C62AB4C0-B70D-46F6-9B13-45217A94AFC9";
paths = (
{
closed = 1;
nodes = (
"576 -11 OFFCURVE",
"702 101 OFFCURVE",
"702 292 CURVE SMOOTH",
"702 465 OFFCURVE",
"595 563 OFFCURVE",
"426 563 CURVE SMOOTH",
"384 563 OFFCURVE",
"302 557 OFFCURVE",
"305 548 CURVE",
"189 395 LINE",
"220 439 OFFCURVE",
"277 465 OFFCURVE",
"355 465 CURVE SMOOTH",
"482 465 OFFCURVE",
"544 398 OFFCURVE",
"544 300 CURVE SMOOTH",
"544 211 OFFCURVE",
"489 142 OFFCURVE",
"350 142 CURVE SMOOTH",
"216 142 OFFCURVE",
"165 210 OFFCURVE",
"165 299 CURVE SMOOTH",
"165 390 OFFCURVE",
"221 446 OFFCURVE",
"341 496 CURVE",
"404 548 LINE",
"512 582 OFFCURVE",
"548 606 OFFCURVE",
"685 711 CURVE",
"586 818 LINE",
"463 725 OFFCURVE",
"368 651 OFFCURVE",
"252 594 CURVE",
"60 520 OFFCURVE",
"12 418 OFFCURVE",
"12 294 CURVE SMOOTH",
"12 95 OFFCURVE",
"141 -11 OFFCURVE",
"352 -11 CURVE SMOOTH"
);
}
);
width = 722;
},
{
anchors = (
{
name = alSign;
position = "{188, 517}";
}
);
associatedMasterId = "C62AB4C0-B70D-46F6-9B13-45217A94AFC9";
layerId = "50D0E0AC-6925-4BF9-AFA0-5F8E4E86290E";
name = "14 May 24, 11:52";
paths = (
{
closed = 1;
nodes = (
"597 -11 OFFCURVE",
"718 101 OFFCURVE",
"718 300 CURVE SMOOTH",
"718 478 OFFCURVE",
"602 578 OFFCURVE",
"430 578 CURVE SMOOTH",
"381 578 OFFCURVE",
"343 572 OFFCURVE",
"321 563 CURVE",
"205 437 LINE",
"260 458 OFFCURVE",
"292 465 OFFCURVE",
"373 465 CURVE SMOOTH",
"510 465 OFFCURVE",
"576 410 OFFCURVE",
"576 318 CURVE SMOOTH",
"576 223 OFFCURVE",
"506 172 OFFCURVE",
"364 172 CURVE SMOOTH",
"232 172 OFFCURVE",
"170 222 OFFCURVE",
"170 306 CURVE SMOOTH",
"170 402 OFFCURVE",
"237 446 OFFCURVE",
"357 496 CURVE",
"414 528 LINE",
"535 561 OFFCURVE",
"631 609 OFFCURVE",
"737 702 CURVE",
"640 814 LINE",
"517 721 OFFCURVE",
"409 651 OFFCURVE",
"293 594 CURVE",
"97 519 OFFCURVE",
"28 415 OFFCURVE",
"28 280 CURVE SMOOTH",
"28 92 OFFCURVE",
"164 -11 OFFCURVE",
"366 -11 CURVE SMOOTH"
);
}
);
width = 746;
},
{
anchors = (
{
name = alSign;
position = "{129, 0}";
}
);
layerId = "CF8E177F-0CDC-40C1-8828-F158AA64F32E";
paths = (
{
closed = 1;
nodes = (
"392 -11 OFFCURVE",
"454 118 OFFCURVE",
"454 280 CURVE SMOOTH",
"454 480 OFFCURVE",
"355 563 OFFCURVE",
"248 563 CURVE SMOOTH",
"188 563 OFFCURVE",
"161 536 OFFCURVE",
"131 517 CURVE",
"107 461 LINE",
"131 497 OFFCURVE",
"171 538 OFFCURVE",
"243 538 CURVE SMOOTH",
"345 538 OFFCURVE",
"427 458 OFFCURVE",
"427 281 CURVE SMOOTH",
"427 136 OFFCURVE",
"372 15 OFFCURVE",
"245 15 CURVE SMOOTH",
"113 15 OFFCURVE",
"63 139 OFFCURVE",
"63 288 CURVE SMOOTH",
"63 401 OFFCURVE",
"91 485 OFFCURVE",
"211 549 CURVE",
"216 557 LINE",
"282 603 OFFCURVE",
"381 689 OFFCURVE",
"450 779 CURVE",
"430 797 LINE",
"359 710 OFFCURVE",
"255 613 OFFCURVE",
"175 555 CURVE",
"88 508 OFFCURVE",
"36 440 OFFCURVE",
"36 283 CURVE SMOOTH",
"36 118 OFFCURVE",
"97 -11 OFFCURVE",
"245 -11 CURVE SMOOTH"
);
}
);
width = 492;
},
{
anchors = (
{
name = alSign;
position = "{134.774, 517}";
}
);
associatedMasterId = "CF8E177F-0CDC-40C1-8828-F158AA64F32E";
layerId = "66726F69-38B3-4F7B-A3F9-58E39BE490E7";
name = "3 Apr 25, 08:13";
paths = (
{
closed = 1;
nodes = (
"392 -11 OFFCURVE",
"458 110 OFFCURVE",
"458 281 CURVE SMOOTH",
"458 474 OFFCURVE",
"370 563 OFFCURVE",
"258 563 CURVE SMOOTH",
"243 563 OFFCURVE",
"214 558 OFFCURVE",
"202 555 CURVE",
"163 523 LINE",
"187 532 OFFCURVE",
"219 538 OFFCURVE",
"253 538 CURVE SMOOTH",
"360 538 OFFCURVE",
"431 452 OFFCURVE",
"431 281 CURVE SMOOTH",
"431 129 OFFCURVE",
"379 15 OFFCURVE",
"243 15 CURVE SMOOTH",
"120 15 OFFCURVE",
"67 109 OFFCURVE",
"67 267 CURVE SMOOTH",
"67 393 OFFCURVE",
"123 487 OFFCURVE",
"243 549 CURVE",
"248 557 LINE",
"314 603 OFFCURVE",
"413 689 OFFCURVE",
"482 779 CURVE",
"462 797 LINE",
"391 710 OFFCURVE",
"314 636 OFFCURVE",
"234 578 CURVE",
"125 510 OFFCURVE",
"40 433 OFFCURVE",
"40 265 CURVE SMOOTH",
"40 95 OFFCURVE",
"104 -11 OFFCURVE",
"242 -11 CURVE SMOOTH"
);
}
);
width = 498;
},
{
anchors = (
{
name = alSign;
position = "{139, 0}";
}
);
layerId = "56AEB5FB-BA14-4784-B08F-18006463EEDB";
paths = (
{
closed = 1;
nodes = (
"404 -11 OFFCURVE",
"490 97 OFFCURVE",
"490 278 CURVE SMOOTH",
"490 473 OFFCURVE",
"395 564 OFFCURVE",
"290 564 CURVE SMOOTH",
"237 564 OFFCURVE",
"178 541 OFFCURVE",
"128 496 CURVE",
"128 431 LINE",
"146 471 OFFCURVE",
"192 507 OFFCURVE",
"262 507 CURVE SMOOTH",
"365 507 OFFCURVE",
"420 432 OFFCURVE",
"420 283 CURVE SMOOTH",
"420 143 OFFCURVE",
"370 57 OFFCURVE",
"260 57 CURVE SMOOTH",
"151 57 OFFCURVE",
"101 141 OFFCURVE",
"101 292 CURVE SMOOTH",
"101 383 OFFCURVE",
"119 469 OFFCURVE",
"228 523 CURVE",
"252 554 LINE",
"323 590 OFFCURVE",
"421 681 OFFCURVE",
"480 758 CURVE",
"428 805 LINE",
"349 708 OFFCURVE",
"267 625 OFFCURVE",
"184 565 CURVE",
"76 515 OFFCURVE",
"31 424 OFFCURVE",
"31 282 CURVE SMOOTH",
"31 95 OFFCURVE",
"113 -11 OFFCURVE",
"260 -11 CURVE SMOOTH"
);
}
);
width = 526;
},
{
anchors = (
{
name = alSign;
position = "{142.893, 517}";
}
);
associatedMasterId = "56AEB5FB-BA14-4784-B08F-18006463EEDB";
layerId = "DE89A43C-7F7B-4879-A173-7D0DF9964FE6";
name = "3 Apr 25, 08:13";
paths = (
{
closed = 1;
nodes = (
"406 -11 OFFCURVE",
"494 86 OFFCURVE",
"494 283 CURVE SMOOTH",
"494 483 OFFCURVE",
"406 564 OFFCURVE",
"297 564 CURVE SMOOTH",
"259 564 OFFCURVE",
"237 559 OFFCURVE",
"222 553 CURVE",
"161 487 LINE",
"194 499 OFFCURVE",
"232 507 OFFCURVE",
"266 507 CURVE SMOOTH",
"369 507 OFFCURVE",
"424 436 OFFCURVE",
"424 281 CURVE SMOOTH",
"424 142 OFFCURVE",
"372 57 OFFCURVE",
"257 57 CURVE SMOOTH",
"153 57 OFFCURVE",
"105 132 OFFCURVE",
"105 267 CURVE SMOOTH",
"105 383 OFFCURVE",
"156 469 OFFCURVE",
"268 523 CURVE",
"296 552 LINE",
"364 591 OFFCURVE",
"457 681 OFFCURVE",
"520 758 CURVE",
"468 805 LINE",
"384 708 OFFCURVE",
"307 633 OFFCURVE",
"243 584 CURVE",
"114 511 OFFCURVE",
"35 424 OFFCURVE",
"35 264 CURVE SMOOTH",
"35 84 OFFCURVE",
"115 -11 OFFCURVE",
"257 -11 CURVE SMOOTH"
);
}
);
width = 528;
},
{
anchors = (
{
name = alSign;
position = "{231, 0}";
}
);
layerId = "DC607D84-584B-45E6-A9EB-D1AF471CA2AE";
paths = (
{
closed = 1;
nodes = (
"459 -11 OFFCURVE",
"549 98 OFFCURVE",
"549 294 CURVE SMOOTH",
"549 468 OFFCURVE",
"474 563 OFFCURVE",
"333 563 CURVE SMOOTH",
"291 563 OFFCURVE",
"260 555 OFFCURVE",
"239 547 CURVE",
"175 395 LINE",
"199 447 OFFCURVE",
"248 466 OFFCURVE",
"292 466 CURVE SMOOTH",
"371 466 OFFCURVE",
"412 407 OFFCURVE",
"412 301 CURVE SMOOTH",
"412 200 OFFCURVE",
"372 134 OFFCURVE",
"285 134 CURVE SMOOTH",
"194 134 OFFCURVE",
"158 201 OFFCURVE",
"158 298 CURVE SMOOTH",
"158 394 OFFCURVE",
"197 459 OFFCURVE",
"282 507 CURVE",
"304 531 LINE",
"394 561 OFFCURVE",
"478 642 OFFCURVE",
"537 719 CURVE",
"445 814 LINE",
"365 723 OFFCURVE",
"304 652 OFFCURVE",
"204 587 CURVE",
"86 537 OFFCURVE",
"21 446 OFFCURVE",
"21 293 CURVE SMOOTH",
"21 87 OFFCURVE",
"132 -11 OFFCURVE",
"289 -11 CURVE SMOOTH"
);
}
);
width = 569;
},
{
anchors = (
{
name = alSign;
position = "{154.801, 517}";
}
);
associatedMasterId = "DC607D84-584B-45E6-A9EB-D1AF471CA2AE";
layerId = "863960F5-2D1B-4DD5-B199-C5EBADF3B9D2";
name = "3 Apr 25, 08:13";
paths = (
{
closed = 1;
nodes = (
"463 -11 OFFCURVE",
"550 99 OFFCURVE",
"550 302 CURVE SMOOTH",
"550 466 OFFCURVE",
"475 576 OFFCURVE",
"334 576 CURVE SMOOTH",
"292 576 OFFCURVE",
"261 568 OFFCURVE",
"240 560 CURVE",
"153 449 LINE",
"207 465 OFFCURVE",
"249 471 OFFCURVE",
"290 471 CURVE SMOOTH",
"372 471 OFFCURVE",
"413 410 OFFCURVE",
"413 318 CURVE SMOOTH",
"413 218 OFFCURVE",
"371 164 OFFCURVE",
"284 164 CURVE SMOOTH",
"193 164 OFFCURVE",
"159 221 OFFCURVE",
"159 306 CURVE SMOOTH",
"159 394 OFFCURVE",
"212 453 OFFCURVE",
"297 501 CURVE",
"327 531 LINE",
"417 561 OFFCURVE",
"512 642 OFFCURVE",
"571 719 CURVE",
"467 814 LINE",
"387 723 OFFCURVE",
"316 657 OFFCURVE",
"216 592 CURVE",
"70 504 OFFCURVE",
"22 415 OFFCURVE",
"22 278 CURVE SMOOTH",
"22 87 OFFCURVE",
"131 -11 OFFCURVE",
"282 -11 CURVE SMOOTH"
);
}
);
width = 572;
},
{
anchors = (
{
name = alSign;
position = "{172, 517}";
}
);
associatedMasterId = "C62AB4C0-B70D-46F6-9B13-45217A94AFC9";
layerId = "5DFE6E93-A9A6-4F6F-A69C-7B462DF6F280";
name = "16 Aug 25, 14:20";
paths = (
{
closed = 1;
nodes = (
"581 -11 OFFCURVE",
"702 101 OFFCURVE",
"702 300 CURVE SMOOTH",
"702 465 OFFCURVE",
"587 563 OFFCURVE",
"433 563 CURVE SMOOTH",
"384 563 OFFCURVE",
"302 557 OFFCURVE",
"305 548 CURVE",
"189 395 LINE",
"217 436 OFFCURVE",
"277 465 OFFCURVE",
"348 465 CURVE SMOOTH",
"485 465 OFFCURVE",
"544 398 OFFCURVE",
"544 300 CURVE SMOOTH",
"544 211 OFFCURVE",
"490 142 OFFCURVE",
"348 142 CURVE SMOOTH",
"216 142 OFFCURVE",
"165 210 OFFCURVE",
"165 300 CURVE SMOOTH",
"165 390 OFFCURVE",
"221 446 OFFCURVE",
"341 496 CURVE",
"380 548 LINE",
"513 590 OFFCURVE",
"599 626 OFFCURVE",
"696 702 CURVE",
"599 814 LINE",
"476 721 OFFCURVE",
"368 651 OFFCURVE",
"252 594 CURVE",
"56 519 OFFCURVE",
"12 430 OFFCURVE",
"12 295 CURVE SMOOTH",
"12 107 OFFCURVE",
"148 -11 OFFCURVE",
"350 -11 CURVE SMOOTH"
);
}
);
width = 714;
}
);
leftMetricsKey = "i-sinh";
rightKerningGroup = "ra-sinh";
rightMetricsKey = "ja-sinh";
unicode = 0DBB;
script = sinhala;
category = Letter;
subCategory = Letter;
}
{
glyphname = "seven-lith-sinh";
layers = (
{
layerId = "7977A986-4EFB-4152-84F8-5A02CD382AAF";
paths = (
{
closed = 1;
nodes = (
"275 -11 OFFCURVE",
"310 -4 OFFCURVE",
"344 8 CURVE",
"336 33 LINE",
"303 20 OFFCURVE",
"274 15 OFFCURVE",
"241 15 CURVE SMOOTH",
"152 15 OFFCURVE",
"96 77 OFFCURVE",
"96 183 CURVE SMOOTH",
"96 296 OFFCURVE",
"148 396 OFFCURVE",
"308 572 CURVE",
"298 601 LINE",
"40 601 LINE",
"40 575 LINE",
"235 575 LINE SMOOTH",
"261 575 OFFCURVE",
"277 576 OFFCURVE",
"295 579 CURVE",
"283 580 LINE",
"101 387 OFFCURVE",
"69 280 OFFCURVE",
"69 182 CURVE SMOOTH",
"69 64 OFFCURVE",
"135 -11 OFFCURVE",
"241 -11 CURVE SMOOTH"
);
}
);
width = 359;
},
{
layerId = UUID0;
paths = (
{
closed = 1;
nodes = (
"298 -11 OFFCURVE",
"337 -1 OFFCURVE",
"381 16 CURVE",
"358 82 LINE",
"319 65 OFFCURVE",
"292 60 OFFCURVE",
"260 60 CURVE SMOOTH",
"186 60 OFFCURVE",
"140 88 OFFCURVE",
"140 183 CURVE SMOOTH",
"140 284 OFFCURVE",
"189 374 OFFCURVE",
"349 544 CURVE",
"325 601 LINE",
"38 601 LINE",
"38 531 LINE",
"196 531 LINE SMOOTH",
"232 531 OFFCURVE",
"260 532 OFFCURVE",
"281 535 CURVE",
"267 548 LINE",
"100 388 OFFCURVE",
"65 269 OFFCURVE",
"65 179 CURVE SMOOTH",
"65 48 OFFCURVE",
"135 -11 OFFCURVE",
"250 -11 CURVE SMOOTH"
);
}
);
width = 398;
},
{
layerId = "C62AB4C0-B70D-46F6-9B13-45217A94AFC9";
paths = (
{
closed = 1;
nodes = (
"300 -11 OFFCURVE",
"359 -5 OFFCURVE",
"404 14 CURVE",
"365 142 LINE",
"339 131 OFFCURVE",
"311 125 OFFCURVE",
"284 125 CURVE SMOOTH",
"222 125 OFFCURVE",
"194 155 OFFCURVE",
"194 214 CURVE SMOOTH",
"194 305 OFFCURVE",
"260 383 OFFCURVE",
"375 509 CURVE",
"316 612 LINE",
"4 612 LINE",
"4 477 LINE",
"79 477 LINE SMOOTH",
"130 477 OFFCURVE",
"158 478 OFFCURVE",
"187 483 CURVE",
"209 529 LINE",
"81 401 OFFCURVE",
"21 310 OFFCURVE",
"21 193 CURVE SMOOTH",
"21 66 OFFCURVE",
"96 -11 OFFCURVE",
"255 -11 CURVE SMOOTH"
);
}
);
width = 406;
},
{
layerId = "CF8E177F-0CDC-40C1-8828-F158AA64F32E";
paths = (
{
closed = 1;
nodes = (
"215 -11 OFFCURVE",
"239 -7 OFFCURVE",
"268 4 CURVE",
"260 28 LINE",
"241 19 OFFCURVE",
"217 15 OFFCURVE",
"196 15 CURVE SMOOTH",
"142 15 OFFCURVE",
"81 43 OFFCURVE",
"81 178 CURVE SMOOTH",
"81 287 OFFCURVE",
"121 403 OFFCURVE",
"236 576 CURVE",
"226 601 LINE",
"39 601 LINE",
"39 575 LINE",
"154 575 LINE SMOOTH",
"183 575 OFFCURVE",
"204 576 OFFCURVE",
"220 580 CURVE",
"210 583 LINE",
"76 376 OFFCURVE",
"55 275 OFFCURVE",
"55 186 CURVE SMOOTH",
"55 46 OFFCURVE",
"109 -11 OFFCURVE",
"193 -11 CURVE SMOOTH"
);
}
);
width = 281;
},
{
layerId = "56AEB5FB-BA14-4784-B08F-18006463EEDB";
paths = (
{
closed = 1;
nodes = (
"240 -11 OFFCURVE",
"271 -3 OFFCURVE",
"296 10 CURVE",
"277 71 LINE",
"256 61 OFFCURVE",
"237 56 OFFCURVE",
"215 56 CURVE SMOOTH",
"153 56 OFFCURVE",
"123 95 OFFCURVE",
"123 177 CURVE SMOOTH",
"123 277 OFFCURVE",
"169 405 OFFCURVE",
"275 545 CURVE",
"253 601 LINE",
"38 601 LINE",
"38 536 LINE",
"150 536 LINE SMOOTH",
"177 536 OFFCURVE",
"193 537 OFFCURVE",
"208 539 CURVE",
"201 549 LINE",
"99 408 OFFCURVE",
"53 286 OFFCURVE",
"53 177 CURVE SMOOTH",
"53 53 OFFCURVE",
"110 -11 OFFCURVE",
"205 -11 CURVE SMOOTH"
);
}
);
width = 306;
},
{
layerId = "DC607D84-584B-45E6-A9EB-D1AF471CA2AE";
paths = (
{
closed = 1;
nodes = (
"286 -11 OFFCURVE",
"326 -2 OFFCURVE",
"366 14 CURVE",
"331 133 LINE",
"313 125 OFFCURVE",
"292 120 OFFCURVE",
"270 120 CURVE SMOOTH",
"225 120 OFFCURVE",
"202 142 OFFCURVE",
"202 205 CURVE SMOOTH",
"202 267 OFFCURVE",
"224 354 OFFCURVE",
"338 511 CURVE",
"291 612 LINE",
"23 612 LINE",
"23 481 LINE",
"86 481 LINE SMOOTH",
"128 481 OFFCURVE",
"200 483 OFFCURVE",
"221 486 CURVE",
"198 530 LINE",
"60 367 OFFCURVE",
"37 279 OFFCURVE",
"37 198 CURVE SMOOTH",
"37 44 OFFCURVE",
"122 -11 OFFCURVE",
"240 -11 CURVE SMOOTH"
);
}
);
width = 357;
}
);
unicode = 0DED;
}
{
glyphname = "six-lith-sinh";
layers = (
{
layerId = "7977A986-4EFB-4152-84F8-5A02CD382AAF";
paths = (
{
closed = 1;
nodes = (
"726 -11 OFFCURVE",
"792 49 OFFCURVE",
"792 196 CURVE SMOOTH",
"792 405 OFFCURVE",
"665 555 OFFCURVE",
"415 555 CURVE SMOOTH",
"162 555 OFFCURVE",
"39 390 OFFCURVE",
"39 219 CURVE SMOOTH",
"39 72 OFFCURVE",
"111 -11 OFFCURVE",
"223 -11 CURVE SMOOTH",
"277 -11 OFFCURVE",
"325 9 OFFCURVE",
"362 43 CURVE",
"346 63 LINE",
"312 31 OFFCURVE",
"270 15 OFFCURVE",
"224 15 CURVE SMOOTH",
"126 15 OFFCURVE",
"66 89 OFFCURVE",
"66 219 CURVE SMOOTH",
"66 376 OFFCURVE",
"178 529 OFFCURVE",
"414 529 CURVE SMOOTH",
"604 529 OFFCURVE",
"716 439 OFFCURVE",
"752 302 CURVE SMOOTH",
"754 294 LINE SMOOTH",
"761 265 OFFCURVE",
"765 230 OFFCURVE",
"765 196 CURVE SMOOTH",
"765 67 OFFCURVE",
"711 15 OFFCURVE",
"635 15 CURVE SMOOTH",
"570 15 OFFCURVE",
"519 63 OFFCURVE",
"519 164 CURVE SMOOTH",
"519 259 OFFCURVE",
"575 314 OFFCURVE",
"651 314 CURVE SMOOTH",
"690 314 OFFCURVE",
"729 303 OFFCURVE",
"763 281 CURVE",
"767 306 LINE",
"734 327 OFFCURVE",
"692 340 OFFCURVE",
"651 340 CURVE SMOOTH",
"561 340 OFFCURVE",
"492 277 OFFCURVE",
"492 163 CURVE SMOOTH",
"492 45 OFFCURVE",
"555 -11 OFFCURVE",
"634 -11 CURVE SMOOTH"
);
}
);
width = 831;
},
{
layerId = UUID0;
paths = (
{
closed = 1;
nodes = (
"789 -11 OFFCURVE",
"864 43 OFFCURVE",
"864 192 CURVE SMOOTH",
"864 407 OFFCURVE",
"717 562 OFFCURVE",
"444 562 CURVE SMOOTH",
"187 562 OFFCURVE",
"34 417 OFFCURVE",
"34 222 CURVE SMOOTH",
"34 65 OFFCURVE",
"129 -11 OFFCURVE",
"250 -11 CURVE SMOOTH",
"305 -11 OFFCURVE",
"354 4 OFFCURVE",
"397 36 CURVE",
"360 94 LINE",
"324 70 OFFCURVE",
"290 59 OFFCURVE",
"251 59 CURVE SMOOTH",
"166 59 OFFCURVE",
"108 107 OFFCURVE",
"108 218 CURVE SMOOTH",
"108 374 OFFCURVE",
"229 490 OFFCURVE",
"447 490 CURVE SMOOTH",
"609 490 OFFCURVE",
"727 427 OFFCURVE",
"772 309 CURVE",
"776 292 LINE",
"786 261 OFFCURVE",
"791 226 OFFCURVE",
"791 191 CURVE SMOOTH",
"791 79 OFFCURVE",
"737 58 OFFCURVE",
"688 58 CURVE SMOOTH",
"629 58 OFFCURVE",
"587 90 OFFCURVE",
"587 170 CURVE SMOOTH",
"587 243 OFFCURVE",
"623 292 OFFCURVE",
"707 292 CURVE SMOOTH",
"744 292 OFFCURVE",
"776 283 OFFCURVE",
"801 271 CURVE",
"810 334 LINE",
"787 345 OFFCURVE",
"747 359 OFFCURVE",
"697 359 CURVE SMOOTH",
"595 359 OFFCURVE",
"514 296 OFFCURVE",
"514 171 CURVE SMOOTH",
"514 54 OFFCURVE",
"582 -11 OFFCURVE",
"689 -11 CURVE SMOOTH"
);
}
);
width = 898;
},
{
layerId = "C62AB4C0-B70D-46F6-9B13-45217A94AFC9";
paths = (
{
closed = 1;
nodes = (
"844 -11 OFFCURVE",
"927 52 OFFCURVE",
"927 215 CURVE SMOOTH",
"927 437 OFFCURVE",
"780 615 OFFCURVE",
"475 615 CURVE SMOOTH",
"192 615 OFFCURVE",
"29 459 OFFCURVE",
"29 250 CURVE SMOOTH",
"29 84 OFFCURVE",
"126 -11 OFFCURVE",
"273 -11 CURVE SMOOTH",
"333 -11 OFFCURVE",
"377 4 OFFCURVE",
"418 23 CURVE",
"357 143 LINE",
"334 132 OFFCURVE",
"311 124 OFFCURVE",
"280 124 CURVE SMOOTH",
"215 124 OFFCURVE",
"175 162 OFFCURVE",
"175 238 CURVE SMOOTH",
"175 361 OFFCURVE",
"287 433 OFFCURVE",
"484 433 CURVE SMOOTH",
"595 433 OFFCURVE",
"679 411 OFFCURVE",
"736 357 CURVE",
"748 334 LINE",
"766 306 OFFCURVE",
"785 256 OFFCURVE",
"785 208 CURVE SMOOTH",
"785 149 OFFCURVE",
"754 120 OFFCURVE",
"707 120 CURVE SMOOTH",
"664 120 OFFCURVE",
"640 144 OFFCURVE",
"640 184 CURVE SMOOTH",
"640 228 OFFCURVE",
"672 255 OFFCURVE",
"734 255 CURVE SMOOTH",
"764 255 OFFCURVE",
"801 249 OFFCURVE",
"824 238 CURVE",
"836 360 LINE",
"798 378 OFFCURVE",
"758 386 OFFCURVE",
"716 386 CURVE SMOOTH",
"580 386 OFFCURVE",
"493 306 OFFCURVE",
"493 182 CURVE SMOOTH",
"493 64 OFFCURVE",
"568 -11 OFFCURVE",
"710 -11 CURVE SMOOTH"
);
}
);
width = 956;
},
{
layerId = "CF8E177F-0CDC-40C1-8828-F158AA64F32E";
paths = (
{
closed = 1;
nodes = (
"547 -11 OFFCURVE",
"595 37 OFFCURVE",
"595 194 CURVE SMOOTH",
"595 411 OFFCURVE",
"497 555 OFFCURVE",
"319 555 CURVE SMOOTH",
"129 555 OFFCURVE",
"36 399 OFFCURVE",
"36 211 CURVE SMOOTH",
"36 49 OFFCURVE",
"102 -11 OFFCURVE",
"188 -11 CURVE SMOOTH",
"219 -11 OFFCURVE",
"255 -3 OFFCURVE",
"294 22 CURVE",
"281 45 LINE",
"250 24 OFFCURVE",
"222 15 OFFCURVE",
"191 15 CURVE SMOOTH",
"115 15 OFFCURVE",
"63 68 OFFCURVE",
"63 210 CURVE SMOOTH",
"63 384 OFFCURVE",
"144 529 OFFCURVE",
"321 529 CURVE SMOOTH",
"463 529 OFFCURVE",
"525 430 OFFCURVE",
"552 323 CURVE SMOOTH",
"554 315 LINE SMOOTH",
"564 275 OFFCURVE",
"568 237 OFFCURVE",
"568 192 CURVE SMOOTH",
"568 50 OFFCURVE",
"529 15 OFFCURVE",
"483 15 CURVE SMOOTH",
"434 15 OFFCURVE",
"399 53 OFFCURVE",
"399 160 CURVE SMOOTH",
"399 272 OFFCURVE",
"439 314 OFFCURVE",
"503 314 CURVE SMOOTH",
"523 314 OFFCURVE",
"546 310 OFFCURVE",
"570 297 CURVE",
"573 322 LINE",
"549 335 OFFCURVE",
"526 340 OFFCURVE",
"502 340 CURVE SMOOTH",
"421 340 OFFCURVE",
"372 282 OFFCURVE",
"372 160 CURVE SMOOTH",
"372 35 OFFCURVE",
"421 -11 OFFCURVE",
"483 -11 CURVE SMOOTH"
);
}
);
width = 631;
},
{
layerId = "56AEB5FB-BA14-4784-B08F-18006463EEDB";
paths = (
{
closed = 1;
nodes = (
"586 -11 OFFCURVE",
"643 48 OFFCURVE",
"643 204 CURVE SMOOTH",
"643 414 OFFCURVE",
"539 562 OFFCURVE",
"343 562 CURVE SMOOTH",
"149 562 OFFCURVE",
"32 423 OFFCURVE",
"32 218 CURVE SMOOTH",
"32 50 OFFCURVE",
"107 -11 OFFCURVE",
"202 -11 CURVE SMOOTH",
"239 -11 OFFCURVE",
"275 -2 OFFCURVE",
"317 24 CURVE",
"286 82 LINE",
"259 64 OFFCURVE",
"235 56 OFFCURVE",
"206 56 CURVE SMOOTH",
"142 56 OFFCURVE",
"102 97 OFFCURVE",
"102 214 CURVE SMOOTH",
"102 384 OFFCURVE",
"191 493 OFFCURVE",
"343 493 CURVE SMOOTH",
"449 493 OFFCURVE",
"528 442 OFFCURVE",
"561 322 CURVE",
"561 308 LINE",
"569 277 OFFCURVE",
"573 245 OFFCURVE",
"573 203 CURVE SMOOTH",
"573 89 OFFCURVE",
"543 55 OFFCURVE",
"503 55 CURVE SMOOTH",
"466 55 OFFCURVE",
"441 86 OFFCURVE",
"441 168 CURVE SMOOTH",
"441 256 OFFCURVE",
"471 293 OFFCURVE",
"524 293 CURVE SMOOTH",
"548 293 OFFCURVE",
"568 286 OFFCURVE",
"592 275 CURVE",
"609 333 LINE",
"587 346 OFFCURVE",
"549 358 OFFCURVE",
"514 358 CURVE SMOOTH",
"431 358 OFFCURVE",
"373 293 OFFCURVE",
"373 170 CURVE SMOOTH",
"373 52 OFFCURVE",
"423 -11 OFFCURVE",
"506 -11 CURVE SMOOTH"
);
}
);
width = 675;
},
{
layerId = "DC607D84-584B-45E6-A9EB-D1AF471CA2AE";
paths = (
{
closed = 1;
nodes = (
"671 -11 OFFCURVE",
"734 67 OFFCURVE",
"734 225 CURVE SMOOTH",
"734 434 OFFCURVE",
"629 614 OFFCURVE",
"391 614 CURVE SMOOTH",
"167 614 OFFCURVE",
"30 456 OFFCURVE",
"30 236 CURVE SMOOTH",
"30 66 OFFCURVE",
"108 -11 OFFCURVE",
"227 -11 CURVE SMOOTH",
"279 -11 OFFCURVE",
"323 3 OFFCURVE",
"357 22 CURVE",
"304 138 LINE",
"282 125 OFFCURVE",
"263 119 OFFCURVE",
"242 119 CURVE SMOOTH",
"190 119 OFFCURVE",
"169 157 OFFCURVE",
"169 225 CURVE SMOOTH",
"169 355 OFFCURVE",
"251 446 OFFCURVE",
"385 446 CURVE SMOOTH",
"466 446 OFFCURVE",
"520 415 OFFCURVE",
"563 353 CURVE",
"570 330 LINE",
"586 301 OFFCURVE",
"599 253 OFFCURVE",
"599 198 CURVE SMOOTH",
"599 138 OFFCURVE",
"584 113 OFFCURVE",
"553 113 CURVE SMOOTH",
"525 113 OFFCURVE",
"510 136 OFFCURVE",
"510 185 CURVE SMOOTH",
"510 231 OFFCURVE",
"524 259 OFFCURVE",
"565 259 CURVE SMOOTH",
"586 259 OFFCURVE",
"608 252 OFFCURVE",
"629 241 CURVE",
"646 354 LINE",
"612 374 OFFCURVE",
"584 383 OFFCURVE",
"548 383 CURVE SMOOTH",
"439 383 OFFCURVE",
"375 304 OFFCURVE",
"375 182 CURVE SMOOTH",
"375 72 OFFCURVE",
"424 -11 OFFCURVE",
"551 -11 CURVE SMOOTH"
);
}
);
width = 764;
}
);
unicode = 0DEC;
}
{
glyphname = "tha-sinh";
layers = (
{
anchors = (
{
name = alSign;
position = "{630, 0}";
},
{
name = iVowel;
position = "{456, 0}";
},
{
name = rakar;
position = "{703, 0}";
},
{
name = repaya;
position = "{274, 739}";
},
{
name = uvowel;
position = "{664, 0}";
}
);
layerId = "7977A986-4EFB-4152-84F8-5A02CD382AAF";
paths = (
{
closed = 1;
nodes = (
"601 -11 OFFCURVE",
"703 145 OFFCURVE",
"703 367 CURVE SMOOTH",
"703 588 OFFCURVE",
"608 743 OFFCURVE",
"375 835 CURVE",
"363 811 LINE",
"400 800 LINE",
"492 763 OFFCURVE",
"564 702 OFFCURVE",
"607 633 CURVE SMOOTH",
"648 568 OFFCURVE",
"676 470 OFFCURVE",
"676 362 CURVE SMOOTH",
"676 161 OFFCURVE",
"585 15 OFFCURVE",
"349 15 CURVE SMOOTH",
"178 15 OFFCURVE",
"68 96 OFFCURVE",
"68 244 CURVE SMOOTH",
"68 399 OFFCURVE",
"181 460 OFFCURVE",
"294 460 CURVE SMOOTH",
"320 460 OFFCURVE",
"366 457 OFFCURVE",
"394 452 CURVE",
"394 478 LINE",
"369 483 OFFCURVE",
"333 486 OFFCURVE",
"302 486 CURVE SMOOTH",
"166 486 OFFCURVE",
"41 415 OFFCURVE",
"41 245 CURVE SMOOTH",
"41 85 OFFCURVE",
"157 -11 OFFCURVE",
"349 -11 CURVE SMOOTH"
);
},
{
closed = 1;
nodes = (
"556 539 OFFCURVE",
"603 580 OFFCURVE",
"627 644 CURVE",
"607 660 LINE",
"591 605 OFFCURVE",
"547 565 OFFCURVE",
"493 565 CURVE SMOOTH",
"426 565 OFFCURVE",
"424 625 OFFCURVE",
"422 671 CURVE SMOOTH",
"418 776 OFFCURVE",
"417 796 OFFCURVE",
"372 829 CURVE",
"363 811 LINE",
"399 786 OFFCURVE",
"393 743 OFFCURVE",
"396 665 CURVE SMOOTH",
"400 565 OFFCURVE",
"440 539 OFFCURVE",
"493 539 CURVE SMOOTH"
);
}
);
width = 763;
},
{
anchors = (
{
name = alSign;
position = "{676, 0}";
},
{
name = iVowel;
position = "{458, 0}";
},
{
name = rakar;
position = "{770, 0}";
},
{
name = repaya;
position = "{308, 730}";
},
{
name = uvowel;
position = "{722, 0}";
}
);
layerId = UUID0;
paths = (
{
closed = 1;
nodes = (
"661 -11 OFFCURVE",
"770 153 OFFCURVE",
"770 356 CURVE SMOOTH",
"770 555 OFFCURVE",
"659 762 OFFCURVE",
"414 836 CURVE",
"389 776 LINE",
"457 748 LINE",
"532 711 OFFCURVE",
"585 663 OFFCURVE",
"621 611 CURVE SMOOTH",
"678 530 OFFCURVE",
"695 439 OFFCURVE",
"695 365 CURVE SMOOTH",
"695 217 OFFCURVE",
"631 60 OFFCURVE",
"381 60 CURVE SMOOTH",
"206 60 OFFCURVE",
"113 137 OFFCURVE",
"113 255 CURVE SMOOTH",
"113 372 OFFCURVE",
"203 426 OFFCURVE",
"322 426 CURVE SMOOTH",
"366 426 OFFCURVE",
"400 419 OFFCURVE",
"427 411 CURVE",
"427 479 LINE",
"401 486 OFFCURVE",
"365 494 OFFCURVE",
"317 494 CURVE SMOOTH",
"167 494 OFFCURVE",
"40 420 OFFCURVE",
"40 254 CURVE SMOOTH",
"40 92 OFFCURVE",
"165 -11 OFFCURVE",
"381 -11 CURVE SMOOTH"
);
},
{
closed = 1;
nodes = (
"611 524 OFFCURVE",
"650 570 OFFCURVE",
"671 613 CURVE",
"626 662 LINE",
"606 614 OFFCURVE",
"578 590 OFFCURVE",
"539 590 CURVE SMOOTH",
"504 590 OFFCURVE",
"483 608 OFFCURVE",
"483 656 CURVE SMOOTH",
"483 748 OFFCURVE",
"473 774 OFFCURVE",
"439 792 CURVE",
"389 776 LINE",
"416 758 OFFCURVE",
"417 743 OFFCURVE",
"417 643 CURVE SMOOTH",
"417 571 OFFCURVE",
"458 524 OFFCURVE",
"535 524 CURVE SMOOTH"
);
}
);
width = 806;
},
{
anchors = (
{
name = alSign;
position = "{686, 0}";
},
{
name = iVowel;
position = "{498, 0}";
},
{
name = rakar;
position = "{831, 0}";
},
{
name = repaya;
position = "{305, 700}";
},
{
name = uvowel;
position = "{775, 0}";
}
);
layerId = "C62AB4C0-B70D-46F6-9B13-45217A94AFC9";
paths = (
{
closed = 1;
nodes = (
"694 -11 OFFCURVE",
"831 149 OFFCURVE",
"831 369 CURVE SMOOTH",
"831 630 OFFCURVE",
"648 782 OFFCURVE",
"403 836 CURVE",
"367 722 LINE",
"482 694 LINE",
"539 672 OFFCURVE",
"582 639 OFFCURVE",
"612 598 CURVE SMOOTH",
"652 543 OFFCURVE",
"670 467 OFFCURVE",
"670 393 CURVE SMOOTH",
"670 225 OFFCURVE",
"574 141 OFFCURVE",
"390 141 CURVE SMOOTH",
"243 141 OFFCURVE",
"184 193 OFFCURVE",
"184 262 CURVE SMOOTH",
"184 321 OFFCURVE",
"226 356 OFFCURVE",
"302 356 CURVE SMOOTH",
"345 356 OFFCURVE",
"379 356 OFFCURVE",
"410 353 CURVE",
"418 485 LINE",
"390 488 OFFCURVE",
"328 491 OFFCURVE",
"294 491 CURVE SMOOTH",
"119 491 OFFCURVE",
"20 405 OFFCURVE",
"20 264 CURVE SMOOTH",
"20 106 OFFCURVE",
"149 -11 OFFCURVE",
"403 -11 CURVE SMOOTH"
);
},
{
closed = 1;
nodes = (
"613 487 OFFCURVE",
"652 519 OFFCURVE",
"694 593 CURVE",
"616 650 LINE",
"597 619 OFFCURVE",
"585 600 OFFCURVE",
"555 600 CURVE SMOOTH",
"520 600 OFFCURVE",
"510 624 OFFCURVE",
"510 667 CURVE SMOOTH",
"510 715 OFFCURVE",
"505 714 OFFCURVE",
"471 745 CURVE",
"367 722 LINE",
"384 716 OFFCURVE",
"395 715 OFFCURVE",
"395 669 CURVE SMOOTH",
"395 552 OFFCURVE",
"450 487 OFFCURVE",
"544 487 CURVE SMOOTH"
);
}
);
width = 855;
},
{
anchors = (
{
name = alSign;
position = "{717.199, 0}";
},
{
name = iVowel;
position = "{408.477, 0}";
},
{
name = rakar;
position = "{779.152, 210}";
},
{
name = repaya;
position = "{288.337, 720}";
},
{
name = uvowel;
position = "{767, 176}";
}
);
associatedMasterId = "C62AB4C0-B70D-46F6-9B13-45217A94AFC9";
layerId = "262C5118-F9C5-4C62-8110-C77939BA0AE6";
name = "5 Dec 24, 19:00";
paths = (
{
closed = 1;
nodes = (
"713 -11 OFFCURVE",
"828 197 OFFCURVE",
"828 422 CURVE SMOOTH",
"828 685 OFFCURVE",
"647 806 OFFCURVE",
"452 867 CURVE",
"379 739 LINE",
"402 737 OFFCURVE",
"427 735 OFFCURVE",
"448 727 CURVE SMOOTH",
"583 675 OFFCURVE",
"681 589 OFFCURVE",
"681 424 CURVE SMOOTH",
"681 262 OFFCURVE",
"548 172 OFFCURVE",
"361 172 CURVE SMOOTH",
"213 172 OFFCURVE",
"170 211 OFFCURVE",
"170 269 CURVE SMOOTH",
"170 334 OFFCURVE",
"229 356 OFFCURVE",
"338 356 CURVE SMOOTH",
"381 356 OFFCURVE",
"415 354 OFFCURVE",
"446 351 CURVE",
"454 485 LINE",
"426 488 OFFCURVE",
"385 491 OFFCURVE",
"335 491 CURVE SMOOTH",
"130 491 OFFCURVE",
"28 407 OFFCURVE",
"28 249 CURVE SMOOTH",
"28 94 OFFCURVE",
"137 -11 OFFCURVE",
"368 -11 CURVE SMOOTH"
);
},
{
closed = 1;
nodes = (
"631 493 OFFCURVE",
"675 532 OFFCURVE",
"722 600 CURVE",
"622 667 LINE",
"602 635 OFFCURVE",
"589 613 OFFCURVE",
"561 613 CURVE SMOOTH",
"538 613 OFFCURVE",
"526 624 OFFCURVE",
"525 656 CURVE SMOOTH",
"524 696 OFFCURVE",
"509 731 OFFCURVE",
"483 745 CURVE",
"379 739 LINE",
"396 733 OFFCURVE",
"399 719 OFFCURVE",
"399 669 CURVE SMOOTH",
"399 552 OFFCURVE",
"439 493 OFFCURVE",
"548 493 CURVE SMOOTH"
);
}
);
width = 856;
},
{
anchors = (
{
name = alSign;
position = "{623.36, 0}";
},
{
name = iVowel;
position = "{355.032, 0}";
},
{
name = rakar;
position = "{677.207, 210}";
},
{
name = repaya;
position = "{250.611, 720}";
},
{
name = uvowel;
position = "{666.645, 176}";
}
);
associatedMasterId = "7977A986-4EFB-4152-84F8-5A02CD382AAF";
layerId = "DE5468BF-F5C6-47ED-9F0C-05A3789C4C50";
name = "29 Dec 24, 17:23";
paths = (
{
closed = 1;
nodes = (
"600 -11 OFFCURVE",
"703 192 OFFCURVE",
"703 406 CURVE SMOOTH",
"703 530 OFFCURVE",
"672 738 OFFCURVE",
"372 836 CURVE",
"363 811 LINE",
"560 745 OFFCURVE",
"676 631 OFFCURVE",
"676 408 CURVE SMOOTH",
"676 207 OFFCURVE",
"586 15 OFFCURVE",
"328 15 CURVE SMOOTH",
"164 15 OFFCURVE",
"68 96 OFFCURVE",
"68 242 CURVE SMOOTH",
"68 399 OFFCURVE",
"181 460 OFFCURVE",
"290 460 CURVE SMOOTH",
"322 460 OFFCURVE",
"362 458 OFFCURVE",
"390 453 CURVE",
"394 478 LINE",
"369 483 OFFCURVE",
"337 486 OFFCURVE",
"291 486 CURVE SMOOTH",
"167 486 OFFCURVE",
"41 415 OFFCURVE",
"41 240 CURVE SMOOTH",
"41 88 OFFCURVE",
"140 -11 OFFCURVE",
"330 -11 CURVE SMOOTH"
);
},
{
closed = 1;
nodes = (
"550 539 OFFCURVE",
"600 573 OFFCURVE",
"627 644 CURVE",
"607 660 LINE",
"584 592 OFFCURVE",
"538 565 OFFCURVE",
"496 565 CURVE SMOOTH",
"439 565 OFFCURVE",
"423 602 OFFCURVE",
"422 671 CURVE SMOOTH",
"420 775 OFFCURVE",
"417 799 OFFCURVE",
"378 827 CURVE",
"363 811 LINE",
"393 789 OFFCURVE",
"394 764 OFFCURVE",
"396 665 CURVE SMOOTH",
"398 564 OFFCURVE",
"443 539 OFFCURVE",
"496 539 CURVE SMOOTH"
);
}
);
width = 744;
},
{
anchors = (
{
name = alSign;
position = "{671.955, 0}";
},
{
name = iVowel;
position = "{382.709, 0}";
},
{
name = rakar;
position = "{730, 210}";
},
{
name = repaya;
position = "{270.147, 720}";
},
{
name = uvowel;
position = "{718.614, 176}";
}
);
associatedMasterId = UUID0;
layerId = "131B56B4-D29D-41AE-AF1F-43FD77C7C0D0";
name = "29 Dec 24, 17:23";
paths = (
{
closed = 1;
nodes = (
"643 -11 OFFCURVE",
"766 178 OFFCURVE",
"766 410 CURVE SMOOTH",
"766 592 OFFCURVE",
"657 758 OFFCURVE",
"410 836 CURVE",
"385 776 LINE",
"552 724 OFFCURVE",
"691 610 OFFCURVE",
"691 409 CURVE SMOOTH",
"691 247 OFFCURVE",
"613 60 OFFCURVE",
"354 60 CURVE SMOOTH",
"178 60 OFFCURVE",
"109 134 OFFCURVE",
"109 238 CURVE SMOOTH",
"109 369 OFFCURVE",
"206 418 OFFCURVE",
"324 418 CURVE SMOOTH",
"370 418 OFFCURVE",
"392 416 OFFCURVE",
"423 411 CURVE",
"430 479 LINE",
"404 483 OFFCURVE",
"366 486 OFFCURVE",
"323 486 CURVE SMOOTH",
"170 486 OFFCURVE",
"36 419 OFFCURVE",
"36 238 CURVE SMOOTH",
"36 90 OFFCURVE",
"137 -11 OFFCURVE",
"351 -11 CURVE SMOOTH"
);
},
{
closed = 1;
nodes = (
"607 524 OFFCURVE",
"646 570 OFFCURVE",
"667 613 CURVE",
"622 662 LINE",
"602 614 OFFCURVE",
"573 590 OFFCURVE",
"536 590 CURVE SMOOTH",
"500 590 OFFCURVE",
"479 608 OFFCURVE",
"479 656 CURVE SMOOTH",
"479 748 OFFCURVE",
"469 774 OFFCURVE",
"435 792 CURVE",
"385 776 LINE",
"412 758 OFFCURVE",
"413 743 OFFCURVE",
"413 643 CURVE SMOOTH",
"413 571 OFFCURVE",
"454 524 OFFCURVE",
"531 524 CURVE SMOOTH"
);
}
);
width = 802;
},
{
anchors = (
{
name = alSign;
position = "{424, 0}";
},
{
name = iVowel;
position = "{328, 0}";
},
{
name = rakar;
position = "{525, 0}";
},
{
name = repaya;
position = "{176, 768}";
},
{
name = uvowel;
position = "{492, 0}";
}
);
layerId = "CF8E177F-0CDC-40C1-8828-F158AA64F32E";
paths = (
{
closed = 1;
nodes = (
"450 -11 OFFCURVE",
"525 130 OFFCURVE",
"525 329 CURVE SMOOTH",
"525 563 OFFCURVE",
"427 717 OFFCURVE",
"249 836 CURVE",
"237 814 LINE",
"270 794 LINE",
"318 759 OFFCURVE",
"385 692 OFFCURVE",
"421 633 CURVE SMOOTH",
"464 564 OFFCURVE",
"498 451 OFFCURVE",
"498 326 CURVE SMOOTH",
"498 159 OFFCURVE",
"435 15 OFFCURVE",
"268 15 CURVE SMOOTH",
"135 15 OFFCURVE",
"69 101 OFFCURVE",
"69 248 CURVE SMOOTH",
"69 409 OFFCURVE",
"144 463 OFFCURVE",
"233 463 CURVE SMOOTH",
"251 463 OFFCURVE",
"273 461 OFFCURVE",
"287 458 CURVE",
"287 483 LINE",
"272 486 OFFCURVE",
"255 489 OFFCURVE",
"232 489 CURVE SMOOTH",
"128 489 OFFCURVE",
"42 422 OFFCURVE",
"42 247 CURVE SMOOTH",
"42 91 OFFCURVE",
"115 -11 OFFCURVE",
"272 -11 CURVE SMOOTH"
);
},
{
closed = 1;
nodes = (
"385 540 OFFCURVE",
"420 576 OFFCURVE",
"438 634 CURVE",
"420 654 LINE",
"404 599 OFFCURVE",
"375 566 OFFCURVE",
"336 566 CURVE SMOOTH",
"291 566 OFFCURVE",
"282 608 OFFCURVE",
"282 697 CURVE SMOOTH",
"282 763 OFFCURVE",
"287 793 OFFCURVE",
"245 828 CURVE",
"237 814 LINE",
"254 801 OFFCURVE",
"258 785 OFFCURVE",
"258 730 CURVE SMOOTH",
"258 585 OFFCURVE",
"270 540 OFFCURVE",
"331 540 CURVE SMOOTH"
);
}
);
width = 567;
},
{
anchors = (
{
name = alSign;
position = "{465.006, 0}";
},
{
name = iVowel;
position = "{310, 0}";
},
{
name = rakar;
position = "{504.215, 105}";
},
{
name = repaya;
position = "{186.947, 720}";
},
{
name = uvowel;
position = "{497.461, 88}";
}
);
associatedMasterId = "CF8E177F-0CDC-40C1-8828-F158AA64F32E";
layerId = "C4F96D16-DD42-4BDD-BD70-84ACD6F4F161";
name = "27 Mar 25, 23:04";
paths = (
{
closed = 1;
nodes = (
"440 -11 OFFCURVE",
"515 175 OFFCURVE",
"515 384 CURVE SMOOTH",
"515 548 OFFCURVE",
"460 730 OFFCURVE",
"262 836 CURVE",
"251 815 LINE",
"259 812 OFFCURVE",
"267 806 OFFCURVE",
"274 802 CURVE SMOOTH",
"406 722 OFFCURVE",
"488 587 OFFCURVE",
"488 385 CURVE SMOOTH",
"488 193 OFFCURVE",
"425 15 OFFCURVE",
"251 15 CURVE SMOOTH",
"124 15 OFFCURVE",
"65 96 OFFCURVE",
"65 241 CURVE SMOOTH",
"65 404 OFFCURVE",
"148 460 OFFCURVE",
"234 460 CURVE SMOOTH",
"255 460 OFFCURVE",
"277 458 OFFCURVE",
"297 454 CURVE",
"299 479 LINE",
"282 483 OFFCURVE",
"259 486 OFFCURVE",
"235 486 CURVE SMOOTH",
"132 486 OFFCURVE",
"38 418 OFFCURVE",
"38 240 CURVE SMOOTH",
"38 87 OFFCURVE",
"105 -11 OFFCURVE",
"252 -11 CURVE SMOOTH"
);
},
{
closed = 1;
nodes = (
"397 540 OFFCURVE",
"434 565 OFFCURVE",
"464 626 CURVE",
"444 644 LINE",
"414 580 OFFCURVE",
"386 566 OFFCURVE",
"353 566 CURVE SMOOTH",
"310 566 OFFCURVE",
"301 603 OFFCURVE",
"300 664 CURVE SMOOTH",
"298 778 OFFCURVE",
"295 800 OFFCURVE",
"264 828 CURVE",
"251 815 LINE",
"270 800 OFFCURVE",
"273 778 OFFCURVE",
"274 661 CURVE SMOOTH",
"275 565 OFFCURVE",
"310 540 OFFCURVE",
"354 540 CURVE SMOOTH"
);
}
);
width = 555;
},
{
anchors = (
{
name = alSign;
position = "{503, 0}";
},
{
name = iVowel;
position = "{310, 0}";
},
{
name = rakar;
position = "{564, 0}";
},
{
name = repaya;
position = "{183, 730}";
},
{
name = uvowel;
position = "{538, 0}";
}
);
layerId = "56AEB5FB-BA14-4784-B08F-18006463EEDB";
paths = (
{
closed = 1;
nodes = (
"479 -11 OFFCURVE",
"564 121 OFFCURVE",
"564 329 CURVE SMOOTH",
"564 563 OFFCURVE",
"462 737 OFFCURVE",
"265 839 CURVE",
"243 784 LINE",
"309 743 LINE",
"362 704 OFFCURVE",
"401 659 OFFCURVE",
"430 606 CURVE SMOOTH",
"475 524 OFFCURVE",
"494 428 OFFCURVE",
"494 331 CURVE SMOOTH",
"494 179 OFFCURVE",
"445 57 OFFCURVE",
"290 57 CURVE SMOOTH",
"157 57 OFFCURVE",
"105 140 OFFCURVE",
"105 253 CURVE SMOOTH",
"105 385 OFFCURVE",
"172 421 OFFCURVE",
"257 421 CURVE SMOOTH",
"277 421 OFFCURVE",
"301 419 OFFCURVE",
"320 416 CURVE",
"320 481 LINE",
"301 484 OFFCURVE",
"279 486 OFFCURVE",
"256 486 CURVE SMOOTH",
"137 486 OFFCURVE",
"36 428 OFFCURVE",
"36 254 CURVE SMOOTH",
"36 98 OFFCURVE",
"121 -11 OFFCURVE",
"289 -11 CURVE SMOOTH"
);
},
{
closed = 1;
nodes = (
"403 524 OFFCURVE",
"434 544 OFFCURVE",
"471 595 CURVE",
"436 643 LINE",
"413 604 OFFCURVE",
"391 588 OFFCURVE",
"370 588 CURVE SMOOTH",
"343 588 OFFCURVE",
"332 612 OFFCURVE",
"332 662 CURVE SMOOTH",
"332 718 OFFCURVE",
"326 764 OFFCURVE",
"275 803 CURVE",
"243 784 LINE",
"269 770 OFFCURVE",
"271 763 OFFCURVE",
"271 658 CURVE SMOOTH",
"271 569 OFFCURVE",
"302 524 OFFCURVE",
"362 524 CURVE SMOOTH"
);
}
);
width = 600;
},
{
anchors = (
{
name = alSign;
position = "{499.358, 0}";
},
{
name = iVowel;
position = "{327, 0}";
},
{
name = rakar;
position = "{541.464, 105}";
},
{
name = repaya;
position = "{200.758, 720}";
},
{
name = uvowel;
position = "{534.211, 88}";
}
);
associatedMasterId = "56AEB5FB-BA14-4784-B08F-18006463EEDB";
layerId = "D84DF430-02B2-4669-A90E-8A97FFB7980B";
name = "27 Mar 25, 23:11";
paths = (
{
closed = 1;
nodes = (
"475 -11 OFFCURVE",
"561 155 OFFCURVE",
"561 385 CURVE SMOOTH",
"561 602 OFFCURVE",
"461 748 OFFCURVE",
"301 835 CURVE",
"268 782 LINE",
"282 775 OFFCURVE",
"300 766 OFFCURVE",
"312 758 CURVE SMOOTH",
"424 687 OFFCURVE",
"491 562 OFFCURVE",
"491 387 CURVE SMOOTH",
"491 216 OFFCURVE",
"442 57 OFFCURVE",
"272 57 CURVE SMOOTH",
"154 57 OFFCURVE",
"102 133 OFFCURVE",
"102 243 CURVE SMOOTH",
"102 377 OFFCURVE",
"169 421 OFFCURVE",
"250 421 CURVE SMOOTH",
"275 421 OFFCURVE",
"296 419 OFFCURVE",
"314 416 CURVE",
"320 479 LINE",
"301 483 OFFCURVE",
"278 486 OFFCURVE",
"255 486 CURVE SMOOTH",
"133 486 OFFCURVE",
"33 409 OFFCURVE",
"33 244 CURVE SMOOTH",
"33 91 OFFCURVE",
"121 -11 OFFCURVE",
"271 -11 CURVE SMOOTH"
);
},
{
closed = 1;
nodes = (
"443 524 OFFCURVE",
"471 560 OFFCURVE",
"496 595 CURVE",
"459 646 LINE",
"433 599 OFFCURVE",
"415 588 OFFCURVE",
"390 588 CURVE SMOOTH",
"367 588 OFFCURVE",
"356 608 OFFCURVE",
"355 654 CURVE SMOOTH",
"353 736 OFFCURVE",
"336 766 OFFCURVE",
"300 801 CURVE",
"268 782 LINE",
"283 768 OFFCURVE",
"290 748 OFFCURVE",
"290 662 CURVE SMOOTH",
"290 571 OFFCURVE",
"327 524 OFFCURVE",
"384 524 CURVE SMOOTH"
);
}
);
width = 596;
},
{
anchors = (
{
name = alSign;
position = "{575, 0}";
},
{
name = iVowel;
position = "{395, 0}";
},
{
name = rakar;
position = "{662, 0}";
},
{
name = repaya;
position = "{217, 723}";
},
{
name = uvowel;
position = "{615, 0}";
}
);
layerId = "DC607D84-584B-45E6-A9EB-D1AF471CA2AE";
paths = (
{
closed = 1;
nodes = (
"561 -11 OFFCURVE",
"662 142 OFFCURVE",
"662 374 CURVE SMOOTH",
"662 682 OFFCURVE",
"474 816 OFFCURVE",
"323 862 CURVE",
"271 756 LINE",
"329 741 LINE",
"378 711 OFFCURVE",
"429 671 OFFCURVE",
"466 610 CURVE SMOOTH",
"500 553 OFFCURVE",
"523 478 OFFCURVE",
"523 377 CURVE SMOOTH",
"523 221 OFFCURVE",
"465 134 OFFCURVE",
"325 134 CURVE SMOOTH",
"215 134 OFFCURVE",
"165 191 OFFCURVE",
"165 258 CURVE SMOOTH",
"165 319 OFFCURVE",
"204 363 OFFCURVE",
"275 363 CURVE SMOOTH",
"297 363 OFFCURVE",
"333 359 OFFCURVE",
"345 357 CURVE",
"355 481 LINE",
"335 485 OFFCURVE",
"280 491 OFFCURVE",
"247 491 CURVE SMOOTH",
"125 491 OFFCURVE",
"24 421 OFFCURVE",
"24 261 CURVE SMOOTH",
"24 89 OFFCURVE",
"146 -11 OFFCURVE",
"329 -11 CURVE SMOOTH"
);
},
{
closed = 1;
nodes = (
"474 503 OFFCURVE",
"495 538 OFFCURVE",
"534 600 CURVE",
"476 662 LINE",
"457 626 OFFCURVE",
"449 605 OFFCURVE",
"428 605 CURVE SMOOTH",
"408 605 OFFCURVE",
"403 624 OFFCURVE",
"403 649 CURVE SMOOTH",
"403 686 OFFCURVE",
"396 714 OFFCURVE",
"368 746 CURVE",
"271 756 LINE",
"304 746 OFFCURVE",
"305 732 OFFCURVE",
"305 646 CURVE SMOOTH",
"305 553 OFFCURVE",
"345 503 OFFCURVE",
"414 503 CURVE SMOOTH"
);
}
);
width = 686;
},
{
anchors = (
{
name = alSign;
position = "{549.629, 0}";
},
{
name = iVowel;
position = "{316, 0}";
},
{
name = rakar;
position = "{595.973, 105}";
},
{
name = repaya;
position = "{220.968, 720}";
},
{
name = uvowel;
position = "{587.99, 88}";
}
);
associatedMasterId = "DC607D84-584B-45E6-A9EB-D1AF471CA2AE";
layerId = "924629D5-59E6-4AE7-AD6E-7F334F4F9A30";
name = "5 Mar 25, 22:59";
paths = (
{
closed = 1;
nodes = (
"533 -11 OFFCURVE",
"634 170 OFFCURVE",
"634 407 CURVE SMOOTH",
"634 658 OFFCURVE",
"492 799 OFFCURVE",
"356 867 CURVE",
"268 758 LINE",
"288 755 OFFCURVE",
"306 749 OFFCURVE",
"322 741 CURVE",
"403 698 OFFCURVE",
"494 593 OFFCURVE",
"494 404 CURVE SMOOTH",
"494 257 OFFCURVE",
"419 164 OFFCURVE",
"280 164 CURVE SMOOTH",
"196 164 OFFCURVE",
"155 203 OFFCURVE",
"155 266 CURVE SMOOTH",
"155 330 OFFCURVE",
"204 361 OFFCURVE",
"281 361 CURVE SMOOTH",
"305 361 OFFCURVE",
"330 359 OFFCURVE",
"341 357 CURVE",
"351 485 LINE",
"331 489 OFFCURVE",
"306 491 OFFCURVE",
"283 491 CURVE SMOOTH",
"119 491 OFFCURVE",
"20 406 OFFCURVE",
"20 248 CURVE SMOOTH",
"20 82 OFFCURVE",
"128 -11 OFFCURVE",
"288 -11 CURVE SMOOTH"
);
},
{
closed = 1;
nodes = (
"457 503 OFFCURVE",
"497 527 OFFCURVE",
"536 589 CURVE",
"472 662 LINE",
"454 628 OFFCURVE",
"435 611 OFFCURVE",
"415 611 CURVE SMOOTH",
"400 611 OFFCURVE",
"388 620 OFFCURVE",
"387 652 CURVE SMOOTH",
"386 696 OFFCURVE",
"370 731 OFFCURVE",
"353 750 CURVE",
"268 758 LINE",
"279 751 OFFCURVE",
"281 742 OFFCURVE",
"281 649 CURVE SMOOTH",
"281 556 OFFCURVE",
"316 503 OFFCURVE",
"405 503 CURVE SMOOTH"
);
}
);
width = 656;
}
);
leftMetricsKey = "tta-sinh";
rightKerningGroup = "tha-sinh";
rightMetricsKey = "pha-sinh";
unicode = 0DAE;
script = sinhala;
category = Letter;
subCategory = Letter;
}
{
glyphname = "two-lith-sinh";
layers = (
{
layerId = "7977A986-4EFB-4152-84F8-5A02CD382AAF";
paths = (
{
closed = 1;
nodes = (
"690 363 LINE",
"726 492 OFFCURVE",
"789 586 OFFCURVE",
"893 586 CURVE SMOOTH",
"1017 586 OFFCURVE",
"1068 465 OFFCURVE",
"1068 309 CURVE SMOOTH",
"1068 142 OFFCURVE",
"1026 15 OFFCURVE",
"879 15 CURVE SMOOTH",
"863 15 OFFCURVE",
"848 16 OFFCURVE",
"836 19 CURVE",
"834 -7 LINE",
"848 -10 OFFCURVE",
"861 -11 OFFCURVE",
"878 -11 CURVE SMOOTH",
"1033 -11 OFFCURVE",
"1095 113 OFFCURVE",
"1095 310 CURVE SMOOTH",
"1095 486 OFFCURVE",
"1031 612 OFFCURVE",
"894 612 CURVE SMOOTH",
"776 612 OFFCURVE",
"712 517 OFFCURVE",
"676 404 CURVE"
);
},
{
closed = 1;
nodes = (
"482 -11 OFFCURVE",
"565 86 OFFCURVE",
"565 208 CURVE SMOOTH",
"565 330 OFFCURVE",
"489 409 OFFCURVE",
"363 409 CURVE SMOOTH",
"282 409 OFFCURVE",
"224 368 OFFCURVE",
"224 295 CURVE SMOOTH",
"224 229 OFFCURVE",
"266 192 OFFCURVE",
"317 192 CURVE SMOOTH",
"376 192 OFFCURVE",
"420 227 OFFCURVE",
"420 297 CURVE SMOOTH",
"420 340 OFFCURVE",
"403 372 OFFCURVE",
"389 391 CURVE",
"360 389 LINE",
"378 366 OFFCURVE",
"393 333 OFFCURVE",
"393 297 CURVE SMOOTH",
"393 243 OFFCURVE",
"365 218 OFFCURVE",
"318 218 CURVE SMOOTH",
"276 218 OFFCURVE",
"251 249 OFFCURVE",
"251 296 CURVE SMOOTH",
"251 346 OFFCURVE",
"290 383 OFFCURVE",
"357 383 CURVE SMOOTH",
"367 383 OFFCURVE",
"378 383 OFFCURVE",
"386 383 CURVE",
"476 373 OFFCURVE",
"538 316 OFFCURVE",
"538 207 CURVE SMOOTH",
"538 99 OFFCURVE",
"465 15 OFFCURVE",
"311 15 CURVE SMOOTH",
"153 15 OFFCURVE",
"66 125 OFFCURVE",
"66 296 CURVE SMOOTH",
"66 474 OFFCURVE",
"180 586 OFFCURVE",
"358 586 CURVE SMOOTH",
"618 586 OFFCURVE",
"736 357 OFFCURVE",
"737 -1 CURVE",
"765 1 LINE",
"761 378 OFFCURVE",
"633 612 OFFCURVE",
"358 612 CURVE SMOOTH",
"162 612 OFFCURVE",
"39 486 OFFCURVE",
"39 295 CURVE SMOOTH",
"39 112 OFFCURVE",
"137 -11 OFFCURVE",
"310 -11 CURVE SMOOTH"
);
}
);
width = 1138;
},
{
layerId = UUID0;
paths = (
{
closed = 1;
nodes = (
"751 276 LINE",
"760 440 OFFCURVE",
"823 541 OFFCURVE",
"920 541 CURVE SMOOTH",
"1018 541 OFFCURVE",
"1076 443 OFFCURVE",
"1076 304 CURVE SMOOTH",
"1076 161 OFFCURVE",
"1017 66 OFFCURVE",
"893 66 CURVE SMOOTH",
"881 66 OFFCURVE",
"867 67 OFFCURVE",
"858 68 CURVE",
"855 0 LINE",
"871 -2 OFFCURVE",
"886 -3 OFFCURVE",
"899 -3 CURVE SMOOTH",
"1041 -3 OFFCURVE",
"1151 104 OFFCURVE",
"1151 310 CURVE SMOOTH",
"1151 484 OFFCURVE",
"1074 612 OFFCURVE",
"924 612 CURVE SMOOTH",
"827 612 OFFCURVE",
"725 561 OFFCURVE",
"694 344 CURVE"
);
},
{
closed = 1;
nodes = (
"509 -11 OFFCURVE",
"585 87 OFFCURVE",
"585 209 CURVE SMOOTH",
"585 328 OFFCURVE",
"509 417 OFFCURVE",
"362 417 CURVE SMOOTH",
"262 417 OFFCURVE",
"200 373 OFFCURVE",
"200 294 CURVE SMOOTH",
"200 220 OFFCURVE",
"252 180 OFFCURVE",
"326 180 CURVE SMOOTH",
"389 180 OFFCURVE",
"441 208 OFFCURVE",
"441 289 CURVE SMOOTH",
"441 308 OFFCURVE",
"438 333 OFFCURVE",
"426 355 CURVE",
"354 361 LINE",
"369 342 OFFCURVE",
"374 315 OFFCURVE",
"374 297 CURVE SMOOTH",
"374 266 OFFCURVE",
"357 246 OFFCURVE",
"322 246 CURVE SMOOTH",
"284 246 OFFCURVE",
"271 270 OFFCURVE",
"271 296 CURVE SMOOTH",
"271 331 OFFCURVE",
"300 352 OFFCURVE",
"351 352 CURVE SMOOTH",
"364 352 OFFCURVE",
"382 352 OFFCURVE",
"389 352 CURVE",
"493 337 OFFCURVE",
"513 272 OFFCURVE",
"513 214 CURVE SMOOTH",
"513 124 OFFCURVE",
"462 61 OFFCURVE",
"331 61 CURVE SMOOTH",
"159 61 OFFCURVE",
"108 176 OFFCURVE",
"108 288 CURVE SMOOTH",
"108 466 OFFCURVE",
"228 542 OFFCURVE",
"367 542 CURVE SMOOTH",
"597 542 OFFCURVE",
"719 339 OFFCURVE",
"727 -1 CURVE",
"801 2 LINE",
"791 390 OFFCURVE",
"640 612 OFFCURVE",
"367 612 CURVE SMOOTH",
"169 612 OFFCURVE",
"35 487 OFFCURVE",
"35 287 CURVE SMOOTH",
"35 138 OFFCURVE",
"114 -11 OFFCURVE",
"332 -11 CURVE SMOOTH"
);
}
);
width = 1190;
},
{
layerId = "C62AB4C0-B70D-46F6-9B13-45217A94AFC9";
paths = (
{
closed = 1;
nodes = (
"874 277 LINE",
"888 388 OFFCURVE",
"934 453 OFFCURVE",
"1007 453 CURVE SMOOTH",
"1081 453 OFFCURVE",
"1123 388 OFFCURVE",
"1123 291 CURVE SMOOTH",
"1123 194 OFFCURVE",
"1079 133 OFFCURVE",
"993 133 CURVE SMOOTH",
"986 133 OFFCURVE",
"976 133 OFFCURVE",
"969 134 CURVE",
"962 -1 LINE",
"974 -2 OFFCURVE",
"990 -2 OFFCURVE",
"1002 -2 CURVE SMOOTH",
"1163 -2 OFFCURVE",
"1265 112 OFFCURVE",
"1265 312 CURVE SMOOTH",
"1265 493 OFFCURVE",
"1176 622 OFFCURVE",
"1019 622 CURVE SMOOTH",
"888 622 OFFCURVE",
"794 528 OFFCURVE",
"760 344 CURVE"
);
},
{
closed = 1;
nodes = (
"600 -11 OFFCURVE",
"692 93 OFFCURVE",
"692 222 CURVE SMOOTH",
"692 344 OFFCURVE",
"605 449 OFFCURVE",
"421 449 CURVE SMOOTH",
"294 449 OFFCURVE",
"220 397 OFFCURVE",
"220 310 CURVE SMOOTH",
"220 226 OFFCURVE",
"286 187 OFFCURVE",
"380 187 CURVE SMOOTH",
"469 187 OFFCURVE",
"521 221 OFFCURVE",
"521 287 CURVE SMOOTH",
"521 318 OFFCURVE",
"509 336 OFFCURVE",
"492 355 CURVE",
"385 361 LINE",
"399 347 OFFCURVE",
"408 333 OFFCURVE",
"408 318 CURVE SMOOTH",
"408 301 OFFCURVE",
"395 289 OFFCURVE",
"374 289 CURVE SMOOTH",
"352 289 OFFCURVE",
"344 302 OFFCURVE",
"344 315 CURVE SMOOTH",
"344 332 OFFCURVE",
"357 344 OFFCURVE",
"394 344 CURVE SMOOTH",
"410 344 OFFCURVE",
"421 344 OFFCURVE",
"428 342 CURVE",
"523 342 OFFCURVE",
"558 306 OFFCURVE",
"558 256 CURVE SMOOTH",
"558 197 OFFCURVE",
"506 148 OFFCURVE",
"376 148 CURVE SMOOTH",
"247 148 OFFCURVE",
"170 200 OFFCURVE",
"170 310 CURVE SMOOTH",
"170 424 OFFCURVE",
"255 488 OFFCURVE",
"410 488 CURVE SMOOTH",
"655 488 OFFCURVE",
"771 337 OFFCURVE",
"778 -1 CURVE",
"927 2 LINE",
"927 424 OFFCURVE",
"729 622 OFFCURVE",
"416 622 CURVE SMOOTH",
"174 622 OFFCURVE",
"30 498 OFFCURVE",
"30 299 CURVE SMOOTH",
"30 142 OFFCURVE",
"114 -11 OFFCURVE",
"377 -11 CURVE SMOOTH"
);
}
);
width = 1296;
},
{
layerId = "CF8E177F-0CDC-40C1-8828-F158AA64F32E";
paths = (
{
closed = 1;
nodes = (
"522 363 LINE",
"554 495 OFFCURVE",
"589 586 OFFCURVE",
"664 586 CURVE SMOOTH",
"750 586 OFFCURVE",
"785 471 OFFCURVE",
"785 289 CURVE SMOOTH",
"785 141 OFFCURVE",
"762 24 OFFCURVE",
"663 24 CURVE SMOOTH",
"653 24 OFFCURVE",
"643 25 OFFCURVE",
"634 27 CURVE",
"633 1 LINE",
"643 -1 OFFCURVE",
"653 -2 OFFCURVE",
"664 -2 CURVE SMOOTH",
"769 -2 OFFCURVE",
"812 100 OFFCURVE",
"812 294 CURVE SMOOTH",
"812 494 OFFCURVE",
"765 612 OFFCURVE",
"665 612 CURVE SMOOTH",
"581 612 OFFCURVE",
"533 528 OFFCURVE",
"508 399 CURVE"
);
},
{
closed = 1;
nodes = (
"366 -11 OFFCURVE",
"422 86 OFFCURVE",
"422 208 CURVE SMOOTH",
"422 331 OFFCURVE",
"366 409 OFFCURVE",
"275 409 CURVE SMOOTH",
"210 409 OFFCURVE",
"169 367 OFFCURVE",
"169 293 CURVE SMOOTH",
"169 224 OFFCURVE",
"203 192 OFFCURVE",
"246 192 CURVE SMOOTH",
"287 192 OFFCURVE",
"320 219 OFFCURVE",
"320 291 CURVE SMOOTH",
"320 333 OFFCURVE",
"308 362 OFFCURVE",
"292 388 CURVE",
"261 389 LINE",
"281 363 OFFCURVE",
"293 332 OFFCURVE",
"293 290 CURVE SMOOTH",
"293 235 OFFCURVE",
"273 218 OFFCURVE",
"247 218 CURVE SMOOTH",
"214 218 OFFCURVE",
"196 245 OFFCURVE",
"196 291 CURVE SMOOTH",
"196 348 OFFCURVE",
"224 384 OFFCURVE",
"268 384 CURVE SMOOTH",
"275 384 OFFCURVE",
"285 384 OFFCURVE",
"290 384 CURVE",
"356 373 OFFCURVE",
"395 313 OFFCURVE",
"395 210 CURVE SMOOTH",
"395 93 OFFCURVE",
"345 15 OFFCURVE",
"246 15 CURVE SMOOTH",
"125 15 OFFCURVE",
"67 125 OFFCURVE",
"67 289 CURVE SMOOTH",
"67 474 OFFCURVE",
"146 586 OFFCURVE",
"272 586 CURVE SMOOTH",
"458 586 OFFCURVE",
"557 357 OFFCURVE",
"559 -1 CURVE",
"585 1 LINE",
"582 378 OFFCURVE",
"474 612 OFFCURVE",
"272 612 CURVE SMOOTH",
"129 612 OFFCURVE",
"40 487 OFFCURVE",
"40 289 CURVE SMOOTH",
"40 110 OFFCURVE",
"109 -11 OFFCURVE",
"246 -11 CURVE SMOOTH"
);
}
);
width = 854;
},
{
layerId = "56AEB5FB-BA14-4784-B08F-18006463EEDB";
paths = (
{
closed = 1;
nodes = (
"567 293 LINE",
"586 458 OFFCURVE",
"630 545 OFFCURVE",
"693 545 CURVE SMOOTH",
"759 545 OFFCURVE",
"794 456 OFFCURVE",
"794 308 CURVE SMOOTH",
"794 155 OFFCURVE",
"758 63 OFFCURVE",
"678 63 CURVE SMOOTH",
"671 63 OFFCURVE",
"665 63 OFFCURVE",
"659 64 CURVE",
"657 -1 LINE",
"666 -2 OFFCURVE",
"675 -3 OFFCURVE",
"685 -3 CURVE SMOOTH",
"794 -3 OFFCURVE",
"864 104 OFFCURVE",
"864 312 CURVE SMOOTH",
"864 491 OFFCURVE",
"809 612 OFFCURVE",
"696 612 CURVE SMOOTH",
"599 612 OFFCURVE",
"536 527 OFFCURVE",
"518 358 CURVE"
);
},
{
closed = 1;
nodes = (
"396 -11 OFFCURVE",
"453 91 OFFCURVE",
"453 214 CURVE SMOOTH",
"453 337 OFFCURVE",
"394 416 OFFCURVE",
"285 416 CURVE SMOOTH",
"206 416 OFFCURVE",
"160 373 OFFCURVE",
"160 293 CURVE SMOOTH",
"160 217 OFFCURVE",
"199 182 OFFCURVE",
"257 182 CURVE SMOOTH",
"311 182 OFFCURVE",
"351 211 OFFCURVE",
"351 280 CURVE SMOOTH",
"351 310 OFFCURVE",
"343 339 OFFCURVE",
"329 362 CURVE",
"272 362 LINE",
"285 344 OFFCURVE",
"291 318 OFFCURVE",
"291 294 CURVE SMOOTH",
"291 260 OFFCURVE",
"279 243 OFFCURVE",
"256 243 CURVE SMOOTH",
"232 243 OFFCURVE",
"222 261 OFFCURVE",
"222 293 CURVE SMOOTH",
"222 333 OFFCURVE",
"239 355 OFFCURVE",
"279 355 CURVE SMOOTH",
"288 355 OFFCURVE",
"297 356 OFFCURVE",
"299 356 CURVE SMOOTH",
"367 349 OFFCURVE",
"387 283 OFFCURVE",
"387 217 CURVE SMOOTH",
"387 124 OFFCURVE",
"352 57 OFFCURVE",
"260 57 CURVE SMOOTH",
"159 57 OFFCURVE",
"102 140 OFFCURVE",
"102 288 CURVE SMOOTH",
"102 455 OFFCURVE",
"170 545 OFFCURVE",
"285 545 CURVE SMOOTH",
"453 545 OFFCURVE",
"545 342 OFFCURVE",
"551 -1 CURVE",
"621 2 LINE",
"613 411 OFFCURVE",
"485 612 OFFCURVE",
"285 612 CURVE SMOOTH",
"130 612 OFFCURVE",
"34 498 OFFCURVE",
"34 289 CURVE SMOOTH",
"34 102 OFFCURVE",
"115 -11 OFFCURVE",
"261 -11 CURVE SMOOTH"
);
}
);
width = 901;
},
{
layerId = "DC607D84-584B-45E6-A9EB-D1AF471CA2AE";
paths = (
{
closed = 1;
nodes = (
"751 281 LINE",
"774 413 OFFCURVE",
"809 464 OFFCURVE",
"855 464 CURVE SMOOTH",
"899 464 OFFCURVE",
"934 420 OFFCURVE",
"934 286 CURVE SMOOTH",
"934 177 OFFCURVE",
"912 127 OFFCURVE",
"846 127 CURVE SMOOTH",
"839 127 OFFCURVE",
"832 127 OFFCURVE",
"829 128 CURVE",
"824 0 LINE",
"839 -2 OFFCURVE",
"859 -3 OFFCURVE",
"873 -3 CURVE SMOOTH",
"1006 -3 OFFCURVE",
"1071 101 OFFCURVE",
"1071 296 CURVE SMOOTH",
"1071 496 OFFCURVE",
"999 622 OFFCURVE",
"865 622 CURVE SMOOTH",
"754 622 OFFCURVE",
"669 532 OFFCURVE",
"641 337 CURVE"
);
},
{
closed = 1;
nodes = (
"508 -11 OFFCURVE",
"585 97 OFFCURVE",
"585 228 CURVE SMOOTH",
"585 349 OFFCURVE",
"515 446 OFFCURVE",
"365 446 CURVE SMOOTH",
"256 446 OFFCURVE",
"198 392 OFFCURVE",
"198 308 CURVE SMOOTH",
"198 224 OFFCURVE",
"252 183 OFFCURVE",
"325 183 CURVE SMOOTH",
"397 183 OFFCURVE",
"435 220 OFFCURVE",
"435 285 CURVE SMOOTH",
"435 320 OFFCURVE",
"423 342 OFFCURVE",
"410 360 CURVE",
"321 361 LINE",
"338 348 OFFCURVE",
"347 331 OFFCURVE",
"347 311 CURVE SMOOTH",
"347 286 OFFCURVE",
"335 280 OFFCURVE",
"323 280 CURVE SMOOTH",
"309 280 OFFCURVE",
"299 290 OFFCURVE",
"299 310 CURVE SMOOTH",
"299 333 OFFCURVE",
"313 346 OFFCURVE",
"338 346 CURVE SMOOTH",
"345 346 OFFCURVE",
"365 345 OFFCURVE",
"376 344 CURVE SMOOTH",
"443 338 OFFCURVE",
"463 297 OFFCURVE",
"463 252 CURVE SMOOTH",
"463 180 OFFCURVE",
"407 144 OFFCURVE",
"324 144 CURVE SMOOTH",
"242 144 OFFCURVE",
"162 181 OFFCURVE",
"162 305 CURVE SMOOTH",
"162 415 OFFCURVE",
"229 492 OFFCURVE",
"368 492 CURVE SMOOTH",
"553 492 OFFCURVE",
"643 365 OFFCURVE",
"651 -1 CURVE",
"792 1 LINE",
"787 434 OFFCURVE",
"643 622 OFFCURVE",
"375 622 CURVE SMOOTH",
"168 622 OFFCURVE",
"27 504 OFFCURVE",
"27 298 CURVE SMOOTH",
"27 144 OFFCURVE",
"104 -11 OFFCURVE",
"320 -11 CURVE SMOOTH"
);
}
);
width = 1103;
}
);
unicode = 0DE8;
}
{
glyphname = "uu-sign-sinh";
layers = (
{
anchors = (
{
name = _uvowel;
position = "{682, 0}";
}
);
layerId = "7977A986-4EFB-4152-84F8-5A02CD382AAF";
paths = (
{
closed = 1;
nodes = (
"20 -225 OFFCURVE",
"70 -257 OFFCURVE",
"128 -257 CURVE SMOOTH",
"180 -257 OFFCURVE",
"228 -233 OFFCURVE",
"288 -206 CURVE SMOOTH",
"344 -181 OFFCURVE",
"382 -166 OFFCURVE",
"441 -166 CURVE SMOOTH",
"514 -166 OFFCURVE",
"598 -188 OFFCURVE",
"663 -257 CURVE",
"682 -257 LINE",
"682 190 LINE",
"656 137 LINE",
"656 -164 LINE",
"655 -184 OFFCURVE",
"656 -202 OFFCURVE",
"657 -229 CURVE",
"669 -232 LINE",
"612 -163 OFFCURVE",
"516 -139 OFFCURVE",
"442 -139 CURVE SMOOTH",
"381 -139 OFFCURVE",
"333 -156 OFFCURVE",
"268 -186 CURVE SMOOTH",
"213 -211 OFFCURVE",
"176 -230 OFFCURVE",
"131 -230 CURVE SMOOTH",
"79 -230 OFFCURVE",
"47 -203 OFFCURVE",
"47 -159 CURVE SMOOTH",
"47 -137 OFFCURVE",
"55 -117 OFFCURVE",
"69 -94 CURVE",
"42 -94 LINE",
"28 -115 OFFCURVE",
"20 -140 OFFCURVE",
"20 -164 CURVE SMOOTH"
);
}
);
width = 702;
},
{
anchors = (
{
name = _uvowel;
position = "{682, 0}";
}
);
layerId = UUID0;
paths = (
{
closed = 1;
nodes = (
"20 -247 OFFCURVE",
"84 -281 OFFCURVE",
"151 -281 CURVE SMOOTH",
"212 -281 OFFCURVE",
"263 -254 OFFCURVE",
"303 -236 CURVE SMOOTH",
"349 -215 OFFCURVE",
"391 -202 OFFCURVE",
"454 -202 CURVE SMOOTH",
"518 -202 OFFCURVE",
"571 -215 OFFCURVE",
"630 -279 CURVE",
"682 -279 LINE",
"682 206 LINE",
"610 76 LINE",
"610 -150 LINE SMOOTH",
"610 -179 OFFCURVE",
"611 -207 OFFCURVE",
"613 -235 CURVE",
"649 -221 LINE",
"588 -152 OFFCURVE",
"505 -132 OFFCURVE",
"440 -132 CURVE SMOOTH",
"387 -132 OFFCURVE",
"339 -146 OFFCURVE",
"279 -173 CURVE SMOOTH",
"230 -195 OFFCURVE",
"200 -213 OFFCURVE",
"156 -213 CURVE SMOOTH",
"111 -213 OFFCURVE",
"88 -194 OFFCURVE",
"88 -158 CURVE SMOOTH",
"88 -141 OFFCURVE",
"93 -126 OFFCURVE",
"103 -107 CURVE",
"37 -107 LINE",
"24 -130 OFFCURVE",
"20 -157 OFFCURVE",
"20 -175 CURVE SMOOTH"
);
}
);
width = 702;
},
{
anchors = (
{
name = _uvowel;
position = "{769, 0}";
}
);
layerId = "C62AB4C0-B70D-46F6-9B13-45217A94AFC9";
paths = (
{
closed = 1;
nodes = (
"20 -262 OFFCURVE",
"84 -314 OFFCURVE",
"177 -314 CURVE SMOOTH",
"241 -314 OFFCURVE",
"292 -289 OFFCURVE",
"331 -274 CURVE SMOOTH",
"381 -255 OFFCURVE",
"433 -243 OFFCURVE",
"480 -243 CURVE SMOOTH",
"545 -243 OFFCURVE",
"637 -267 OFFCURVE",
"664 -306 CURVE",
"769 -306 LINE",
"769 243 LINE",
"628 66 LINE",
"628 -87 LINE SMOOTH",
"628 -116 OFFCURVE",
"629 -135 OFFCURVE",
"631 -153 CURVE",
"680 -171 LINE",
"643 -129 OFFCURVE",
"545 -103 OFFCURVE",
"476 -103 CURVE SMOOTH",
"430 -103 OFFCURVE",
"371 -114 OFFCURVE",
"315 -137 CURVE SMOOTH",
"270 -155 OFFCURVE",
"238 -175 OFFCURVE",
"208 -175 CURVE SMOOTH",
"178 -175 OFFCURVE",
"168 -152 OFFCURVE",
"168 -132 CURVE SMOOTH",
"168 -113 OFFCURVE",
"176 -92 OFFCURVE",
"183 -76 CURVE",
"52 -76 LINE",
"38 -95 OFFCURVE",
"20 -132 OFFCURVE",
"20 -178 CURVE SMOOTH"
);
}
);
width = 789;
},
{
anchors = (
{
name = _uvowel;
position = "{485, 0}";
}
);
layerId = "CF8E177F-0CDC-40C1-8828-F158AA64F32E";
paths = (
{
closed = 1;
nodes = (
"19 -236 OFFCURVE",
"56 -259 OFFCURVE",
"97 -259 CURVE SMOOTH",
"143 -259 OFFCURVE",
"185 -227 OFFCURVE",
"220 -205 CURVE SMOOTH",
"244 -190 OFFCURVE",
"276 -173 OFFCURVE",
"319 -173 CURVE SMOOTH",
"362 -173 OFFCURVE",
"403 -189 OFFCURVE",
"468 -255 CURVE",
"485 -255 LINE",
"485 157 LINE",
"459 95 LINE",
"459 -164 LINE",
"459 -184 OFFCURVE",
"459 -202 OFFCURVE",
"459 -229 CURVE",
"473 -230 LINE",
"409 -160 OFFCURVE",
"354 -147 OFFCURVE",
"317 -147 CURVE SMOOTH",
"275 -147 OFFCURVE",
"241 -164 OFFCURVE",
"210 -183 CURVE SMOOTH",
"171 -207 OFFCURVE",
"138 -233 OFFCURVE",
"99 -233 CURVE SMOOTH",
"69 -233 OFFCURVE",
"43 -217 OFFCURVE",
"43 -182 CURVE SMOOTH",
"43 -157 OFFCURVE",
"56 -135 OFFCURVE",
"68 -118 CURVE",
"45 -118 LINE",
"30 -140 OFFCURVE",
"19 -158 OFFCURVE",
"19 -185 CURVE SMOOTH"
);
}
);
width = 505;
},
{
anchors = (
{
name = _uvowel;
position = "{494, 0}";
}
);
layerId = "56AEB5FB-BA14-4784-B08F-18006463EEDB";
paths = (
{
closed = 1;
nodes = (
"20 -234 OFFCURVE",
"75 -264 OFFCURVE",
"123 -264 CURVE SMOOTH",
"167 -264 OFFCURVE",
"202 -239 OFFCURVE",
"236 -215 CURVE SMOOTH",
"256 -201 OFFCURVE",
"283 -182 OFFCURVE",
"320 -182 CURVE SMOOTH",
"365 -182 OFFCURVE",
"414 -209 OFFCURVE",
"438 -261 CURVE",
"494 -261 LINE",
"494 179 LINE",
"422 110 LINE",
"422 -130 LINE SMOOTH",
"422 -159 OFFCURVE",
"423 -192 OFFCURVE",
"424 -215 CURVE",
"468 -214 LINE",
"432 -145 OFFCURVE",
"365 -120 OFFCURVE",
"314 -120 CURVE SMOOTH",
"285 -120 OFFCURVE",
"252 -128 OFFCURVE",
"210 -156 CURVE SMOOTH",
"185 -173 OFFCURVE",
"158 -197 OFFCURVE",
"128 -197 CURVE SMOOTH",
"100 -197 OFFCURVE",
"88 -178 OFFCURVE",
"88 -153 CURVE SMOOTH",
"88 -138 OFFCURVE",
"92 -122 OFFCURVE",
"98 -102 CURVE",
"34 -102 LINE",
"24 -126 OFFCURVE",
"20 -148 OFFCURVE",
"20 -166 CURVE SMOOTH"
);
}
);
width = 514;
},
{
anchors = (
{
name = _uvowel;
position = "{594, 0}";
}
);
layerId = "DC607D84-584B-45E6-A9EB-D1AF471CA2AE";
paths = (
{
closed = 1;
nodes = (
"20 -248 OFFCURVE",
"76 -301 OFFCURVE",
"155 -301 CURVE SMOOTH",
"204 -301 OFFCURVE",
"234 -281 OFFCURVE",
"282 -258 CURVE SMOOTH",
"321 -239 OFFCURVE",
"349 -229 OFFCURVE",
"380 -229 CURVE SMOOTH",
"429 -229 OFFCURVE",
"470 -254 OFFCURVE",
"480 -293 CURVE",
"594 -293 LINE",
"594 190 LINE",
"453 87 LINE",
"454 -80 LINE SMOOTH",
"454 -109 OFFCURVE",
"455 -116 OFFCURVE",
"458 -134 CURVE",
"474 -134 LINE",
"457 -110 OFFCURVE",
"420 -90 OFFCURVE",
"371 -90 CURVE SMOOTH",
"333 -90 OFFCURVE",
"308 -102 OFFCURVE",
"283 -115 CURVE SMOOTH",
"252 -132 OFFCURVE",
"227 -148 OFFCURVE",
"196 -148 CURVE SMOOTH",
"165 -148 OFFCURVE",
"158 -132 OFFCURVE",
"158 -112 CURVE SMOOTH",
"158 -96 OFFCURVE",
"162 -77 OFFCURVE",
"164 -60 CURVE",
"36 -60 LINE",
"27 -88 OFFCURVE",
"20 -122 OFFCURVE",
"20 -155 CURVE SMOOTH"
);
}
);
width = 614;
}
);
unicode = 0DD6;
category = Mark;
subCategory = "Spacing Combining";
}
{
glyphname = "visarga-sinh";
layers = (
{
layerId = "7977A986-4EFB-4152-84F8-5A02CD382AAF";
paths = (
{
closed = 1;
nodes = (
"276 498 OFFCURVE",
"230 544 OFFCURVE",
"155 544 CURVE SMOOTH",
"81 544 OFFCURVE",
"32 497 OFFCURVE",
"32 427 CURVE SMOOTH",
"32 364 OFFCURVE",
"72 312 OFFCURVE",
"152 312 CURVE SMOOTH",
"227 312 OFFCURVE",
"276 359 OFFCURVE",
"276 430 CURVE SMOOTH"
);
},
{
closed = 1;
nodes = (
"249 371 OFFCURVE",
"210 338 OFFCURVE",
"152 338 CURVE SMOOTH",
"86 338 OFFCURVE",
"59 382 OFFCURVE",
"59 428 CURVE SMOOTH",
"59 484 OFFCURVE",
"97 518 OFFCURVE",
"155 518 CURVE SMOOTH",
"218 518 OFFCURVE",
"249 479 OFFCURVE",
"249 429 CURVE SMOOTH"
);
},
{
closed = 1;
nodes = (
"276 186 OFFCURVE",
"230 232 OFFCURVE",
"155 232 CURVE SMOOTH",
"81 232 OFFCURVE",
"32 185 OFFCURVE",
"32 115 CURVE SMOOTH",
"32 52 OFFCURVE",
"72 0 OFFCURVE",
"152 0 CURVE SMOOTH",
"227 0 OFFCURVE",
"276 47 OFFCURVE",
"276 118 CURVE SMOOTH"
);
},
{
closed = 1;
nodes = (
"249 59 OFFCURVE",
"210 26 OFFCURVE",
"152 26 CURVE SMOOTH",
"86 26 OFFCURVE",
"59 70 OFFCURVE",
"59 116 CURVE SMOOTH",
"59 172 OFFCURVE",
"97 206 OFFCURVE",
"155 206 CURVE SMOOTH",
"218 206 OFFCURVE",
"249 167 OFFCURVE",
"249 117 CURVE SMOOTH"
);
}
);
width = 308;
},
{
layerId = UUID0;
paths = (
{
closed = 1;
nodes = (
"288 497 OFFCURVE",
"237 544 OFFCURVE",
"158 544 CURVE SMOOTH",
"80 544 OFFCURVE",
"30 491 OFFCURVE",
"30 421 CURVE SMOOTH",
"30 354 OFFCURVE",
"74 300 OFFCURVE",
"160 300 CURVE SMOOTH",
"237 300 OFFCURVE",
"288 348 OFFCURVE",
"288 424 CURVE SMOOTH"
);
},
{
closed = 1;
nodes = (
"224 382 OFFCURVE",
"196 360 OFFCURVE",
"157 360 CURVE SMOOTH",
"113 360 OFFCURVE",
"94 390 OFFCURVE",
"94 422 CURVE SMOOTH",
"94 460 OFFCURVE",
"120 484 OFFCURVE",
"159 484 CURVE SMOOTH",
"202 484 OFFCURVE",
"224 457 OFFCURVE",
"224 423 CURVE SMOOTH"
);
},
{
closed = 1;
nodes = (
"288 196 OFFCURVE",
"237 244 OFFCURVE",
"159 244 CURVE SMOOTH",
"80 244 OFFCURVE",
"30 191 OFFCURVE",
"30 121 CURVE SMOOTH",
"30 53 OFFCURVE",
"74 0 OFFCURVE",
"159 0 CURVE SMOOTH",
"237 0 OFFCURVE",
"288 48 OFFCURVE",
"288 123 CURVE SMOOTH"
);
},
{
closed = 1;
nodes = (
"224 83 OFFCURVE",
"197 60 OFFCURVE",
"157 60 CURVE SMOOTH",
"113 60 OFFCURVE",
"94 90 OFFCURVE",
"94 122 CURVE SMOOTH",
"94 160 OFFCURVE",
"120 184 OFFCURVE",
"159 184 CURVE SMOOTH",
"202 184 OFFCURVE",
"224 157 OFFCURVE",
"224 123 CURVE SMOOTH"
);
}
);
width = 318;
},
{
layerId = "C62AB4C0-B70D-46F6-9B13-45217A94AFC9";
paths = (
{
closed = 1;
nodes = (
"297 503 OFFCURVE",
"241 556 OFFCURVE",
"157 556 CURVE SMOOTH",
"68 556 OFFCURVE",
"14 497 OFFCURVE",
"14 420 CURVE SMOOTH",
"14 346 OFFCURVE",
"63 288 OFFCURVE",
"155 288 CURVE SMOOTH",
"241 288 OFFCURVE",
"297 341 OFFCURVE",
"297 423 CURVE SMOOTH"
);
},
{
closed = 1;
nodes = (
"197 396 OFFCURVE",
"178 383 OFFCURVE",
"154 383 CURVE SMOOTH",
"126 383 OFFCURVE",
"114 401 OFFCURVE",
"114 422 CURVE SMOOTH",
"114 446 OFFCURVE",
"129 461 OFFCURVE",
"155 461 CURVE SMOOTH",
"182 461 OFFCURVE",
"197 442 OFFCURVE",
"197 421 CURVE SMOOTH"
);
},
{
closed = 1;
nodes = (
"297 216 OFFCURVE",
"241 268 OFFCURVE",
"157 268 CURVE SMOOTH",
"68 268 OFFCURVE",
"14 211 OFFCURVE",
"14 132 CURVE SMOOTH",
"14 58 OFFCURVE",
"62 0 OFFCURVE",
"157 0 CURVE SMOOTH",
"241 0 OFFCURVE",
"297 53 OFFCURVE",
"297 135 CURVE SMOOTH"
);
},
{
closed = 1;
nodes = (
"197 109 OFFCURVE",
"178 95 OFFCURVE",
"154 95 CURVE SMOOTH",
"126 95 OFFCURVE",
"114 113 OFFCURVE",
"114 134 CURVE SMOOTH",
"114 158 OFFCURVE",
"129 173 OFFCURVE",
"154 173 CURVE SMOOTH",
"182 173 OFFCURVE",
"197 153 OFFCURVE",
"197 133 CURVE SMOOTH"
);
}
);
width = 311;
},
{
layerId = "CF8E177F-0CDC-40C1-8828-F158AA64F32E";
paths = (
{
closed = 1;
nodes = (
"209 501 OFFCURVE",
"174 544 OFFCURVE",
"120 544 CURVE SMOOTH",
"66 544 OFFCURVE",
"32 502 OFFCURVE",
"32 428 CURVE SMOOTH",
"32 354 OFFCURVE",
"66 312 OFFCURVE",
"120 312 CURVE SMOOTH",
"175 312 OFFCURVE",
"209 353 OFFCURVE",
"209 427 CURVE SMOOTH"
);
},
{
closed = 1;
nodes = (
"183 363 OFFCURVE",
"155 338 OFFCURVE",
"120 338 CURVE SMOOTH",
"85 338 OFFCURVE",
"58 363 OFFCURVE",
"58 428 CURVE SMOOTH",
"58 493 OFFCURVE",
"85 518 OFFCURVE",
"120 518 CURVE SMOOTH",
"155 518 OFFCURVE",
"183 493 OFFCURVE",
"183 428 CURVE SMOOTH"
);
},
{
closed = 1;
nodes = (
"209 189 OFFCURVE",
"174 232 OFFCURVE",
"120 232 CURVE SMOOTH",
"66 232 OFFCURVE",
"32 190 OFFCURVE",
"32 116 CURVE SMOOTH",
"32 42 OFFCURVE",
"66 0 OFFCURVE",
"120 0 CURVE SMOOTH",
"175 0 OFFCURVE",
"209 41 OFFCURVE",
"209 115 CURVE SMOOTH"
);
},
{
closed = 1;
nodes = (
"183 51 OFFCURVE",
"155 26 OFFCURVE",
"120 26 CURVE SMOOTH",
"85 26 OFFCURVE",
"58 51 OFFCURVE",
"58 116 CURVE SMOOTH",
"58 181 OFFCURVE",
"85 206 OFFCURVE",
"120 206 CURVE SMOOTH",
"155 206 OFFCURVE",
"183 181 OFFCURVE",
"183 116 CURVE SMOOTH"
);
}
);
width = 241;
},
{
layerId = "56AEB5FB-BA14-4784-B08F-18006463EEDB";
paths = (
{
closed = 1;
nodes = (
"230 500 OFFCURVE",
"191 544 OFFCURVE",
"129 544 CURVE SMOOTH",
"69 544 OFFCURVE",
"29 501 OFFCURVE",
"29 423 CURVE SMOOTH",
"29 349 OFFCURVE",
"65 301 OFFCURVE",
"129 301 CURVE SMOOTH",
"190 301 OFFCURVE",
"230 344 OFFCURVE",
"230 424 CURVE SMOOTH"
);
},
{
closed = 1;
nodes = (
"173 380 OFFCURVE",
"159 357 OFFCURVE",
"129 357 CURVE SMOOTH",
"94 357 OFFCURVE",
"86 389 OFFCURVE",
"86 422 CURVE SMOOTH",
"86 463 OFFCURVE",
"99 488 OFFCURVE",
"129 488 CURVE SMOOTH",
"162 488 OFFCURVE",
"173 459 OFFCURVE",
"173 423 CURVE SMOOTH"
);
},
{
closed = 1;
nodes = (
"230 199 OFFCURVE",
"191 243 OFFCURVE",
"129 243 CURVE SMOOTH",
"69 243 OFFCURVE",
"29 200 OFFCURVE",
"29 122 CURVE SMOOTH",
"29 48 OFFCURVE",
"65 0 OFFCURVE",
"129 0 CURVE SMOOTH",
"190 0 OFFCURVE",
"230 43 OFFCURVE",
"230 123 CURVE SMOOTH"
);
},
{
closed = 1;
nodes = (
"173 79 OFFCURVE",
"159 56 OFFCURVE",
"129 56 CURVE SMOOTH",
"94 56 OFFCURVE",
"86 88 OFFCURVE",
"86 121 CURVE SMOOTH",
"86 162 OFFCURVE",
"99 187 OFFCURVE",
"129 187 CURVE SMOOTH",
"162 187 OFFCURVE",
"173 158 OFFCURVE",
"173 122 CURVE SMOOTH"
);
}
);
width = 259;
},
{
layerId = "DC607D84-584B-45E6-A9EB-D1AF471CA2AE";
paths = (
{
closed = 1;
nodes = (
"249 508 OFFCURVE",
"204 556 OFFCURVE",
"133 556 CURVE SMOOTH",
"64 556 OFFCURVE",
"18 509 OFFCURVE",
"18 423 CURVE SMOOTH",
"18 341 OFFCURVE",
"59 289 OFFCURVE",
"133 289 CURVE SMOOTH",
"203 289 OFFCURVE",
"249 336 OFFCURVE",
"249 424 CURVE SMOOTH"
);
},
{
closed = 1;
nodes = (
"160 396 OFFCURVE",
"151 382 OFFCURVE",
"133 382 CURVE SMOOTH",
"112 382 OFFCURVE",
"107 402 OFFCURVE",
"107 423 CURVE SMOOTH",
"107 447 OFFCURVE",
"115 463 OFFCURVE",
"133 463 CURVE SMOOTH",
"153 463 OFFCURVE",
"160 445 OFFCURVE",
"160 423 CURVE SMOOTH"
);
},
{
closed = 1;
nodes = (
"249 219 OFFCURVE",
"204 267 OFFCURVE",
"133 267 CURVE SMOOTH",
"64 267 OFFCURVE",
"18 220 OFFCURVE",
"18 134 CURVE SMOOTH",
"18 52 OFFCURVE",
"59 0 OFFCURVE",
"133 0 CURVE SMOOTH",
"203 0 OFFCURVE",
"249 47 OFFCURVE",
"249 135 CURVE SMOOTH"
);
},
{
closed = 1;
nodes = (
"160 107 OFFCURVE",
"151 93 OFFCURVE",
"133 93 CURVE SMOOTH",
"112 93 OFFCURVE",
"107 113 OFFCURVE",
"107 134 CURVE SMOOTH",
"107 158 OFFCURVE",
"115 174 OFFCURVE",
"133 174 CURVE SMOOTH",
"153 174 OFFCURVE",
"160 156 OFFCURVE",
"160 134 CURVE SMOOTH"
);
}
);
width = 267;
}
);
unicode = 0D83;
category = Letter;
}
{
glyphname = "vocalicl-sign-sinh";
layers = (
{
layerId = "7977A986-4EFB-4152-84F8-5A02CD382AAF";
paths = (
{
closed = 1;
nodes = (
"358 -11 OFFCURVE",
"452 36 OFFCURVE",
"452 281 CURVE SMOOTH",
"452 504 OFFCURVE",
"371 555 OFFCURVE",
"298 555 CURVE SMOOTH",
"233 555 OFFCURVE",
"193 515 OFFCURVE",
"161 458 CURVE",
"184 438 LINE",
"187 454 LINE",
"217 501 OFFCURVE",
"248 529 OFFCURVE",
"298 529 CURVE SMOOTH",
"359 529 OFFCURVE",
"425 482 OFFCURVE",
"425 280 CURVE SMOOTH",
"425 46 OFFCURVE",
"338 15 OFFCURVE",
"264 15 CURVE SMOOTH",
"227 15 OFFCURVE",
"200 22 OFFCURVE",
"173 33 CURVE",
"168 8 LINE",
"192 -3 OFFCURVE",
"228 -11 OFFCURVE",
"265 -11 CURVE SMOOTH"
);
},
{
closed = 1;
nodes = (
"251 275 OFFCURVE",
"304 309 OFFCURVE",
"304 384 CURVE SMOOTH",
"304 443 OFFCURVE",
"269 470 OFFCURVE",
"226 470 CURVE SMOOTH",
"212 470 OFFCURVE",
"191 467 OFFCURVE",
"175 457 CURVE",
"184 438 LINE",
"195 443 OFFCURVE",
"208 446 OFFCURVE",
"222 446 CURVE SMOOTH",
"256 446 OFFCURVE",
"277 426 OFFCURVE",
"277 384 CURVE SMOOTH",
"277 321 OFFCURVE",
"230 301 OFFCURVE",
"180 301 CURVE SMOOTH",
"97 301 OFFCURVE",
"72 359 OFFCURVE",
"72 419 CURVE SMOOTH",
"72 465 OFFCURVE",
"86 503 OFFCURVE",
"108 545 CURVE",
"83 555 LINE",
"68 526 OFFCURVE",
"45 477 OFFCURVE",
"45 419 CURVE SMOOTH",
"45 336 OFFCURVE",
"89 275 OFFCURVE",
"180 275 CURVE SMOOTH"
);
}
);
width = 505;
},
{
layerId = UUID0;
paths = (
{
closed = 1;
nodes = (
"377 -11 OFFCURVE",
"487 40 OFFCURVE",
"487 278 CURVE SMOOTH",
"487 484 OFFCURVE",
"401 555 OFFCURVE",
"307 555 CURVE SMOOTH",
"237 555 OFFCURVE",
"194 518 OFFCURVE",
"163 461 CURVE",
"208 418 LINE",
"240 463 LINE",
"255 481 OFFCURVE",
"273 490 OFFCURVE",
"299 490 CURVE SMOOTH",
"367 490 OFFCURVE",
"412 422 OFFCURVE",
"412 276 CURVE SMOOTH",
"412 91 OFFCURVE",
"343 58 OFFCURVE",
"262 58 CURVE SMOOTH",
"233 58 OFFCURVE",
"210 62 OFFCURVE",
"183 72 CURVE",
"168 6 LINE",
"198 -6 OFFCURVE",
"239 -11 OFFCURVE",
"272 -11 CURVE SMOOTH"
);
},
{
closed = 1;
nodes = (
"288 258 OFFCURVE",
"329 316 OFFCURVE",
"329 380 CURVE SMOOTH",
"329 440 OFFCURVE",
"292 470 OFFCURVE",
"241 470 CURVE SMOOTH",
"228 470 OFFCURVE",
"213 468 OFFCURVE",
"200 462 CURVE",
"208 418 LINE",
"213 420 OFFCURVE",
"219 422 OFFCURVE",
"228 422 CURVE SMOOTH",
"246 422 OFFCURVE",
"261 408 OFFCURVE",
"261 382 CURVE SMOOTH",
"261 339 OFFCURVE",
"224 322 OFFCURVE",
"185 322 CURVE SMOOTH",
"115 322 OFFCURVE",
"97 372 OFFCURVE",
"97 420 CURVE SMOOTH",
"97 460 OFFCURVE",
"109 498 OFFCURVE",
"129 535 CURVE",
"62 555 LINE",
"46 525 OFFCURVE",
"26 478 OFFCURVE",
"26 419 CURVE SMOOTH",
"26 341 OFFCURVE",
"64 258 OFFCURVE",
"186 258 CURVE SMOOTH"
);
}
);
width = 523;
},
{
layerId = "C62AB4C0-B70D-46F6-9B13-45217A94AFC9";
paths = (
{
closed = 1;
nodes = (
"524 -11 OFFCURVE",
"585 111 OFFCURVE",
"585 277 CURVE SMOOTH",
"585 476 OFFCURVE",
"493 565 OFFCURVE",
"364 565 CURVE SMOOTH",
"286 565 OFFCURVE",
"229 530 OFFCURVE",
"178 474 CURVE",
"241 416 LINE",
"277 440 LINE",
"291 445 OFFCURVE",
"316 448 OFFCURVE",
"331 448 CURVE SMOOTH",
"411 448 OFFCURVE",
"425 363 OFFCURVE",
"425 285 CURVE SMOOTH",
"425 188 OFFCURVE",
"405 122 OFFCURVE",
"314 122 CURVE SMOOTH",
"284 122 OFFCURVE",
"259 128 OFFCURVE",
"236 136 CURVE",
"210 10 LINE",
"238 -2 OFFCURVE",
"285 -11 OFFCURVE",
"337 -11 CURVE SMOOTH"
);
},
{
closed = 1;
nodes = (
"344 243 OFFCURVE",
"386 313 OFFCURVE",
"386 376 CURVE SMOOTH",
"386 442 OFFCURVE",
"339 477 OFFCURVE",
"278 477 CURVE SMOOTH",
"268 477 OFFCURVE",
"260 476 OFFCURVE",
"256 474 CURVE",
"241 416 LINE",
"244 417 OFFCURVE",
"248 418 OFFCURVE",
"251 418 CURVE SMOOTH",
"260 418 OFFCURVE",
"268 412 OFFCURVE",
"268 398 CURVE SMOOTH",
"268 378 OFFCURVE",
"251 365 OFFCURVE",
"220 365 CURVE SMOOTH",
"180 365 OFFCURVE",
"157 386 OFFCURVE",
"157 432 CURVE SMOOTH",
"157 459 OFFCURVE",
"165 490 OFFCURVE",
"184 520 CURVE",
"53 565 LINE",
"35 533 OFFCURVE",
"17 480 OFFCURVE",
"17 423 CURVE SMOOTH",
"17 336 OFFCURVE",
"63 243 OFFCURVE",
"216 243 CURVE SMOOTH"
);
}
);
width = 601;
},
{
layerId = "CF8E177F-0CDC-40C1-8828-F158AA64F32E";
paths = (
{
closed = 1;
nodes = (
"266 -11 OFFCURVE",
"337 25 OFFCURVE",
"337 278 CURVE SMOOTH",
"337 512 OFFCURVE",
"277 555 OFFCURVE",
"221 555 CURVE SMOOTH",
"170 555 OFFCURVE",
"133 516 OFFCURVE",
"108 452 CURVE",
"130 434 LINE",
"134 452 LINE",
"156 499 OFFCURVE",
"184 529 OFFCURVE",
"220 529 CURVE SMOOTH",
"267 529 OFFCURVE",
"310 482 OFFCURVE",
"310 278 CURVE SMOOTH",
"310 53 OFFCURVE",
"259 15 OFFCURVE",
"196 15 CURVE SMOOTH",
"175 15 OFFCURVE",
"155 19 OFFCURVE",
"129 28 CURVE",
"124 3 LINE",
"151 -7 OFFCURVE",
"174 -11 OFFCURVE",
"197 -11 CURVE SMOOTH"
);
},
{
closed = 1;
nodes = (
"183 275 OFFCURVE",
"223 309 OFFCURVE",
"223 383 CURVE SMOOTH",
"223 439 OFFCURVE",
"197 468 OFFCURVE",
"164 468 CURVE SMOOTH",
"148 468 OFFCURVE",
"135 462 OFFCURVE",
"122 453 CURVE",
"130 434 LINE",
"139 441 OFFCURVE",
"148 444 OFFCURVE",
"158 444 CURVE SMOOTH",
"181 444 OFFCURVE",
"197 424 OFFCURVE",
"197 383 CURVE SMOOTH",
"197 321 OFFCURVE",
"165 301 OFFCURVE",
"130 301 CURVE SMOOTH",
"73 301 OFFCURVE",
"54 355 OFFCURVE",
"54 417 CURVE SMOOTH",
"54 465 OFFCURVE",
"66 504 OFFCURVE",
"82 546 CURVE",
"57 554 LINE",
"42 519 OFFCURVE",
"27 469 OFFCURVE",
"27 417 CURVE SMOOTH",
"27 334 OFFCURVE",
"61 275 OFFCURVE",
"129 275 CURVE SMOOTH"
);
}
);
width = 377;
},
{
layerId = "56AEB5FB-BA14-4784-B08F-18006463EEDB";
paths = (
{
closed = 1;
nodes = (
"312 -11 OFFCURVE",
"384 35 OFFCURVE",
"384 275 CURVE SMOOTH",
"384 494 OFFCURVE",
"323 555 OFFCURVE",
"241 555 CURVE SMOOTH",
"177 555 OFFCURVE",
"149 516 OFFCURVE",
"121 448 CURVE",
"166 417 LINE",
"192 464 LINE",
"203 481 OFFCURVE",
"215 493 OFFCURVE",
"236 493 CURVE SMOOTH",
"285 493 OFFCURVE",
"314 434 OFFCURVE",
"314 275 CURVE SMOOTH",
"314 92 OFFCURVE",
"278 55 OFFCURVE",
"211 55 CURVE SMOOTH",
"187 55 OFFCURVE",
"163 60 OFFCURVE",
"146 67 CURVE",
"132 5 LINE",
"156 -6 OFFCURVE",
"190 -11 OFFCURVE",
"220 -11 CURVE SMOOTH"
);
},
{
closed = 1;
nodes = (
"228 261 OFFCURVE",
"259 316 OFFCURVE",
"259 379 CURVE SMOOTH",
"259 438 OFFCURVE",
"232 468 OFFCURVE",
"194 468 CURVE SMOOTH",
"184 468 OFFCURVE",
"174 466 OFFCURVE",
"163 461 CURVE",
"166 417 LINE",
"170 420 OFFCURVE",
"174 422 OFFCURVE",
"178 422 CURVE SMOOTH",
"190 422 OFFCURVE",
"198 408 OFFCURVE",
"198 383 CURVE SMOOTH",
"198 340 OFFCURVE",
"180 321 OFFCURVE",
"149 321 CURVE SMOOTH",
"105 321 OFFCURVE",
"91 360 OFFCURVE",
"91 415 CURVE SMOOTH",
"91 461 OFFCURVE",
"102 496 OFFCURVE",
"119 534 CURVE",
"54 555 LINE",
"38 516 OFFCURVE",
"24 473 OFFCURVE",
"24 417 CURVE SMOOTH",
"24 337 OFFCURVE",
"55 261 OFFCURVE",
"150 261 CURVE SMOOTH"
);
}
);
width = 418;
},
{
layerId = "DC607D84-584B-45E6-A9EB-D1AF471CA2AE";
paths = (
{
closed = 1;
nodes = (
"478 -11 OFFCURVE",
"520 97 OFFCURVE",
"520 268 CURVE SMOOTH",
"520 466 OFFCURVE",
"462 565 OFFCURVE",
"334 565 CURVE SMOOTH",
"268 565 OFFCURVE",
"201 538 OFFCURVE",
"157 459 CURVE",
"215 413 LINE",
"244 443 LINE",
"254 448 OFFCURVE",
"283 452 OFFCURVE",
"298 452 CURVE SMOOTH",
"355 452 OFFCURVE",
"367 396 OFFCURVE",
"367 287 CURVE SMOOTH",
"367 161 OFFCURVE",
"350 116 OFFCURVE",
"284 116 CURVE SMOOTH",
"266 116 OFFCURVE",
"244 119 OFFCURVE",
"225 125 CURVE",
"203 6 LINE",
"235 -4 OFFCURVE",
"276 -11 OFFCURVE",
"317 -11 CURVE SMOOTH"
);
},
{
closed = 1;
nodes = (
"313 245 OFFCURVE",
"341 317 OFFCURVE",
"341 377 CURVE SMOOTH",
"341 445 OFFCURVE",
"303 478 OFFCURVE",
"251 478 CURVE SMOOTH",
"249 478 OFFCURVE",
"245 477 OFFCURVE",
"246 475 CURVE",
"215 413 LINE",
"218 414 OFFCURVE",
"221 415 OFFCURVE",
"224 415 CURVE SMOOTH",
"232 415 OFFCURVE",
"237 407 OFFCURVE",
"237 394 CURVE SMOOTH",
"237 371 OFFCURVE",
"221 359 OFFCURVE",
"197 359 CURVE SMOOTH",
"165 359 OFFCURVE",
"143 381 OFFCURVE",
"143 429 CURVE SMOOTH",
"143 457 OFFCURVE",
"151 496 OFFCURVE",
"167 525 CURVE",
"40 565 LINE",
"21 528 OFFCURVE",
"8 483 OFFCURVE",
"8 431 CURVE SMOOTH",
"8 339 OFFCURVE",
"49 245 OFFCURVE",
"189 245 CURVE SMOOTH"
);
}
);
width = 546;
}
);
leftKerningGroup = "vocalicL-sign-sinh";
rightMetricsKey = "ka-sinh";
unicode = 0DDF;
category = Letter;
subCategory = "Spacing Combining";
}
{
glyphname = "vocalicll-sign-sinh";
layers = (
{
layerId = "7977A986-4EFB-4152-84F8-5A02CD382AAF";
paths = (
{
closed = 1;
nodes = (
"341 -11 OFFCURVE",
"435 35 OFFCURVE",
"435 281 CURVE SMOOTH",
"435 504 OFFCURVE",
"354 555 OFFCURVE",
"281 555 CURVE SMOOTH",
"216 555 OFFCURVE",
"176 515 OFFCURVE",
"144 458 CURVE",
"167 438 LINE",
"170 454 LINE",
"200 501 OFFCURVE",
"231 529 OFFCURVE",
"281 529 CURVE SMOOTH",
"342 529 OFFCURVE",
"408 482 OFFCURVE",
"408 280 CURVE SMOOTH",
"408 184 OFFCURVE",
"393 122 OFFCURVE",
"370 82 CURVE",
"338 25 OFFCURVE",
"286 15 OFFCURVE",
"239 15 CURVE SMOOTH",
"168 15 OFFCURVE",
"114 40 OFFCURVE",
"114 101 CURVE SMOOTH",
"114 154 OFFCURVE",
"153 173 OFFCURVE",
"198 173 CURVE SMOOTH",
"265 173 OFFCURVE",
"312 134 OFFCURVE",
"377 66 CURVE",
"393 85 LINE",
"325 160 OFFCURVE",
"270 199 OFFCURVE",
"198 199 CURVE SMOOTH",
"132 199 OFFCURVE",
"87 164 OFFCURVE",
"87 102 CURVE SMOOTH",
"87 33 OFFCURVE",
"140 -11 OFFCURVE",
"238 -11 CURVE SMOOTH"
);
},
{
closed = 1;
nodes = (
"234 275 OFFCURVE",
"287 309 OFFCURVE",
"287 384 CURVE SMOOTH",
"287 443 OFFCURVE",
"252 470 OFFCURVE",
"209 470 CURVE SMOOTH",
"195 470 OFFCURVE",
"174 467 OFFCURVE",
"158 457 CURVE",
"167 438 LINE",
"178 443 OFFCURVE",
"191 446 OFFCURVE",
"205 446 CURVE SMOOTH",
"239 446 OFFCURVE",
"260 426 OFFCURVE",
"260 384 CURVE SMOOTH",
"260 321 OFFCURVE",
"213 301 OFFCURVE",
"163 301 CURVE SMOOTH",
"80 301 OFFCURVE",
"55 359 OFFCURVE",
"55 419 CURVE SMOOTH",
"55 465 OFFCURVE",
"69 503 OFFCURVE",
"91 545 CURVE",
"66 555 LINE",
"51 526 OFFCURVE",
"28 477 OFFCURVE",
"28 419 CURVE SMOOTH",
"28 336 OFFCURVE",
"72 275 OFFCURVE",
"163 275 CURVE SMOOTH"
);
}
);
width = 480;
},
{
layerId = UUID0;
paths = (
{
closed = 1;
nodes = (
"374 -11 OFFCURVE",
"487 44 OFFCURVE",
"487 279 CURVE SMOOTH",
"487 484 OFFCURVE",
"401 555 OFFCURVE",
"307 555 CURVE SMOOTH",
"237 555 OFFCURVE",
"194 518 OFFCURVE",
"163 461 CURVE",
"208 418 LINE",
"240 463 LINE",
"255 481 OFFCURVE",
"273 490 OFFCURVE",
"299 490 CURVE SMOOTH",
"367 490 OFFCURVE",
"412 421 OFFCURVE",
"412 277 CURVE SMOOTH",
"412 208 OFFCURVE",
"402 157 OFFCURVE",
"384 123 CURVE SMOOTH",
"355 68 OFFCURVE",
"305 56 OFFCURVE",
"256 56 CURVE SMOOTH",
"199 56 OFFCURVE",
"164 73 OFFCURVE",
"164 109 CURVE SMOOTH",
"164 141 OFFCURVE",
"189 154 OFFCURVE",
"221 154 CURVE SMOOTH",
"269 154 OFFCURVE",
"312 125 OFFCURVE",
"356 79 CURVE",
"395 131 LINE",
"341 184 OFFCURVE",
"290 220 OFFCURVE",
"219 220 CURVE SMOOTH",
"133 220 OFFCURVE",
"92 170 OFFCURVE",
"92 108 CURVE SMOOTH",
"92 34 OFFCURVE",
"152 -11 OFFCURVE",
"255 -11 CURVE SMOOTH"
);
},
{
closed = 1;
nodes = (
"288 258 OFFCURVE",
"329 316 OFFCURVE",
"329 380 CURVE SMOOTH",
"329 440 OFFCURVE",
"292 470 OFFCURVE",
"241 470 CURVE SMOOTH",
"228 470 OFFCURVE",
"213 468 OFFCURVE",
"200 462 CURVE",
"208 418 LINE",
"213 420 OFFCURVE",
"219 422 OFFCURVE",
"228 422 CURVE SMOOTH",
"246 422 OFFCURVE",
"261 408 OFFCURVE",
"261 382 CURVE SMOOTH",
"261 339 OFFCURVE",
"224 322 OFFCURVE",
"185 322 CURVE SMOOTH",
"115 322 OFFCURVE",
"97 372 OFFCURVE",
"97 420 CURVE SMOOTH",
"97 460 OFFCURVE",
"109 498 OFFCURVE",
"129 535 CURVE",
"62 555 LINE",
"46 525 OFFCURVE",
"26 478 OFFCURVE",
"26 419 CURVE SMOOTH",
"26 341 OFFCURVE",
"64 258 OFFCURVE",
"186 258 CURVE SMOOTH"
);
}
);
width = 528;
},
{
layerId = "C62AB4C0-B70D-46F6-9B13-45217A94AFC9";
paths = (
{
closed = 1;
nodes = (
"478 -11 OFFCURVE",
"585 85 OFFCURVE",
"585 282 CURVE SMOOTH",
"585 469 OFFCURVE",
"493 565 OFFCURVE",
"363 565 CURVE SMOOTH",
"286 565 OFFCURVE",
"228 529 OFFCURVE",
"178 474 CURVE",
"241 416 LINE",
"277 440 LINE",
"291 445 OFFCURVE",
"316 448 OFFCURVE",
"331 448 CURVE SMOOTH",
"411 448 OFFCURVE",
"428 362 OFFCURVE",
"428 284 CURVE SMOOTH",
"428 223 OFFCURVE",
"418 170 OFFCURVE",
"383 134 CURVE SMOOTH",
"364 114 OFFCURVE",
"339 100 OFFCURVE",
"287 100 CURVE SMOOTH",
"251 100 OFFCURVE",
"237 107 OFFCURVE",
"237 122 CURVE SMOOTH",
"237 133 OFFCURVE",
"244 141 OFFCURVE",
"267 141 CURVE SMOOTH",
"313 141 OFFCURVE",
"352 112 OFFCURVE",
"389 75 CURVE",
"457 145 LINE",
"399 203 OFFCURVE",
"344 244 OFFCURVE",
"254 244 CURVE SMOOTH",
"148 244 OFFCURVE",
"103 190 OFFCURVE",
"103 123 CURVE SMOOTH",
"103 45 OFFCURVE",
"164 -11 OFFCURVE",
"300 -11 CURVE SMOOTH"
);
},
{
closed = 1;
nodes = (
"344 245 OFFCURVE",
"386 313 OFFCURVE",
"386 376 CURVE SMOOTH",
"386 442 OFFCURVE",
"339 477 OFFCURVE",
"278 477 CURVE SMOOTH",
"268 477 OFFCURVE",
"260 476 OFFCURVE",
"256 474 CURVE",
"241 416 LINE",
"244 417 OFFCURVE",
"248 418 OFFCURVE",
"251 418 CURVE SMOOTH",
"260 418 OFFCURVE",
"268 412 OFFCURVE",
"268 398 CURVE SMOOTH",
"268 378 OFFCURVE",
"251 365 OFFCURVE",
"220 365 CURVE SMOOTH",
"180 365 OFFCURVE",
"157 386 OFFCURVE",
"157 432 CURVE SMOOTH",
"157 459 OFFCURVE",
"165 490 OFFCURVE",
"184 520 CURVE",
"53 565 LINE",
"35 533 OFFCURVE",
"17 480 OFFCURVE",
"17 423 CURVE SMOOTH",
"17 336 OFFCURVE",
"63 245 OFFCURVE",
"216 245 CURVE SMOOTH"
);
}
);
width = 617;
},
{
layerId = "CF8E177F-0CDC-40C1-8828-F158AA64F32E";
paths = (
{
closed = 1;
nodes = (
"271 -11 OFFCURVE",
"337 42 OFFCURVE",
"337 279 CURVE SMOOTH",
"337 511 OFFCURVE",
"277 555 OFFCURVE",
"221 555 CURVE SMOOTH",
"170 555 OFFCURVE",
"133 516 OFFCURVE",
"108 452 CURVE",
"130 434 LINE",
"134 452 LINE",
"156 499 OFFCURVE",
"184 529 OFFCURVE",
"220 529 CURVE SMOOTH",
"267 529 OFFCURVE",
"310 480 OFFCURVE",
"310 280 CURVE SMOOTH",
"310 208 OFFCURVE",
"304 153 OFFCURVE",
"292 111 CURVE",
"278 46 OFFCURVE",
"240 15 OFFCURVE",
"187 15 CURVE SMOOTH",
"133 15 OFFCURVE",
"100 45 OFFCURVE",
"100 98 CURVE SMOOTH",
"100 148 OFFCURVE",
"129 173 OFFCURVE",
"169 173 CURVE SMOOTH",
"209 173 OFFCURVE",
"251 145 OFFCURVE",
"296 88 CURVE",
"310 108 LINE",
"270 166 OFFCURVE",
"218 199 OFFCURVE",
"168 199 CURVE SMOOTH",
"112 199 OFFCURVE",
"73 161 OFFCURVE",
"73 98 CURVE SMOOTH",
"73 33 OFFCURVE",
"115 -11 OFFCURVE",
"188 -11 CURVE SMOOTH"
);
},
{
closed = 1;
nodes = (
"183 275 OFFCURVE",
"223 309 OFFCURVE",
"223 383 CURVE SMOOTH",
"223 439 OFFCURVE",
"197 468 OFFCURVE",
"164 468 CURVE SMOOTH",
"148 468 OFFCURVE",
"135 462 OFFCURVE",
"122 453 CURVE",
"130 434 LINE",
"139 441 OFFCURVE",
"148 444 OFFCURVE",
"158 444 CURVE SMOOTH",
"181 444 OFFCURVE",
"197 424 OFFCURVE",
"197 383 CURVE SMOOTH",
"197 321 OFFCURVE",
"165 301 OFFCURVE",
"130 301 CURVE SMOOTH",
"73 301 OFFCURVE",
"54 355 OFFCURVE",
"54 417 CURVE SMOOTH",
"54 465 OFFCURVE",
"66 504 OFFCURVE",
"82 546 CURVE",
"57 554 LINE",
"42 519 OFFCURVE",
"27 469 OFFCURVE",
"27 417 CURVE SMOOTH",
"27 334 OFFCURVE",
"61 275 OFFCURVE",
"129 275 CURVE SMOOTH"
);
}
);
width = 379;
},
{
layerId = "56AEB5FB-BA14-4784-B08F-18006463EEDB";
paths = (
{
closed = 1;
nodes = (
"312 -11 OFFCURVE",
"384 52 OFFCURVE",
"384 279 CURVE SMOOTH",
"384 493 OFFCURVE",
"323 555 OFFCURVE",
"242 555 CURVE SMOOTH",
"177 555 OFFCURVE",
"148 514 OFFCURVE",
"121 448 CURVE",
"166 417 LINE",
"192 464 LINE",
"202 480 OFFCURVE",
"214 493 OFFCURVE",
"236 493 CURVE SMOOTH",
"285 493 OFFCURVE",
"314 434 OFFCURVE",
"314 275 CURVE SMOOTH",
"314 200 OFFCURVE",
"308 138 OFFCURVE",
"290 101 CURVE SMOOTH",
"275 69 OFFCURVE",
"247 53 OFFCURVE",
"208 53 CURVE SMOOTH",
"165 53 OFFCURVE",
"141 70 OFFCURVE",
"141 107 CURVE SMOOTH",
"141 138 OFFCURVE",
"160 154 OFFCURVE",
"189 154 CURVE SMOOTH",
"230 154 OFFCURVE",
"263 125 OFFCURVE",
"295 86 CURVE",
"322 137 LINE",
"283 185 OFFCURVE",
"237 216 OFFCURVE",
"183 216 CURVE SMOOTH",
"112 216 OFFCURVE",
"76 167 OFFCURVE",
"76 105 CURVE SMOOTH",
"76 38 OFFCURVE",
"119 -11 OFFCURVE",
"208 -11 CURVE SMOOTH"
);
},
{
closed = 1;
nodes = (
"228 261 OFFCURVE",
"259 316 OFFCURVE",
"259 379 CURVE SMOOTH",
"259 438 OFFCURVE",
"232 468 OFFCURVE",
"194 468 CURVE SMOOTH",
"184 468 OFFCURVE",
"174 466 OFFCURVE",
"163 461 CURVE",
"166 417 LINE",
"170 420 OFFCURVE",
"174 422 OFFCURVE",
"178 422 CURVE SMOOTH",
"190 422 OFFCURVE",
"198 408 OFFCURVE",
"198 383 CURVE SMOOTH",
"198 340 OFFCURVE",
"180 321 OFFCURVE",
"149 321 CURVE SMOOTH",
"105 321 OFFCURVE",
"91 360 OFFCURVE",
"91 415 CURVE SMOOTH",
"91 461 OFFCURVE",
"102 496 OFFCURVE",
"119 534 CURVE",
"54 555 LINE",
"38 516 OFFCURVE",
"24 473 OFFCURVE",
"24 417 CURVE SMOOTH",
"24 337 OFFCURVE",
"55 261 OFFCURVE",
"150 261 CURVE SMOOTH"
);
}
);
width = 422;
},
{
layerId = "DC607D84-584B-45E6-A9EB-D1AF471CA2AE";
paths = (
{
closed = 1;
nodes = (
"438 -11 OFFCURVE",
"520 89 OFFCURVE",
"520 287 CURVE SMOOTH",
"520 467 OFFCURVE",
"455 565 OFFCURVE",
"332 565 CURVE SMOOTH",
"268 565 OFFCURVE",
"200 537 OFFCURVE",
"157 459 CURVE",
"215 413 LINE",
"244 443 LINE",
"254 448 OFFCURVE",
"283 452 OFFCURVE",
"299 452 CURVE SMOOTH",
"359 452 OFFCURVE",
"372 394 OFFCURVE",
"372 299 CURVE SMOOTH",
"372 236 OFFCURVE",
"366 177 OFFCURVE",
"344 143 CURVE",
"327 115 OFFCURVE",
"297 98 OFFCURVE",
"252 98 CURVE SMOOTH",
"228 98 OFFCURVE",
"211 103 OFFCURVE",
"211 121 CURVE SMOOTH",
"211 133 OFFCURVE",
"219 141 OFFCURVE",
"243 141 CURVE SMOOTH",
"283 141 OFFCURVE",
"318 119 OFFCURVE",
"356 89 CURVE",
"415 159 LINE",
"359 203 OFFCURVE",
"312 242 OFFCURVE",
"224 242 CURVE SMOOTH",
"121 242 OFFCURVE",
"82 185 OFFCURVE",
"82 120 CURVE SMOOTH",
"82 42 OFFCURVE",
"135 -11 OFFCURVE",
"260 -11 CURVE SMOOTH"
);
},
{
closed = 1;
nodes = (
"313 245 OFFCURVE",
"341 317 OFFCURVE",
"341 377 CURVE SMOOTH",
"341 445 OFFCURVE",
"303 478 OFFCURVE",
"251 478 CURVE SMOOTH",
"249 478 OFFCURVE",
"245 477 OFFCURVE",
"246 475 CURVE",
"215 413 LINE",
"218 414 OFFCURVE",
"221 415 OFFCURVE",
"224 415 CURVE SMOOTH",
"232 415 OFFCURVE",
"237 407 OFFCURVE",
"237 394 CURVE SMOOTH",
"237 371 OFFCURVE",
"221 359 OFFCURVE",
"197 359 CURVE SMOOTH",
"165 359 OFFCURVE",
"143 381 OFFCURVE",
"143 429 CURVE SMOOTH",
"143 457 OFFCURVE",
"151 496 OFFCURVE",
"167 525 CURVE",
"40 565 LINE",
"21 528 OFFCURVE",
"8 483 OFFCURVE",
"8 431 CURVE SMOOTH",
"8 339 OFFCURVE",
"49 245 OFFCURVE",
"189 245 CURVE SMOOTH"
);
}
);
width = 549;
}
);
leftKerningGroup = "vocalicL-sign-sinh";
unicode = 0DF3;
category = Letter;
subCategory = "Spacing Combining";
}
{
glyphname = question.sinh;
layers = (
{
layerId = "7977A986-4EFB-4152-84F8-5A02CD382AAF";
paths = (
{
closed = 1;
nodes = (
"155 174 LINE",
"155 186 LINE SMOOTH",
"155 277 OFFCURVE",
"172 311 OFFCURVE",
"228 350 CURVE SMOOTH",
"307 405 OFFCURVE",
"360 454 OFFCURVE",
"360 554 CURVE SMOOTH",
"360 667 OFFCURVE",
"283 724 OFFCURVE",
"171 724 CURVE SMOOTH",
"117 724 OFFCURVE",
"69 711 OFFCURVE",
"24 686 CURVE",
"35 662 LINE",
"76 686 OFFCURVE",
"121 698 OFFCURVE",
"170 698 CURVE SMOOTH",
"264 698 OFFCURVE",
"333 653 OFFCURVE",
"333 553 CURVE SMOOTH",
"333 463 OFFCURVE",
"287 422 OFFCURVE",
"215 371 CURVE SMOOTH",
"146 322 OFFCURVE",
"129 284 OFFCURVE",
"129 186 CURVE SMOOTH",
"129 174 LINE"
);
},
{
closed = 1;
nodes = (
"117 6 OFFCURVE",
"122 -8 OFFCURVE",
"142 -8 CURVE SMOOTH",
"166 -8 OFFCURVE",
"169 6 OFFCURVE",
"169 23 CURVE SMOOTH",
"169 39 OFFCURVE",
"166 54 OFFCURVE",
"142 54 CURVE SMOOTH",
"122 54 OFFCURVE",
"117 39 OFFCURVE",
"117 23 CURVE SMOOTH"
);
}
);
width = 400;
},
{
layerId = UUID0;
paths = (
{
closed = 1;
nodes = (
"218 201 LINE",
"218 218 LINE SMOOTH",
"218 275 OFFCURVE",
"229 298 OFFCURVE",
"297 357 CURVE SMOOTH",
"360 412 OFFCURVE",
"417 451 OFFCURVE",
"417 549 CURVE SMOOTH",
"417 658 OFFCURVE",
"344 724 OFFCURVE",
"214 724 CURVE SMOOTH",
"137 724 OFFCURVE",
"71 702 OFFCURVE",
"21 675 CURVE",
"49 611 LINE",
"96 633 OFFCURVE",
"148 653 OFFCURVE",
"212 653 CURVE SMOOTH",
"294 653 OFFCURVE",
"338 618 OFFCURVE",
"338 548 CURVE SMOOTH",
"338 479 OFFCURVE",
"298 453 OFFCURVE",
"235 398 CURVE SMOOTH",
"164 336 OFFCURVE",
"148 303 OFFCURVE",
"148 228 CURVE SMOOTH",
"148 201 LINE"
);
},
{
closed = 1;
nodes = (
"128 9 OFFCURVE",
"153 -10 OFFCURVE",
"187 -10 CURVE SMOOTH",
"219 -10 OFFCURVE",
"246 9 OFFCURVE",
"246 55 CURVE SMOOTH",
"246 102 OFFCURVE",
"219 119 OFFCURVE",
"187 119 CURVE SMOOTH",
"153 119 OFFCURVE",
"128 102 OFFCURVE",
"128 55 CURVE SMOOTH"
);
}
);
width = 454;
},
{
layerId = "C62AB4C0-B70D-46F6-9B13-45217A94AFC9";
paths = (
{
closed = 1;
nodes = (
"310 250 LINE",
"310 272 LINE SMOOTH",
"310 304 OFFCURVE",
"322 324 OFFCURVE",
"380 360 CURVE SMOOTH",
"459 409 OFFCURVE",
"500 461 OFFCURVE",
"500 541 CURVE SMOOTH",
"500 649 OFFCURVE",
"422 724 OFFCURVE",
"266 724 CURVE SMOOTH",
"171 724 OFFCURVE",
"91 698 OFFCURVE",
"18 656 CURVE",
"84 526 LINE",
"143 556 OFFCURVE",
"194 578 OFFCURVE",
"250 578 CURVE SMOOTH",
"301 578 OFFCURVE",
"323 559 OFFCURVE",
"323 527 CURVE SMOOTH",
"323 497 OFFCURVE",
"303 475 OFFCURVE",
"242 435 CURVE SMOOTH",
"174 391 OFFCURVE",
"160 353 OFFCURVE",
"160 287 CURVE SMOOTH",
"160 250 LINE"
);
},
{
closed = 1;
nodes = (
"139 15 OFFCURVE",
"185 -12 OFFCURVE",
"242 -12 CURVE SMOOTH",
"297 -12 OFFCURVE",
"343 15 OFFCURVE",
"343 81 CURVE SMOOTH",
"343 150 OFFCURVE",
"297 175 OFFCURVE",
"242 175 CURVE SMOOTH",
"185 175 OFFCURVE",
"139 150 OFFCURVE",
"139 81 CURVE SMOOTH"
);
}
);
width = 528;
},
{
layerId = "CF8E177F-0CDC-40C1-8828-F158AA64F32E";
paths = (
{
closed = 1;
nodes = (
"119 170 LINE",
"119 189 LINE SMOOTH",
"119 253 OFFCURVE",
"123 290 OFFCURVE",
"174 367 CURVE SMOOTH",
"208 418 OFFCURVE",
"249 468 OFFCURVE",
"249 566 CURVE SMOOTH",
"249 671 OFFCURVE",
"198 724 OFFCURVE",
"124 724 CURVE SMOOTH",
"83 724 OFFCURVE",
"47 710 OFFCURVE",
"21 697 CURVE",
"32 673 LINE",
"59 687 OFFCURVE",
"91 698 OFFCURVE",
"123 698 CURVE SMOOTH",
"186 698 OFFCURVE",
"222 653 OFFCURVE",
"222 566 CURVE SMOOTH",
"222 478 OFFCURVE",
"186 434 OFFCURVE",
"150 380 CURVE SMOOTH",
"102 308 OFFCURVE",
"93 274 OFFCURVE",
"93 190 CURVE SMOOTH",
"93 170 LINE"
);
},
{
closed = 1;
nodes = (
"81 5 OFFCURVE",
"86 -8 OFFCURVE",
"107 -8 CURVE SMOOTH",
"129 -8 OFFCURVE",
"133 5 OFFCURVE",
"133 23 CURVE SMOOTH",
"133 40 OFFCURVE",
"129 54 OFFCURVE",
"107 54 CURVE SMOOTH",
"86 54 OFFCURVE",
"81 40 OFFCURVE",
"81 23 CURVE SMOOTH"
);
}
);
width = 284;
},
{
layerId = "56AEB5FB-BA14-4784-B08F-18006463EEDB";
paths = (
{
closed = 1;
nodes = (
"172 201 LINE",
"172 221 LINE SMOOTH",
"172 280 OFFCURVE",
"184 306 OFFCURVE",
"223 359 CURVE SMOOTH",
"263 413 OFFCURVE",
"306 462 OFFCURVE",
"306 558 CURVE SMOOTH",
"306 663 OFFCURVE",
"252 724 OFFCURVE",
"154 724 CURVE SMOOTH",
"103 724 OFFCURVE",
"60 708 OFFCURVE",
"21 687 CURVE",
"52 624 LINE",
"80 639 OFFCURVE",
"110 652 OFFCURVE",
"145 652 CURVE SMOOTH",
"201 652 OFFCURVE",
"228 618 OFFCURVE",
"228 554 CURVE SMOOTH",
"228 479 OFFCURVE",
"191 437 OFFCURVE",
"159 393 CURVE SMOOTH",
"124 345 OFFCURVE",
"107 311 OFFCURVE",
"107 230 CURVE SMOOTH",
"107 201 LINE"
);
},
{
closed = 1;
nodes = (
"87 13 OFFCURVE",
"107 -9 OFFCURVE",
"141 -9 CURVE SMOOTH",
"173 -9 OFFCURVE",
"195 11 OFFCURVE",
"195 55 CURVE SMOOTH",
"195 100 OFFCURVE",
"174 119 OFFCURVE",
"141 119 CURVE SMOOTH",
"106 119 OFFCURVE",
"87 97 OFFCURVE",
"87 55 CURVE SMOOTH"
);
}
);
width = 341;
},
{
layerId = "DC607D84-584B-45E6-A9EB-D1AF471CA2AE";
paths = (
{
closed = 1;
nodes = (
"251 253 LINE",
"251 263 LINE SMOOTH",
"251 290 OFFCURVE",
"257 311 OFFCURVE",
"294 345 CURVE SMOOTH",
"362 408 OFFCURVE",
"396 468 OFFCURVE",
"396 546 CURVE SMOOTH",
"396 656 OFFCURVE",
"327 724 OFFCURVE",
"198 724 CURVE SMOOTH",
"135 724 OFFCURVE",
"81 707 OFFCURVE",
"18 673 CURVE",
"78 550 LINE",
"107 566 OFFCURVE",
"143 579 OFFCURVE",
"175 579 CURVE SMOOTH",
"213 579 OFFCURVE",
"237 561 OFFCURVE",
"237 525 CURVE SMOOTH",
"237 482 OFFCURVE",
"205 455 OFFCURVE",
"178 428 CURVE SMOOTH",
"131 382 OFFCURVE",
"114 348 OFFCURVE",
"114 276 CURVE SMOOTH",
"114 253 LINE"
);
},
{
closed = 1;
nodes = (
"90 22 OFFCURVE",
"126 -12 OFFCURVE",
"183 -12 CURVE SMOOTH",
"241 -12 OFFCURVE",
"274 22 OFFCURVE",
"274 81 CURVE SMOOTH",
"274 141 OFFCURVE",
"242 176 OFFCURVE",
"183 176 CURVE SMOOTH",
"123 176 OFFCURVE",
"90 141 OFFCURVE",
"90 81 CURVE SMOOTH"
);
}
);
width = 422;
}
);
unicode = 003F;
}
{
glyphname = asciitilde.sinh;
layers = (
{
layerId = "7977A986-4EFB-4152-84F8-5A02CD382AAF";
paths = (
{
closed = 1;
nodes = (
"320 321 OFFCURVE",
"357 308 OFFCURVE",
"401 308 CURVE SMOOTH",
"445 308 OFFCURVE",
"486 327 OFFCURVE",
"516 356 CURVE",
"516 388 LINE",
"478 349 OFFCURVE",
"440 334 OFFCURVE",
"401 334 CURVE SMOOTH",
"361 334 OFFCURVE",
"328 347 OFFCURVE",
"292 365 CURVE SMOOTH",
"252 385 OFFCURVE",
"215 398 OFFCURVE",
"171 398 CURVE SMOOTH",
"127 398 OFFCURVE",
"86 379 OFFCURVE",
"56 350 CURVE",
"56 318 LINE",
"94 357 OFFCURVE",
"132 372 OFFCURVE",
"171 372 CURVE SMOOTH",
"211 372 OFFCURVE",
"244 359 OFFCURVE",
"280 341 CURVE SMOOTH"
);
}
);
width = 572;
},
{
layerId = UUID0;
paths = (
{
closed = 1;
nodes = (
"323 297 OFFCURVE",
"352 287 OFFCURVE",
"395 287 CURVE SMOOTH",
"449 287 OFFCURVE",
"488 305 OFFCURVE",
"521 341 CURVE",
"521 418 LINE",
"487 383 OFFCURVE",
"445 359 OFFCURVE",
"401 359 CURVE SMOOTH",
"361 359 OFFCURVE",
"320 379 OFFCURVE",
"302 386 CURVE SMOOTH",
"263 402 OFFCURVE",
"224 418 OFFCURVE",
"173 418 CURVE SMOOTH",
"122 418 OFFCURVE",
"83 401 OFFCURVE",
"50 365 CURVE",
"50 287 LINE",
"87 324 OFFCURVE",
"127 346 OFFCURVE",
"169 346 CURVE SMOOTH",
"209 346 OFFCURVE",
"252 326 OFFCURVE",
"269 319 CURVE SMOOTH"
);
}
);
width = 572;
},
{
layerId = "C62AB4C0-B70D-46F6-9B13-45217A94AFC9";
paths = (
{
closed = 1;
nodes = (
"309 273 OFFCURVE",
"345 258 OFFCURVE",
"400 258 CURVE SMOOTH",
"457 258 OFFCURVE",
"498 275 OFFCURVE",
"533 311 CURVE",
"533 448 LINE",
"493 410 OFFCURVE",
"457 389 OFFCURVE",
"415 389 CURVE SMOOTH",
"372 389 OFFCURVE",
"317 411 OFFCURVE",
"304 416 CURVE SMOOTH",
"245 438 OFFCURVE",
"219 447 OFFCURVE",
"173 447 CURVE SMOOTH",
"113 447 OFFCURVE",
"73 430 OFFCURVE",
"38 394 CURVE",
"38 257 LINE",
"78 295 OFFCURVE",
"113 316 OFFCURVE",
"158 316 CURVE SMOOTH",
"197 316 OFFCURVE",
"240 300 OFFCURVE",
"268 289 CURVE SMOOTH"
);
}
);
width = 572;
},
{
layerId = "CF8E177F-0CDC-40C1-8828-F158AA64F32E";
paths = (
{
closed = 1;
nodes = (
"231 322 OFFCURVE",
"253 312 OFFCURVE",
"282 312 CURVE SMOOTH",
"320 312 OFFCURVE",
"347 329 OFFCURVE",
"369 354 CURVE",
"369 387 LINE",
"338 351 OFFCURVE",
"316 338 OFFCURVE",
"284 338 CURVE SMOOTH",
"251 338 OFFCURVE",
"233 351 OFFCURVE",
"208 366 CURVE SMOOTH",
"178 384 OFFCURVE",
"154 395 OFFCURVE",
"124 395 CURVE SMOOTH",
"84 395 OFFCURVE",
"55 374 OFFCURVE",
"30 350 CURVE",
"30 317 LINE",
"63 352 OFFCURVE",
"89 369 OFFCURVE",
"124 369 CURVE SMOOTH",
"154 369 OFFCURVE",
"172 357 OFFCURVE",
"197 342 CURVE SMOOTH"
);
}
);
width = 399;
},
{
layerId = "56AEB5FB-BA14-4784-B08F-18006463EEDB";
paths = (
{
closed = 1;
nodes = (
"227 309 OFFCURVE",
"257 291 OFFCURVE",
"302 291 CURVE SMOOTH",
"343 291 OFFCURVE",
"374 307 OFFCURVE",
"402 340 CURVE",
"402 417 LINE",
"373 381 OFFCURVE",
"340 359 OFFCURVE",
"306 359 CURVE SMOOTH",
"277 359 OFFCURVE",
"247 375 OFFCURVE",
"225 386 CURVE SMOOTH",
"190 404 OFFCURVE",
"162 416 OFFCURVE",
"127 416 CURVE SMOOTH",
"87 416 OFFCURVE",
"56 399 OFFCURVE",
"29 365 CURVE",
"29 288 LINE",
"60 326 OFFCURVE",
"93 347 OFFCURVE",
"123 347 CURVE SMOOTH",
"146 347 OFFCURVE",
"176 336 OFFCURVE",
"206 320 CURVE SMOOTH"
);
}
);
width = 429;
},
{
layerId = "DC607D84-584B-45E6-A9EB-D1AF471CA2AE";
paths = (
{
closed = 1;
nodes = (
"269 274 OFFCURVE",
"304 259 OFFCURVE",
"349 259 CURVE SMOOTH",
"395 259 OFFCURVE",
"430 276 OFFCURVE",
"462 312 CURVE",
"462 447 LINE",
"428 409 OFFCURVE",
"393 388 OFFCURVE",
"354 388 CURVE SMOOTH",
"319 388 OFFCURVE",
"283 405 OFFCURVE",
"264 414 CURVE SMOOTH",
"240 425 OFFCURVE",
"197 446 OFFCURVE",
"146 446 CURVE SMOOTH",
"101 446 OFFCURVE",
"66 429 OFFCURVE",
"34 393 CURVE",
"34 258 LINE",
"68 296 OFFCURVE",
"103 317 OFFCURVE",
"142 317 CURVE SMOOTH",
"177 317 OFFCURVE",
"209 301 OFFCURVE",
"231 291 CURVE SMOOTH"
);
}
);
width = 496;
}
);
unicode = 007E;
}
{
glyphname = two.sinh;
layers = (
{
layerId = "7977A986-4EFB-4152-84F8-5A02CD382AAF";
paths = (
{
closed = 1;
nodes = (
"491 26 LINE",
"98 26 LINE",
"98 27 LINE",
"305 246 LINE SMOOTH",
"402 348 OFFCURVE",
"459 419 OFFCURVE",
"459 539 CURVE SMOOTH",
"459 652 OFFCURVE",
"385 724 OFFCURVE",
"270 724 CURVE SMOOTH",
"208 724 OFFCURVE",
"141 705 OFFCURVE",
"80 655 CURVE",
"95 634 LINE",
"148 677 OFFCURVE",
"211 698 OFFCURVE",
"268 698 CURVE SMOOTH",
"370 698 OFFCURVE",
"432 638 OFFCURVE",
"432 538 CURVE SMOOTH",
"432 428 OFFCURVE",
"380 362 OFFCURVE",
"283 260 CURVE SMOOTH",
"59 23 LINE",
"59 0 LINE",
"491 0 LINE"
);
}
);
width = 572;
},
{
layerId = UUID0;
paths = (
{
closed = 1;
nodes = (
"520 74 LINE",
"159 74 LINE",
"159 78 LINE",
"308 227 LINE SMOOTH",
"419 338 OFFCURVE",
"491 419 OFFCURVE",
"491 531 CURVE SMOOTH",
"491 651 OFFCURVE",
"408 724 OFFCURVE",
"275 724 CURVE SMOOTH",
"184 724 OFFCURVE",
"112 687 OFFCURVE",
"56 640 CURVE",
"99 587 LINE",
"152 628 OFFCURVE",
"205 655 OFFCURVE",
"273 655 CURVE SMOOTH",
"357 655 OFFCURVE",
"407 612 OFFCURVE",
"407 529 CURVE SMOOTH",
"407 434 OFFCURVE",
"346 371 OFFCURVE",
"238 261 CURVE SMOOTH",
"48 68 LINE",
"48 0 LINE",
"520 0 LINE"
);
}
);
width = 572;
},
{
layerId = "C62AB4C0-B70D-46F6-9B13-45217A94AFC9";
paths = (
{
closed = 1;
nodes = (
"533 153 LINE",
"271 153 LINE",
"271 158 LINE",
"331 216 LINE SMOOTH",
"450 331 OFFCURVE",
"521 405 OFFCURVE",
"521 520 CURVE SMOOTH",
"521 641 OFFCURVE",
"437 724 OFFCURVE",
"287 724 CURVE SMOOTH",
"168 724 OFFCURVE",
"91 675 OFFCURVE",
"19 613 CURVE",
"120 494 LINE",
"169 539 OFFCURVE",
"216 569 OFFCURVE",
"266 569 CURVE SMOOTH",
"307 569 OFFCURVE",
"337 547 OFFCURVE",
"337 501 CURVE SMOOTH",
"337 449 OFFCURVE",
"304 411 OFFCURVE",
"218 322 CURVE SMOOTH",
"28 127 LINE",
"28 0 LINE",
"533 0 LINE"
);
}
);
width = 572;
},
{
layerId = "CF8E177F-0CDC-40C1-8828-F158AA64F32E";
paths = (
{
closed = 1;
nodes = (
"346 26 LINE",
"72 26 LINE",
"72 27 LINE",
"210 239 LINE SMOOTH",
"276 341 OFFCURVE",
"332 429 OFFCURVE",
"332 540 CURVE SMOOTH",
"332 662 OFFCURVE",
"261 724 OFFCURVE",
"171 724 CURVE SMOOTH",
"119 724 OFFCURVE",
"74 704 OFFCURVE",
"39 681 CURVE",
"54 659 LINE",
"83 678 OFFCURVE",
"119 698 OFFCURVE",
"169 698 CURVE SMOOTH",
"242 698 OFFCURVE",
"305 652 OFFCURVE",
"305 540 CURVE SMOOTH",
"305 439 OFFCURVE",
"256 359 OFFCURVE",
"188 254 CURVE SMOOTH",
"37 21 LINE",
"37 0 LINE",
"347 0 LINE"
);
}
);
width = 399;
},
{
layerId = "56AEB5FB-BA14-4784-B08F-18006463EEDB";
paths = (
{
closed = 1;
nodes = (
"381 67 LINE",
"120 67 LINE",
"120 70 LINE",
"235 233 LINE SMOOTH",
"314 345 OFFCURVE",
"367 436 OFFCURVE",
"367 541 CURVE SMOOTH",
"367 651 OFFCURVE",
"303 724 OFFCURVE",
"196 724 CURVE SMOOTH",
"133 724 OFFCURVE",
"84 700 OFFCURVE",
"37 667 CURVE",
"73 612 LINE",
"112 640 OFFCURVE",
"149 656 OFFCURVE",
"189 656 CURVE SMOOTH",
"254 656 OFFCURVE",
"290 615 OFFCURVE",
"290 537 CURVE SMOOTH",
"290 435 OFFCURVE",
"230 347 OFFCURVE",
"172 262 CURVE SMOOTH",
"32 57 LINE",
"32 0 LINE",
"381 0 LINE"
);
}
);
width = 429;
},
{
layerId = "DC607D84-584B-45E6-A9EB-D1AF471CA2AE";
paths = (
{
closed = 1;
nodes = (
"458 147 LINE",
"232 147 LINE",
"232 150 LINE",
"301 235 LINE SMOOTH",
"409 368 OFFCURVE",
"446 438 OFFCURVE",
"446 522 CURVE SMOOTH",
"446 648 OFFCURVE",
"361 724 OFFCURVE",
"235 724 CURVE SMOOTH",
"154 724 OFFCURVE",
"87 691 OFFCURVE",
"24 649 CURVE",
"96 526 LINE",
"138 555 OFFCURVE",
"176 573 OFFCURVE",
"217 573 CURVE SMOOTH",
"256 573 OFFCURVE",
"277 555 OFFCURVE",
"277 510 CURVE SMOOTH",
"277 460 OFFCURVE",
"252 416 OFFCURVE",
"180 323 CURVE SMOOTH",
"20 116 LINE",
"20 0 LINE",
"458 0 LINE"
);
}
);
width = 496;
}
);
unicode = 0032;
}
{
glyphname = three.sinh;
layers = (
{
layerId = "7977A986-4EFB-4152-84F8-5A02CD382AAF";
paths = (
{
closed = 1;
nodes = (
"469 665 OFFCURVE",
"387 724 OFFCURVE",
"263 724 CURVE SMOOTH",
"178 724 OFFCURVE",
"110 693 OFFCURVE",
"54 650 CURVE",
"68 628 LINE",
"122 670 OFFCURVE",
"188 698 OFFCURVE",
"262 698 CURVE SMOOTH",
"369 698 OFFCURVE",
"442 651 OFFCURVE",
"442 550 CURVE SMOOTH",
"442 435 OFFCURVE",
"344 385 OFFCURVE",
"238 385 CURVE SMOOTH",
"155 385 LINE",
"155 359 LINE",
"238 359 LINE SMOOTH",
"371 359 OFFCURVE",
"464 314 OFFCURVE",
"464 193 CURVE SMOOTH",
"464 85 OFFCURVE",
"390 16 OFFCURVE",
"246 16 CURVE SMOOTH",
"172 16 OFFCURVE",
"96 36 OFFCURVE",
"46 61 CURVE",
"46 32 LINE",
"97 8 OFFCURVE",
"164 -10 OFFCURVE",
"246 -10 CURVE SMOOTH",
"406 -10 OFFCURVE",
"491 72 OFFCURVE",
"491 194 CURVE SMOOTH",
"491 300 OFFCURVE",
"428 358 OFFCURVE",
"317 373 CURVE",
"317 375 LINE",
"404 390 OFFCURVE",
"469 457 OFFCURVE",
"469 551 CURVE SMOOTH"
);
}
);
width = 572;
},
{
layerId = UUID0;
paths = (
{
closed = 1;
nodes = (
"493 649 OFFCURVE",
"421 724 OFFCURVE",
"273 724 CURVE SMOOTH",
"176 724 OFFCURVE",
"100 690 OFFCURVE",
"49 650 CURVE",
"88 595 LINE",
"137 627 OFFCURVE",
"195 655 OFFCURVE",
"271 655 CURVE SMOOTH",
"360 655 OFFCURVE",
"409 614 OFFCURVE",
"409 543 CURVE SMOOTH",
"409 459 OFFCURVE",
"345 403 OFFCURVE",
"226 403 CURVE SMOOTH",
"154 403 LINE",
"154 334 LINE",
"225 334 LINE SMOOTH",
"356 334 OFFCURVE",
"429 296 OFFCURVE",
"429 201 CURVE SMOOTH",
"429 114 OFFCURVE",
"372 60 OFFCURVE",
"248 60 CURVE SMOOTH",
"180 60 OFFCURVE",
"105 77 OFFCURVE",
"45 106 CURVE",
"45 29 LINE",
"102 1 OFFCURVE",
"166 -10 OFFCURVE",
"236 -10 CURVE SMOOTH",
"430 -10 OFFCURVE",
"515 77 OFFCURVE",
"515 200 CURVE SMOOTH",
"515 297 OFFCURVE",
"459 359 OFFCURVE",
"345 372 CURVE",
"345 376 LINE",
"435 394 OFFCURVE",
"493 451 OFFCURVE",
"493 546 CURVE SMOOTH"
);
}
);
width = 572;
},
{
layerId = "C62AB4C0-B70D-46F6-9B13-45217A94AFC9";
paths = (
{
closed = 1;
nodes = (
"512 656 OFFCURVE",
"421 724 OFFCURVE",
"273 724 CURVE SMOOTH",
"171 724 OFFCURVE",
"98 694 OFFCURVE",
"30 652 CURVE",
"105 532 LINE",
"147 558 OFFCURVE",
"195 578 OFFCURVE",
"248 578 CURVE SMOOTH",
"300 578 OFFCURVE",
"333 557 OFFCURVE",
"333 514 CURVE SMOOTH",
"333 467 OFFCURVE",
"296 434 OFFCURVE",
"190 434 CURVE SMOOTH",
"145 434 LINE",
"145 297 LINE",
"194 297 LINE SMOOTH",
"309 297 OFFCURVE",
"341 266 OFFCURVE",
"341 216 CURVE SMOOTH",
"341 163 OFFCURVE",
"304 135 OFFCURVE",
"218 135 CURVE SMOOTH",
"156 135 OFFCURVE",
"90 149 OFFCURVE",
"34 178 CURVE",
"34 26 LINE",
"90 4 OFFCURVE",
"154 -11 OFFCURVE",
"236 -11 CURVE SMOOTH",
"439 -11 OFFCURVE",
"527 86 OFFCURVE",
"527 206 CURVE SMOOTH",
"527 305 OFFCURVE",
"466 356 OFFCURVE",
"366 373 CURVE",
"366 376 LINE",
"447 399 OFFCURVE",
"512 451 OFFCURVE",
"512 543 CURVE SMOOTH"
);
}
);
width = 572;
},
{
layerId = "CF8E177F-0CDC-40C1-8828-F158AA64F32E";
paths = (
{
closed = 1;
nodes = (
"325 663 OFFCURVE",
"265 724 OFFCURVE",
"171 724 CURVE SMOOTH",
"119 724 OFFCURVE",
"71 706 OFFCURVE",
"21 670 CURVE",
"35 648 LINE",
"75 676 OFFCURVE",
"117 698 OFFCURVE",
"171 698 CURVE SMOOTH",
"249 698 OFFCURVE",
"298 649 OFFCURVE",
"298 556 CURVE SMOOTH",
"298 454 OFFCURVE",
"235 383 OFFCURVE",
"135 383 CURVE SMOOTH",
"94 383 LINE",
"94 357 LINE",
"129 357 LINE SMOOTH",
"232 357 OFFCURVE",
"307 313 OFFCURVE",
"307 185 CURVE SMOOTH",
"307 74 OFFCURVE",
"253 16 OFFCURVE",
"147 16 CURVE SMOOTH",
"97 16 OFFCURVE",
"50 29 OFFCURVE",
"22 41 CURVE",
"22 13 LINE",
"64 -4 OFFCURVE",
"118 -10 OFFCURVE",
"152 -10 CURVE SMOOTH",
"273 -10 OFFCURVE",
"334 67 OFFCURVE",
"334 188 CURVE SMOOTH",
"334 297 OFFCURVE",
"281 354 OFFCURVE",
"201 369 CURVE",
"201 371 LINE",
"264 393 OFFCURVE",
"325 446 OFFCURVE",
"325 556 CURVE SMOOTH"
);
}
);
width = 399;
},
{
layerId = "56AEB5FB-BA14-4784-B08F-18006463EEDB";
paths = (
{
closed = 1;
nodes = (
"364 657 OFFCURVE",
"301 724 OFFCURVE",
"194 724 CURVE SMOOTH",
"128 724 OFFCURVE",
"76 700 OFFCURVE",
"30 668 CURVE",
"66 612 LINE",
"100 634 OFFCURVE",
"137 656 OFFCURVE",
"186 656 CURVE SMOOTH",
"254 656 OFFCURVE",
"288 611 OFFCURVE",
"288 541 CURVE SMOOTH",
"288 460 OFFCURVE",
"239 402 OFFCURVE",
"147 402 CURVE SMOOTH",
"108 402 LINE",
"108 335 LINE",
"144 335 LINE SMOOTH",
"251 335 OFFCURVE",
"300 287 OFFCURVE",
"300 195 CURVE SMOOTH",
"300 115 OFFCURVE",
"265 58 OFFCURVE",
"162 58 CURVE SMOOTH",
"115 58 OFFCURVE",
"71 70 OFFCURVE",
"33 86 CURVE",
"33 12 LINE",
"70 -3 OFFCURVE",
"124 -10 OFFCURVE",
"166 -10 CURVE SMOOTH",
"307 -10 OFFCURVE",
"376 69 OFFCURVE",
"376 192 CURVE SMOOTH",
"376 291 OFFCURVE",
"329 354 OFFCURVE",
"243 371 CURVE",
"243 375 LINE",
"324 404 OFFCURVE",
"364 466 OFFCURVE",
"364 550 CURVE SMOOTH"
);
}
);
width = 429;
},
{
layerId = "DC607D84-584B-45E6-A9EB-D1AF471CA2AE";
paths = (
{
closed = 1;
nodes = (
"442 661 OFFCURVE",
"360 724 OFFCURVE",
"231 724 CURVE SMOOTH",
"158 724 OFFCURVE",
"96 705 OFFCURVE",
"30 662 CURVE",
"102 546 LINE",
"141 569 OFFCURVE",
"173 579 OFFCURVE",
"205 579 CURVE SMOOTH",
"250 579 OFFCURVE",
"276 558 OFFCURVE",
"276 516 CURVE SMOOTH",
"276 463 OFFCURVE",
"236 435 OFFCURVE",
"164 435 CURVE SMOOTH",
"115 435 LINE",
"115 296 LINE",
"160 296 LINE SMOOTH",
"245 296 OFFCURVE",
"286 271 OFFCURVE",
"286 213 CURVE SMOOTH",
"286 158 OFFCURVE",
"250 135 OFFCURVE",
"183 135 CURVE SMOOTH",
"133 135 OFFCURVE",
"85 147 OFFCURVE",
"30 170 CURVE",
"30 21 LINE",
"78 0 OFFCURVE",
"144 -10 OFFCURVE",
"203 -10 CURVE SMOOTH",
"365 -10 OFFCURVE",
"454 69 OFFCURVE",
"454 200 CURVE SMOOTH",
"454 297 OFFCURVE",
"403 354 OFFCURVE",
"315 373 CURVE",
"315 376 LINE",
"394 405 OFFCURVE",
"442 469 OFFCURVE",
"442 551 CURVE SMOOTH"
);
}
);
width = 496;
}
);
unicode = 0033;
}
{
glyphname = six.sinh;
layers = (
{
layerId = "7977A986-4EFB-4152-84F8-5A02CD382AAF";
paths = (
{
closed = 1;
nodes = (
"71 147 OFFCURVE",
"130 -10 OFFCURVE",
"302 -10 CURVE SMOOTH",
"438 -10 OFFCURVE",
"516 86 OFFCURVE",
"516 225 CURVE SMOOTH",
"516 355 OFFCURVE",
"441 440 OFFCURVE",
"309 440 CURVE SMOOTH",
"194 440 OFFCURVE",
"125 379 OFFCURVE",
"100 324 CURVE",
"98 324 LINE",
"102 604 OFFCURVE",
"221 700 OFFCURVE",
"370 700 CURVE SMOOTH",
"410 700 OFFCURVE",
"444 694 OFFCURVE",
"468 685 CURVE",
"468 713 LINE",
"441 721 OFFCURVE",
"410 726 OFFCURVE",
"370 726 CURVE SMOOTH",
"199 726 OFFCURVE",
"71 608 OFFCURVE",
"71 303 CURVE SMOOTH"
);
},
{
closed = 1;
nodes = (
"140 16 OFFCURVE",
"102 179 OFFCURVE",
"102 258 CURVE SMOOTH",
"102 325 OFFCURVE",
"179 414 OFFCURVE",
"307 414 CURVE SMOOTH",
"426 414 OFFCURVE",
"489 341 OFFCURVE",
"489 224 CURVE SMOOTH",
"489 95 OFFCURVE",
"423 16 OFFCURVE",
"302 16 CURVE SMOOTH"
);
}
);
width = 572;
},
{
layerId = UUID0;
paths = (
{
closed = 1;
nodes = (
"55 91 OFFCURVE",
"155 -10 OFFCURVE",
"298 -10 CURVE SMOOTH",
"437 -10 OFFCURVE",
"525 82 OFFCURVE",
"525 228 CURVE SMOOTH",
"525 368 OFFCURVE",
"440 447 OFFCURVE",
"314 447 CURVE SMOOTH",
"228 447 OFFCURVE",
"174 410 OFFCURVE",
"143 363 CURVE",
"137 363 LINE",
"144 521 OFFCURVE",
"194 655 OFFCURVE",
"382 655 CURVE SMOOTH",
"413 655 OFFCURVE",
"445 651 OFFCURVE",
"470 643 CURVE",
"470 715 LINE",
"448 721 OFFCURVE",
"410 724 OFFCURVE",
"380 724 CURVE SMOOTH",
"119 724 OFFCURVE",
"55 510 OFFCURVE",
"55 322 CURVE SMOOTH"
);
},
{
closed = 1;
nodes = (
"192 60 OFFCURVE",
"138 160 OFFCURVE",
"138 234 CURVE SMOOTH",
"138 315 OFFCURVE",
"203 378 OFFCURVE",
"300 378 CURVE SMOOTH",
"396 378 OFFCURVE",
"444 321 OFFCURVE",
"444 226 CURVE SMOOTH",
"444 117 OFFCURVE",
"384 60 OFFCURVE",
"300 60 CURVE SMOOTH"
);
}
);
width = 572;
},
{
layerId = "C62AB4C0-B70D-46F6-9B13-45217A94AFC9";
paths = (
{
closed = 1;
nodes = (
"31 88 OFFCURVE",
"136 -10 OFFCURVE",
"292 -10 CURVE SMOOTH",
"447 -10 OFFCURVE",
"543 84 OFFCURVE",
"543 245 CURVE SMOOTH",
"543 391 OFFCURVE",
"469 476 OFFCURVE",
"350 476 CURVE SMOOTH",
"274 476 OFFCURVE",
"232 440 OFFCURVE",
"207 393 CURVE",
"201 393 LINE",
"205 511 OFFCURVE",
"256 578 OFFCURVE",
"401 578 CURVE SMOOTH",
"432 578 OFFCURVE",
"465 575 OFFCURVE",
"498 569 CURVE",
"498 716 LINE",
"463 722 OFFCURVE",
"432 724 OFFCURVE",
"402 724 CURVE SMOOTH",
"89 724 OFFCURVE",
"31 507 OFFCURVE",
"31 327 CURVE SMOOTH"
);
},
{
closed = 1;
nodes = (
"243 136 OFFCURVE",
"215 187 OFFCURVE",
"215 244 CURVE SMOOTH",
"215 301 OFFCURVE",
"244 334 OFFCURVE",
"293 334 CURVE SMOOTH",
"343 334 OFFCURVE",
"364 301 OFFCURVE",
"364 239 CURVE SMOOTH",
"364 169 OFFCURVE",
"335 136 OFFCURVE",
"294 136 CURVE SMOOTH"
);
}
);
width = 572;
},
{
layerId = "CF8E177F-0CDC-40C1-8828-F158AA64F32E";
paths = (
{
closed = 1;
nodes = (
"52 93 OFFCURVE",
"96 -10 OFFCURVE",
"204 -10 CURVE SMOOTH",
"298 -10 OFFCURVE",
"353 72 OFFCURVE",
"353 221 CURVE SMOOTH",
"353 358 OFFCURVE",
"309 440 OFFCURVE",
"209 440 CURVE SMOOTH",
"129 440 OFFCURVE",
"93 382 OFFCURVE",
"79 338 CURVE",
"78 338 LINE",
"82 571 OFFCURVE",
"141 698 OFFCURVE",
"266 698 CURVE SMOOTH",
"282 698 OFFCURVE",
"307 696 OFFCURVE",
"327 691 CURVE",
"327 717 LINE",
"306 722 OFFCURVE",
"285 724 OFFCURVE",
"266 724 CURVE SMOOTH",
"145 724 OFFCURVE",
"52 627 OFFCURVE",
"52 311 CURVE SMOOTH"
);
},
{
closed = 1;
nodes = (
"100 16 OFFCURVE",
"81 159 OFFCURVE",
"81 233 CURVE SMOOTH",
"81 348 OFFCURVE",
"127 414 OFFCURVE",
"208 414 CURVE SMOOTH",
"296 414 OFFCURVE",
"326 336 OFFCURVE",
"326 223 CURVE SMOOTH",
"326 89 OFFCURVE",
"284 16 OFFCURVE",
"206 16 CURVE SMOOTH"
);
}
);
width = 399;
},
{
layerId = "56AEB5FB-BA14-4784-B08F-18006463EEDB";
paths = (
{
closed = 1;
nodes = (
"46 102 OFFCURVE",
"104 -10 OFFCURVE",
"222 -10 CURVE SMOOTH",
"335 -10 OFFCURVE",
"390 92 OFFCURVE",
"390 222 CURVE SMOOTH",
"390 349 OFFCURVE",
"341 449 OFFCURVE",
"238 449 CURVE SMOOTH",
"185 449 OFFCURVE",
"145 422 OFFCURVE",
"122 372 CURVE",
"118 372 LINE",
"126 562 OFFCURVE",
"179 656 OFFCURVE",
"282 656 CURVE SMOOTH",
"306 656 OFFCURVE",
"335 651 OFFCURVE",
"353 645 CURVE",
"353 714 LINE",
"332 720 OFFCURVE",
"307 724 OFFCURVE",
"280 724 CURVE SMOOTH",
"117 724 OFFCURVE",
"46 569 OFFCURVE",
"46 322 CURVE SMOOTH"
);
},
{
closed = 1;
nodes = (
"152 58 OFFCURVE",
"122 156 OFFCURVE",
"122 238 CURVE SMOOTH",
"122 326 OFFCURVE",
"157 381 OFFCURVE",
"220 381 CURVE SMOOTH",
"283 381 OFFCURVE",
"315 326 OFFCURVE",
"315 222 CURVE SMOOTH",
"315 116 OFFCURVE",
"280 58 OFFCURVE",
"224 58 CURVE SMOOTH"
);
}
);
width = 429;
},
{
layerId = "DC607D84-584B-45E6-A9EB-D1AF471CA2AE";
paths = (
{
closed = 1;
nodes = (
"31 106 OFFCURVE",
"113 -10 OFFCURVE",
"256 -10 CURVE SMOOTH",
"389 -10 OFFCURVE",
"468 88 OFFCURVE",
"468 246 CURVE SMOOTH",
"468 388 OFFCURVE",
"408 476 OFFCURVE",
"308 476 CURVE SMOOTH",
"252 476 OFFCURVE",
"211 447 OFFCURVE",
"189 393 CURVE",
"185 393 LINE",
"188 526 OFFCURVE",
"241 579 OFFCURVE",
"350 579 CURVE SMOOTH",
"376 579 OFFCURVE",
"405 576 OFFCURVE",
"432 570 CURVE",
"432 716 LINE",
"398 721 OFFCURVE",
"363 724 OFFCURVE",
"333 724 CURVE SMOOTH",
"91 724 OFFCURVE",
"31 517 OFFCURVE",
"31 325 CURVE SMOOTH"
);
},
{
closed = 1;
nodes = (
"217 134 OFFCURVE",
"195 179 OFFCURVE",
"195 241 CURVE SMOOTH",
"195 298 OFFCURVE",
"214 336 OFFCURVE",
"252 336 CURVE SMOOTH",
"288 336 OFFCURVE",
"304 304 OFFCURVE",
"304 241 CURVE SMOOTH",
"304 164 OFFCURVE",
"282 134 OFFCURVE",
"253 134 CURVE SMOOTH"
);
}
);
width = 496;
}
);
unicode = 0036;
}
{
glyphname = eight.sinh;
layers = (
{
layerId = "7977A986-4EFB-4152-84F8-5A02CD382AAF";
paths = (
{
closed = 1;
nodes = (
"170 724 OFFCURVE",
"89 660 OFFCURVE",
"89 558 CURVE SMOOTH",
"89 460 OFFCURVE",
"167 414 OFFCURVE",
"253 381 CURVE",
"140 340 OFFCURVE",
"66 284 OFFCURVE",
"66 174 CURVE SMOOTH",
"66 62 OFFCURVE",
"152 -10 OFFCURVE",
"281 -10 CURVE SMOOTH",
"406 -10 OFFCURVE",
"505 59 OFFCURVE",
"505 181 CURVE SMOOTH",
"505 284 OFFCURVE",
"432 341 OFFCURVE",
"316 382 CURVE",
"417 423 OFFCURVE",
"481 473 OFFCURVE",
"481 561 CURVE SMOOTH",
"481 666 OFFCURVE",
"408 724 OFFCURVE",
"285 724 CURVE SMOOTH"
);
},
{
closed = 1;
nodes = (
"93 282 OFFCURVE",
"170 328 OFFCURVE",
"283 367 CURVE",
"311 357 LINE",
"420 318 OFFCURVE",
"478 268 OFFCURVE",
"478 180 CURVE SMOOTH",
"478 72 OFFCURVE",
"395 16 OFFCURVE",
"281 16 CURVE SMOOTH",
"169 16 OFFCURVE",
"93 76 OFFCURVE",
"93 175 CURVE SMOOTH"
);
},
{
closed = 1;
nodes = (
"391 698 OFFCURVE",
"454 654 OFFCURVE",
"454 560 CURVE SMOOTH",
"454 479 OFFCURVE",
"383 432 OFFCURVE",
"288 395 CURVE",
"184 431 OFFCURVE",
"116 474 OFFCURVE",
"116 559 CURVE SMOOTH",
"116 650 OFFCURVE",
"187 698 OFFCURVE",
"285 698 CURVE SMOOTH"
);
}
);
width = 572;
},
{
layerId = UUID0;
paths = (
{
closed = 1;
nodes = (
"163 724 OFFCURVE",
"72 663 OFFCURVE",
"72 554 CURVE SMOOTH",
"72 466 OFFCURVE",
"127 413 OFFCURVE",
"197 373 CURVE",
"115 335 OFFCURVE",
"49 279 OFFCURVE",
"49 179 CURVE SMOOTH",
"49 61 OFFCURVE",
"138 -10 OFFCURVE",
"284 -10 CURVE SMOOTH",
"430 -10 OFFCURVE",
"522 65 OFFCURVE",
"522 183 CURVE SMOOTH",
"522 282 OFFCURVE",
"454 333 OFFCURVE",
"363 378 CURVE",
"437 416 OFFCURVE",
"499 466 OFFCURVE",
"499 554 CURVE SMOOTH",
"499 663 OFFCURVE",
"411 724 OFFCURVE",
"285 724 CURVE SMOOTH"
);
},
{
closed = 1;
nodes = (
"131 254 OFFCURVE",
"180 300 OFFCURVE",
"270 338 CURVE",
"286 332 LINE SMOOTH",
"382 296 OFFCURVE",
"439 252 OFFCURVE",
"439 181 CURVE SMOOTH",
"439 109 OFFCURVE",
"384 58 OFFCURVE",
"285 58 CURVE SMOOTH",
"181 58 OFFCURVE",
"131 110 OFFCURVE",
"131 181 CURVE SMOOTH"
);
},
{
closed = 1;
nodes = (
"363 655 OFFCURVE",
"416 618 OFFCURVE",
"416 550 CURVE SMOOTH",
"416 478 OFFCURVE",
"360 440 OFFCURVE",
"289 411 CURVE",
"214 442 OFFCURVE",
"155 476 OFFCURVE",
"155 550 CURVE SMOOTH",
"155 618 OFFCURVE",
"208 655 OFFCURVE",
"284 655 CURVE SMOOTH"
);
}
);
width = 572;
},
{
layerId = "C62AB4C0-B70D-46F6-9B13-45217A94AFC9";
paths = (
{
closed = 1;
nodes = (
"147 724 OFFCURVE",
"50 663 OFFCURVE",
"50 550 CURVE SMOOTH",
"50 466 OFFCURVE",
"100 414 OFFCURVE",
"160 373 CURVE",
"77 331 OFFCURVE",
"29 281 OFFCURVE",
"29 187 CURVE SMOOTH",
"29 71 OFFCURVE",
"105 -10 OFFCURVE",
"285 -10 CURVE SMOOTH",
"464 -10 OFFCURVE",
"543 74 OFFCURVE",
"543 185 CURVE SMOOTH",
"543 284 OFFCURVE",
"477 330 OFFCURVE",
"399 376 CURVE",
"466 412 OFFCURVE",
"522 460 OFFCURVE",
"522 549 CURVE SMOOTH",
"522 662 OFFCURVE",
"427 724 OFFCURVE",
"288 724 CURVE SMOOTH"
);
},
{
closed = 1;
nodes = (
"208 237 OFFCURVE",
"237 267 OFFCURVE",
"283 295 CURVE",
"299 284 LINE SMOOTH",
"341 255 OFFCURVE",
"364 228 OFFCURVE",
"364 193 CURVE SMOOTH",
"364 158 OFFCURVE",
"339 127 OFFCURVE",
"285 127 CURVE SMOOTH",
"234 127 OFFCURVE",
"208 156 OFFCURVE",
"208 196 CURVE SMOOTH"
);
},
{
closed = 1;
nodes = (
"319 587 OFFCURVE",
"344 566 OFFCURVE",
"344 533 CURVE SMOOTH",
"344 496 OFFCURVE",
"317 473 OFFCURVE",
"288 453 CURVE",
"251 476 OFFCURVE",
"229 498 OFFCURVE",
"229 532 CURVE SMOOTH",
"229 565 OFFCURVE",
"250 587 OFFCURVE",
"286 587 CURVE SMOOTH"
);
}
);
width = 572;
},
{
layerId = "CF8E177F-0CDC-40C1-8828-F158AA64F32E";
paths = (
{
closed = 1;
nodes = (
"112 723 OFFCURVE",
"56 659 OFFCURVE",
"56 565 CURVE SMOOTH",
"56 482 OFFCURVE",
"104 426 OFFCURVE",
"175 379 CURVE",
"101 335 OFFCURVE",
"39 275 OFFCURVE",
"39 170 CURVE SMOOTH",
"39 64 OFFCURVE",
"101 -10 OFFCURVE",
"201 -10 CURVE SMOOTH",
"301 -10 OFFCURVE",
"360 68 OFFCURVE",
"360 171 CURVE SMOOTH",
"360 270 OFFCURVE",
"302 324 OFFCURVE",
"222 378 CURVE",
"294 422 OFFCURVE",
"345 467 OFFCURVE",
"345 565 CURVE SMOOTH",
"345 659 OFFCURVE",
"294 723 OFFCURVE",
"204 723 CURVE SMOOTH"
);
},
{
closed = 1;
nodes = (
"66 268 OFFCURVE",
"128 326 OFFCURVE",
"198 365 CURVE",
"212 356 LINE SMOOTH",
"302 298 OFFCURVE",
"333 237 OFFCURVE",
"333 169 CURVE SMOOTH",
"333 79 OFFCURVE",
"283 16 OFFCURVE",
"201 16 CURVE SMOOTH",
"123 16 OFFCURVE",
"66 71 OFFCURVE",
"66 169 CURVE SMOOTH"
);
},
{
closed = 1;
nodes = (
"277 697 OFFCURVE",
"318 647 OFFCURVE",
"318 565 CURVE SMOOTH",
"318 475 OFFCURVE",
"271 436 OFFCURVE",
"200 391 CURVE",
"123 442 OFFCURVE",
"83 490 OFFCURVE",
"83 564 CURVE SMOOTH",
"83 645 OFFCURVE",
"127 697 OFFCURVE",
"203 697 CURVE SMOOTH"
);
}
);
width = 399;
},
{
layerId = "56AEB5FB-BA14-4784-B08F-18006463EEDB";
paths = (
{
closed = 1;
nodes = (
"116 724 OFFCURVE",
"51 658 OFFCURVE",
"51 557 CURVE SMOOTH",
"51 486 OFFCURVE",
"86 427 OFFCURVE",
"155 373 CURVE",
"73 318 OFFCURVE",
"34 260 OFFCURVE",
"34 174 CURVE SMOOTH",
"34 64 OFFCURVE",
"102 -10 OFFCURVE",
"215 -10 CURVE SMOOTH",
"326 -10 OFFCURVE",
"396 65 OFFCURVE",
"396 174 CURVE SMOOTH",
"396 268 OFFCURVE",
"341 322 OFFCURVE",
"266 373 CURVE",
"340 418 OFFCURVE",
"380 479 OFFCURVE",
"380 557 CURVE SMOOTH",
"380 659 OFFCURVE",
"319 724 OFFCURVE",
"219 724 CURVE SMOOTH"
);
},
{
closed = 1;
nodes = (
"109 248 OFFCURVE",
"144 297 OFFCURVE",
"207 338 CURVE",
"230 322 LINE",
"295 272 OFFCURVE",
"321 228 OFFCURVE",
"321 171 CURVE SMOOTH",
"321 98 OFFCURVE",
"280 56 OFFCURVE",
"215 56 CURVE SMOOTH",
"149 56 OFFCURVE",
"109 98 OFFCURVE",
"109 175 CURVE SMOOTH"
);
},
{
closed = 1;
nodes = (
"275 658 OFFCURVE",
"305 612 OFFCURVE",
"305 554 CURVE SMOOTH",
"305 495 OFFCURVE",
"272 446 OFFCURVE",
"214 409 CURVE",
"159 447 OFFCURVE",
"126 491 OFFCURVE",
"126 555 CURVE SMOOTH",
"126 618 OFFCURVE",
"160 658 OFFCURVE",
"215 658 CURVE SMOOTH"
);
}
);
width = 429;
},
{
layerId = "DC607D84-584B-45E6-A9EB-D1AF471CA2AE";
paths = (
{
closed = 1;
nodes = (
"124 724 OFFCURVE",
"46 661 OFFCURVE",
"46 551 CURVE SMOOTH",
"46 481 OFFCURVE",
"75 424 OFFCURVE",
"138 373 CURVE",
"57 321 OFFCURVE",
"28 264 OFFCURVE",
"28 188 CURVE SMOOTH",
"28 61 OFFCURVE",
"107 -10 OFFCURVE",
"245 -10 CURVE SMOOTH",
"384 -10 OFFCURVE",
"468 65 OFFCURVE",
"468 186 CURVE SMOOTH",
"468 259 OFFCURVE",
"436 318 OFFCURVE",
"350 376 CURVE",
"418 418 OFFCURVE",
"450 474 OFFCURVE",
"450 550 CURVE SMOOTH",
"450 661 OFFCURVE",
"376 724 OFFCURVE",
"248 724 CURVE SMOOTH"
);
},
{
closed = 1;
nodes = (
"189 228 OFFCURVE",
"204 259 OFFCURVE",
"245 291 CURVE",
"255 283 LINE SMOOTH",
"295 251 OFFCURVE",
"306 218 OFFCURVE",
"306 186 CURVE SMOOTH",
"306 144 OFFCURVE",
"286 123 OFFCURVE",
"248 123 CURVE SMOOTH",
"208 123 OFFCURVE",
"189 148 OFFCURVE",
"189 191 CURVE SMOOTH"
);
},
{
closed = 1;
nodes = (
"274 591 OFFCURVE",
"290 573 OFFCURVE",
"290 540 CURVE SMOOTH",
"290 509 OFFCURVE",
"277 485 OFFCURVE",
"246 459 CURVE",
"222 483 OFFCURVE",
"206 509 OFFCURVE",
"206 541 CURVE SMOOTH",
"206 571 OFFCURVE",
"222 591 OFFCURVE",
"249 591 CURVE SMOOTH"
);
}
);
width = 496;
}
);
unicode = 0038;
}
{
glyphname = nine.sinh;
layers = (
{
layerId = "7977A986-4EFB-4152-84F8-5A02CD382AAF";
paths = (
{
closed = 1;
nodes = (
"501 569 OFFCURVE",
"442 726 OFFCURVE",
"270 726 CURVE SMOOTH",
"134 726 OFFCURVE",
"56 630 OFFCURVE",
"56 491 CURVE SMOOTH",
"56 361 OFFCURVE",
"131 276 OFFCURVE",
"263 276 CURVE SMOOTH",
"378 276 OFFCURVE",
"447 337 OFFCURVE",
"472 392 CURVE",
"474 392 LINE",
"470 112 OFFCURVE",
"351 16 OFFCURVE",
"202 16 CURVE SMOOTH",
"160 16 OFFCURVE",
"118 23 OFFCURVE",
"94 32 CURVE",
"94 3 LINE",
"121 -5 OFFCURVE",
"160 -10 OFFCURVE",
"202 -10 CURVE SMOOTH",
"373 -10 OFFCURVE",
"501 108 OFFCURVE",
"501 413 CURVE SMOOTH"
);
},
{
closed = 1;
nodes = (
"432 700 OFFCURVE",
"470 537 OFFCURVE",
"470 458 CURVE SMOOTH",
"470 390 OFFCURVE",
"394 302 OFFCURVE",
"265 302 CURVE SMOOTH",
"145 302 OFFCURVE",
"83 374 OFFCURVE",
"83 492 CURVE SMOOTH",
"83 621 OFFCURVE",
"149 700 OFFCURVE",
"270 700 CURVE SMOOTH"
);
}
);
width = 572;
},
{
layerId = UUID0;
paths = (
{
closed = 1;
nodes = (
"520 622 OFFCURVE",
"421 724 OFFCURVE",
"278 724 CURVE SMOOTH",
"140 724 OFFCURVE",
"50 632 OFFCURVE",
"50 483 CURVE SMOOTH",
"50 345 OFFCURVE",
"133 268 OFFCURVE",
"258 268 CURVE SMOOTH",
"346 268 OFFCURVE",
"400 304 OFFCURVE",
"431 350 CURVE",
"437 350 LINE",
"431 192 OFFCURVE",
"380 60 OFFCURVE",
"192 60 CURVE SMOOTH",
"160 60 OFFCURVE",
"126 64 OFFCURVE",
"102 73 CURVE",
"102 0 LINE",
"124 -7 OFFCURVE",
"165 -10 OFFCURVE",
"195 -10 CURVE SMOOTH",
"456 -10 OFFCURVE",
"520 204 OFFCURVE",
"520 392 CURVE SMOOTH"
);
},
{
closed = 1;
nodes = (
"384 655 OFFCURVE",
"437 554 OFFCURVE",
"437 480 CURVE SMOOTH",
"437 399 OFFCURVE",
"374 336 OFFCURVE",
"273 336 CURVE SMOOTH",
"177 336 OFFCURVE",
"131 393 OFFCURVE",
"131 487 CURVE SMOOTH",
"131 598 OFFCURVE",
"191 655 OFFCURVE",
"275 655 CURVE SMOOTH"
);
}
);
width = 572;
},
{
layerId = "C62AB4C0-B70D-46F6-9B13-45217A94AFC9";
paths = (
{
closed = 1;
nodes = (
"541 626 OFFCURVE",
"431 724 OFFCURVE",
"276 724 CURVE SMOOTH",
"124 724 OFFCURVE",
"29 630 OFFCURVE",
"29 469 CURVE SMOOTH",
"29 322 OFFCURVE",
"103 238 OFFCURVE",
"225 238 CURVE SMOOTH",
"301 238 OFFCURVE",
"346 269 OFFCURVE",
"369 321 CURVE",
"375 321 LINE",
"365 205 OFFCURVE",
"318 136 OFFCURVE",
"171 136 CURVE SMOOTH",
"140 136 OFFCURVE",
"107 139 OFFCURVE",
"74 145 CURVE",
"74 -2 LINE",
"109 -8 OFFCURVE",
"140 -10 OFFCURVE",
"171 -10 CURVE SMOOTH",
"485 -10 OFFCURVE",
"541 206 OFFCURVE",
"541 383 CURVE SMOOTH"
);
},
{
closed = 1;
nodes = (
"333 578 OFFCURVE",
"359 524 OFFCURVE",
"359 471 CURVE SMOOTH",
"359 417 OFFCURVE",
"331 380 OFFCURVE",
"282 380 CURVE SMOOTH",
"230 380 OFFCURVE",
"208 418 OFFCURVE",
"208 479 CURVE SMOOTH",
"208 546 OFFCURVE",
"236 578 OFFCURVE",
"279 578 CURVE SMOOTH"
);
}
);
width = 572;
},
{
layerId = "CF8E177F-0CDC-40C1-8828-F158AA64F32E";
paths = (
{
closed = 1;
nodes = (
"347 621 OFFCURVE",
"303 724 OFFCURVE",
"195 724 CURVE SMOOTH",
"101 724 OFFCURVE",
"46 642 OFFCURVE",
"46 493 CURVE SMOOTH",
"46 356 OFFCURVE",
"90 274 OFFCURVE",
"190 274 CURVE SMOOTH",
"270 274 OFFCURVE",
"307 332 OFFCURVE",
"320 376 CURVE",
"321 376 LINE",
"320 137 OFFCURVE",
"262 16 OFFCURVE",
"132 16 CURVE SMOOTH",
"115 16 OFFCURVE",
"92 18 OFFCURVE",
"76 23 CURVE",
"76 -3 LINE",
"93 -8 OFFCURVE",
"118 -10 OFFCURVE",
"135 -10 CURVE SMOOTH",
"258 -10 OFFCURVE",
"347 84 OFFCURVE",
"347 402 CURVE SMOOTH"
);
},
{
closed = 1;
nodes = (
"299 698 OFFCURVE",
"318 555 OFFCURVE",
"318 481 CURVE SMOOTH",
"318 366 OFFCURVE",
"272 300 OFFCURVE",
"191 300 CURVE SMOOTH",
"103 300 OFFCURVE",
"73 378 OFFCURVE",
"73 491 CURVE SMOOTH",
"73 625 OFFCURVE",
"115 698 OFFCURVE",
"193 698 CURVE SMOOTH"
);
}
);
width = 399;
},
{
layerId = "56AEB5FB-BA14-4784-B08F-18006463EEDB";
paths = (
{
closed = 1;
nodes = (
"383 613 OFFCURVE",
"327 724 OFFCURVE",
"210 724 CURVE SMOOTH",
"94 724 OFFCURVE",
"39 621 OFFCURVE",
"39 490 CURVE SMOOTH",
"39 362 OFFCURVE",
"88 265 OFFCURVE",
"190 265 CURVE SMOOTH",
"243 265 OFFCURVE",
"282 292 OFFCURVE",
"307 342 CURVE",
"311 342 LINE",
"304 184 OFFCURVE",
"264 58 OFFCURVE",
"138 58 CURVE SMOOTH",
"115 58 OFFCURVE",
"89 62 OFFCURVE",
"71 69 CURVE",
"71 0 LINE",
"90 -5 OFFCURVE",
"124 -10 OFFCURVE",
"151 -10 CURVE SMOOTH",
"307 -10 OFFCURVE",
"383 150 OFFCURVE",
"383 401 CURVE SMOOTH"
);
},
{
closed = 1;
nodes = (
"288 656 OFFCURVE",
"307 544 OFFCURVE",
"307 480 CURVE SMOOTH",
"307 391 OFFCURVE",
"270 333 OFFCURVE",
"207 333 CURVE SMOOTH",
"152 333 OFFCURVE",
"114 375 OFFCURVE",
"114 490 CURVE SMOOTH",
"114 601 OFFCURVE",
"151 656 OFFCURVE",
"208 656 CURVE SMOOTH"
);
}
);
width = 429;
},
{
layerId = "DC607D84-584B-45E6-A9EB-D1AF471CA2AE";
paths = (
{
closed = 1;
nodes = (
"465 608 OFFCURVE",
"381 724 OFFCURVE",
"238 724 CURVE SMOOTH",
"106 724 OFFCURVE",
"28 626 OFFCURVE",
"28 468 CURVE SMOOTH",
"28 326 OFFCURVE",
"88 238 OFFCURVE",
"187 238 CURVE SMOOTH",
"241 238 OFFCURVE",
"284 266 OFFCURVE",
"306 321 CURVE",
"311 321 LINE",
"309 189 OFFCURVE",
"252 135 OFFCURVE",
"145 135 CURVE SMOOTH",
"119 135 OFFCURVE",
"90 138 OFFCURVE",
"63 145 CURVE",
"63 -1 LINE",
"96 -7 OFFCURVE",
"130 -10 OFFCURVE",
"159 -10 CURVE SMOOTH",
"392 -10 OFFCURVE",
"465 186 OFFCURVE",
"465 392 CURVE SMOOTH"
);
},
{
closed = 1;
nodes = (
"295 580 OFFCURVE",
"301 495 OFFCURVE",
"301 468 CURVE SMOOTH",
"301 427 OFFCURVE",
"287 378 OFFCURVE",
"244 378 CURVE SMOOTH",
"212 378 OFFCURVE",
"192 406 OFFCURVE",
"192 473 CURVE SMOOTH",
"192 551 OFFCURVE",
"215 580 OFFCURVE",
"245 580 CURVE SMOOTH"
);
}
);
width = 496;
}
);
unicode = 0039;
}
{
glyphname = a;
layers = (
{
anchors = (
{
name = top;
position = "{312, 553}";
},
{
name = topright;
position = "{589, 553}";
}
);
layerId = "C62AB4C0-B70D-46F6-9B13-45217A94AFC9";
paths = (
{
closed = 1;
nodes = (
"243 563 OFFCURVE",
"156 546 OFFCURVE",
"92 513 CURVE",
"147 387 LINE",
"201 411 OFFCURVE",
"258 428 OFFCURVE",
"300 428 CURVE SMOOTH",
"342 428 OFFCURVE",
"368 409 OFFCURVE",
"368 360 CURVE SMOOTH",
"368 352 LINE",
"291 349 LINE SMOOTH",
"116 342 OFFCURVE",
"36 287 OFFCURVE",
"36 164 CURVE SMOOTH",
"36 48 OFFCURVE",
"105 -10 OFFCURVE",
"216 -10 CURVE SMOOTH",
"296 -10 OFFCURVE",
"345 20 OFFCURVE",
"386 73 CURVE",
"390 73 LINE",
"427 0 LINE",
"559 0 LINE",
"559 363 LINE SMOOTH",
"559 497 OFFCURVE",
"476 563 OFFCURVE",
"322 563 CURVE SMOOTH"
);
},
{
closed = 1;
nodes = (
"369 247 LINE",
"369 204 LINE",
"369 157 OFFCURVE",
"331 125 OFFCURVE",
"285 125 CURVE SMOOTH",
"252 125 OFFCURVE",
"230 142 OFFCURVE",
"230 180 CURVE SMOOTH",
"230 220 OFFCURVE",
"255 242 OFFCURVE",
"324 245 CURVE SMOOTH"
);
}
);
width = 623;
},
{
anchors = (
{
name = top;
position = "{281, 536}";
},
{
name = topright;
position = "{511, 536}";
}
);
layerId = UUID0;
paths = (
{
closed = 1;
nodes = (
"218 545 OFFCURVE",
"154 525 OFFCURVE",
"105 499 CURVE",
"132 433 LINE",
"176 454 OFFCURVE",
"227 474 OFFCURVE",
"283 474 CURVE SMOOTH",
"353 474 OFFCURVE",
"394 444 OFFCURVE",
"394 355 CURVE SMOOTH",
"394 323 LINE",
"296 320 LINE SMOOTH",
"129 315 OFFCURVE",
"46 258 OFFCURVE",
"46 146 CURVE SMOOTH",
"46 40 OFFCURVE",
"117 -10 OFFCURVE",
"221 -10 CURVE SMOOTH",
"305 -10 OFFCURVE",
"352 21 OFFCURVE",
"395 76 CURVE",
"399 76 LINE",
"416 0 LINE",
"480 0 LINE",
"480 365 LINE SMOOTH",
"480 489 OFFCURVE",
"418 545 OFFCURVE",
"292 545 CURVE SMOOTH"
);
},
{
closed = 1;
nodes = (
"393 262 LINE",
"393 214 LINE SMOOTH",
"393 111 OFFCURVE",
"325 61 OFFCURVE",
"238 61 CURVE SMOOTH",
"175 61 OFFCURVE",
"137 88 OFFCURVE",
"137 149 CURVE SMOOTH",
"137 216 OFFCURVE",
"180 254 OFFCURVE",
"314 259 CURVE SMOOTH"
);
}
);
width = 561;
},
{
anchors = (
{
name = top;
position = "{256, 528}";
},
{
name = topright;
position = "{491, 528}";
}
);
layerId = "7977A986-4EFB-4152-84F8-5A02CD382AAF";
paths = (
{
closed = 1;
nodes = (
"205 537 OFFCURVE",
"150 522 OFFCURVE",
"97 498 CURVE",
"106 472 LINE",
"163 501 OFFCURVE",
"211 512 OFFCURVE",
"264 512 CURVE SMOOTH",
"357 512 OFFCURVE",
"402 463 OFFCURVE",
"402 343 CURVE SMOOTH",
"402 300 LINE",
"299 294 LINE SMOOTH",
"142 285 OFFCURVE",
"48 234 OFFCURVE",
"48 129 CURVE SMOOTH",
"48 45 OFFCURVE",
"102 -10 OFFCURVE",
"208 -10 CURVE SMOOTH",
"316 -10 OFFCURVE",
"372 42 OFFCURVE",
"400 103 CURVE",
"402 103 LINE",
"406 0 LINE",
"428 0 LINE",
"428 350 LINE SMOOTH",
"428 480 OFFCURVE",
"373 537 OFFCURVE",
"264 537 CURVE SMOOTH"
);
},
{
closed = 1;
nodes = (
"402 275 LINE",
"402 220 LINE SMOOTH",
"400 99 OFFCURVE",
"341 15 OFFCURVE",
"208 15 CURVE SMOOTH",
"123 15 OFFCURVE",
"76 58 OFFCURVE",
"76 129 CURVE SMOOTH",
"76 222 OFFCURVE",
"165 263 OFFCURVE",
"301 270 CURVE SMOOTH"
);
}
);
width = 511;
},
{
anchors = (
{
name = top;
position = "{183, 527}";
},
{
name = topright;
position = "{346, 527}";
}
);
layerId = "CF8E177F-0CDC-40C1-8828-F158AA64F32E";
paths = (
{
closed = 1;
nodes = (
"143 537 OFFCURVE",
"106 526 OFFCURVE",
"72 505 CURVE",
"83 483 LINE",
"120 505 OFFCURVE",
"152 512 OFFCURVE",
"179 512 CURVE SMOOTH",
"244 512 OFFCURVE",
"271 473 OFFCURVE",
"271 355 CURVE SMOOTH",
"271 304 LINE",
"211 297 LINE SMOOTH",
"100 284 OFFCURVE",
"38 233 OFFCURVE",
"38 131 CURVE SMOOTH",
"38 56 OFFCURVE",
"73 -10 OFFCURVE",
"157 -10 CURVE SMOOTH",
"233 -10 OFFCURVE",
"261 43 OFFCURVE",
"273 93 CURVE",
"275 93 LINE",
"276 0 LINE",
"297 0 LINE",
"297 358 LINE SMOOTH",
"297 487 OFFCURVE",
"261 537 OFFCURVE",
"180 537 CURVE SMOOTH"
);
},
{
closed = 1;
nodes = (
"272 281 LINE",
"272 220 LINE SMOOTH",
"272 97 OFFCURVE",
"241 12 OFFCURVE",
"157 12 CURVE SMOOTH",
"99 12 OFFCURVE",
"64 54 OFFCURVE",
"64 129 CURVE SMOOTH",
"64 217 OFFCURVE",
"110 263 OFFCURVE",
"209 274 CURVE SMOOTH"
);
}
);
width = 366;
},
{
anchors = (
{
name = top;
position = "{214, 537}";
},
{
name = topright;
position = "{378, 537}";
}
);
layerId = "56AEB5FB-BA14-4784-B08F-18006463EEDB";
paths = (
{
closed = 1;
nodes = (
"163 547 OFFCURVE",
"115 534 OFFCURVE",
"73 508 CURVE",
"99 447 LINE",
"137 469 OFFCURVE",
"170 480 OFFCURVE",
"199 480 CURVE SMOOTH",
"251 480 OFFCURVE",
"272 443 OFFCURVE",
"272 360 CURVE SMOOTH",
"272 325 LINE",
"208 322 LINE SMOOTH",
"101 317 OFFCURVE",
"34 259 OFFCURVE",
"34 149 CURVE SMOOTH",
"34 65 OFFCURVE",
"71 -10 OFFCURVE",
"156 -10 CURVE SMOOTH",
"209 -10 OFFCURVE",
"249 18 OFFCURVE",
"277 74 CURVE",
"279 74 LINE",
"291 0 LINE",
"353 0 LINE",
"353 362 LINE SMOOTH",
"353 482 OFFCURVE",
"314 547 OFFCURVE",
"210 547 CURVE SMOOTH"
);
},
{
closed = 1;
nodes = (
"273 266 LINE",
"273 212 LINE SMOOTH",
"273 114 OFFCURVE",
"238 56 OFFCURVE",
"182 56 CURVE SMOOTH",
"141 56 OFFCURVE",
"117 87 OFFCURVE",
"117 150 CURVE SMOOTH",
"117 225 OFFCURVE",
"154 259 OFFCURVE",
"222 263 CURVE SMOOTH"
);
}
);
width = 416;
},
{
anchors = (
{
name = top;
position = "{257, 553}";
},
{
name = topright;
position = "{465, 553}";
}
);
layerId = "DC607D84-584B-45E6-A9EB-D1AF471CA2AE";
paths = (
{
closed = 1;
nodes = (
"190 563 OFFCURVE",
"119 543 OFFCURVE",
"69 513 CURVE",
"111 393 LINE",
"160 421 OFFCURVE",
"199 434 OFFCURVE",
"228 434 CURVE SMOOTH",
"266 434 OFFCURVE",
"283 412 OFFCURVE",
"283 366 CURVE SMOOTH",
"283 352 LINE",
"211 349 LINE SMOOTH",
"90 344 OFFCURVE",
"25 288 OFFCURVE",
"25 167 CURVE SMOOTH",
"25 75 OFFCURVE",
"61 -10 OFFCURVE",
"162 -10 CURVE SMOOTH",
"225 -10 OFFCURVE",
"266 22 OFFCURVE",
"298 73 CURVE",
"301 73 LINE",
"328 0 LINE",
"445 0 LINE",
"445 363 LINE SMOOTH",
"445 498 OFFCURVE",
"379 563 OFFCURVE",
"258 563 CURVE SMOOTH"
);
},
{
closed = 1;
nodes = (
"283 247 LINE",
"283 198 LINE SMOOTH",
"283 151 OFFCURVE",
"258 119 OFFCURVE",
"226 119 CURVE SMOOTH",
"200 119 OFFCURVE",
"187 138 OFFCURVE",
"187 174 CURVE SMOOTH",
"187 220 OFFCURVE",
"209 243 OFFCURVE",
"248 245 CURVE SMOOTH"
);
}
);
width = 494;
}
);
leftKerningGroup = a.right;
rightKerningGroup = n.left;
unicode = 0061;
script = latin;
category = Letter;
subCategory = Lowercase;
}
{
glyphname = s;
layers = (
{
anchors = (
{
name = top;
position = "{251, 553}";
},
{
name = topright;
position = "{497, 553}";
}
);
layerId = "C62AB4C0-B70D-46F6-9B13-45217A94AFC9";
paths = (
{
closed = 1;
nodes = (
"477 276 OFFCURVE",
"423 309 OFFCURVE",
"330 348 CURVE SMOOTH",
"261 377 OFFCURVE",
"224 386 OFFCURVE",
"224 410 CURVE SMOOTH",
"224 426 OFFCURVE",
"241 434 OFFCURVE",
"268 434 CURVE SMOOTH",
"305 434 OFFCURVE",
"366 418 OFFCURVE",
"421 393 CURVE",
"473 516 LINE",
"404 547 OFFCURVE",
"343 563 OFFCURVE",
"269 563 CURVE SMOOTH",
"130 563 OFFCURVE",
"42 508 OFFCURVE",
"42 395 CURVE SMOOTH",
"42 294 OFFCURVE",
"108 259 OFFCURVE",
"184 226 CURVE SMOOTH",
"263 192 OFFCURVE",
"297 184 OFFCURVE",
"297 158 CURVE SMOOTH",
"297 138 OFFCURVE",
"277 129 OFFCURVE",
"239 129 CURVE SMOOTH",
"193 129 OFFCURVE",
"112 142 OFFCURVE",
"43 174 CURVE",
"43 21 LINE",
"101 -1 OFFCURVE",
"164 -10 OFFCURVE",
"230 -10 CURVE SMOOTH",
"411 -10 OFFCURVE",
"477 59 OFFCURVE",
"477 171 CURVE SMOOTH"
);
}
);
width = 517;
},
{
anchors = (
{
name = top;
position = "{240, 536}";
},
{
name = topright;
position = "{439, 536}";
}
);
layerId = UUID0;
paths = (
{
closed = 1;
nodes = (
"434 234 OFFCURVE",
"378 266 OFFCURVE",
"276 306 CURVE SMOOTH",
"192 339 OFFCURVE",
"135 356 OFFCURVE",
"135 408 CURVE SMOOTH",
"135 449 OFFCURVE",
"174 474 OFFCURVE",
"245 474 CURVE SMOOTH",
"299 474 OFFCURVE",
"348 459 OFFCURVE",
"393 440 CURVE",
"423 510 LINE",
"373 532 OFFCURVE",
"317 546 OFFCURVE",
"252 546 CURVE SMOOTH",
"131 546 OFFCURVE",
"51 495 OFFCURVE",
"51 403 CURVE SMOOTH",
"51 307 OFFCURVE",
"132 278 OFFCURVE",
"217 244 CURVE SMOOTH",
"330 199 OFFCURVE",
"349 180 OFFCURVE",
"349 142 CURVE SMOOTH",
"349 92 OFFCURVE",
"310 61 OFFCURVE",
"226 61 CURVE SMOOTH",
"159 61 OFFCURVE",
"99 81 OFFCURVE",
"52 104 CURVE",
"52 24 LINE",
"93 2 OFFCURVE",
"148 -10 OFFCURVE",
"215 -10 CURVE SMOOTH",
"354 -10 OFFCURVE",
"434 44 OFFCURVE",
"434 148 CURVE SMOOTH"
);
}
);
width = 479;
},
{
anchors = (
{
name = top;
position = "{229, 528}";
},
{
name = topright;
position = "{438, 528}";
}
);
layerId = "7977A986-4EFB-4152-84F8-5A02CD382AAF";
paths = (
{
closed = 1;
nodes = (
"411 235 OFFCURVE",
"321 258 OFFCURVE",
"233 286 CURVE SMOOTH",
"152 312 OFFCURVE",
"83 325 OFFCURVE",
"83 407 CURVE SMOOTH",
"83 478 OFFCURVE",
"142 513 OFFCURVE",
"238 513 CURVE SMOOTH",
"291 513 OFFCURVE",
"350 501 OFFCURVE",
"387 483 CURVE",
"398 508 LINE",
"356 525 OFFCURVE",
"301 538 OFFCURVE",
"238 538 CURVE SMOOTH",
"126 538 OFFCURVE",
"56 489 OFFCURVE",
"56 407 CURVE SMOOTH",
"56 309 OFFCURVE",
"131 290 OFFCURVE",
"224 262 CURVE SMOOTH",
"312 236 OFFCURVE",
"384 212 OFFCURVE",
"384 134 CURVE SMOOTH",
"384 60 OFFCURVE",
"334 15 OFFCURVE",
"213 15 CURVE SMOOTH",
"151 15 OFFCURVE",
"92 28 OFFCURVE",
"39 54 CURVE",
"39 24 LINE",
"77 7 OFFCURVE",
"140 -10 OFFCURVE",
"213 -10 CURVE SMOOTH",
"345 -10 OFFCURVE",
"411 45 OFFCURVE",
"411 134 CURVE SMOOTH"
);
}
);
width = 458;
},
{
anchors = (
{
name = top;
position = "{156, 527}";
},
{
name = topright;
position = "{292, 527}";
}
);
layerId = "CF8E177F-0CDC-40C1-8828-F158AA64F32E";
paths = (
{
closed = 1;
nodes = (
"278 210 OFFCURVE",
"226 240 OFFCURVE",
"170 275 CURVE SMOOTH",
"98 320 OFFCURVE",
"65 347 OFFCURVE",
"65 407 CURVE SMOOTH",
"65 475 OFFCURVE",
"109 512 OFFCURVE",
"174 512 CURVE SMOOTH",
"206 512 OFFCURVE",
"240 503 OFFCURVE",
"262 487 CURVE",
"275 510 LINE",
"249 527 OFFCURVE",
"213 537 OFFCURVE",
"175 537 CURVE SMOOTH",
"82 537 OFFCURVE",
"39 479 OFFCURVE",
"39 408 CURVE SMOOTH",
"39 330 OFFCURVE",
"90 296 OFFCURVE",
"157 254 CURVE SMOOTH",
"216 217 OFFCURVE",
"251 195 OFFCURVE",
"251 125 CURVE SMOOTH",
"251 56 OFFCURVE",
"217 16 OFFCURVE",
"147 16 CURVE SMOOTH",
"105 16 OFFCURVE",
"65 31 OFFCURVE",
"36 52 CURVE",
"36 21 LINE",
"59 6 OFFCURVE",
"98 -10 OFFCURVE",
"147 -10 CURVE SMOOTH",
"235 -10 OFFCURVE",
"278 43 OFFCURVE",
"278 123 CURVE SMOOTH"
);
}
);
width = 312;
},
{
anchors = (
{
name = top;
position = "{179, 537}";
},
{
name = topright;
position = "{309, 537}";
}
);
layerId = "56AEB5FB-BA14-4784-B08F-18006463EEDB";
paths = (
{
closed = 1;
nodes = (
"307 233 OFFCURVE",
"255 269 OFFCURVE",
"197 306 CURVE SMOOTH",
"145 339 OFFCURVE",
"111 358 OFFCURVE",
"111 407 CURVE SMOOTH",
"111 451 OFFCURVE",
"139 478 OFFCURVE",
"185 478 CURVE SMOOTH",
"217 478 OFFCURVE",
"248 466 OFFCURVE",
"276 447 CURVE",
"306 512 LINE",
"269 535 OFFCURVE",
"228 547 OFFCURVE",
"184 547 CURVE SMOOTH",
"92 547 OFFCURVE",
"33 491 OFFCURVE",
"33 404 CURVE SMOOTH",
"33 308 OFFCURVE",
"102 269 OFFCURVE",
"146 242 CURVE SMOOTH",
"204 206 OFFCURVE",
"227 186 OFFCURVE",
"227 141 CURVE SMOOTH",
"227 91 OFFCURVE",
"199 63 OFFCURVE",
"149 63 CURVE SMOOTH",
"109 63 OFFCURVE",
"62 80 OFFCURVE",
"33 104 CURVE",
"33 20 LINE",
"63 3 OFFCURVE",
"106 -10 OFFCURVE",
"154 -10 CURVE SMOOTH",
"251 -10 OFFCURVE",
"307 45 OFFCURVE",
"307 142 CURVE SMOOTH"
);
}
);
width = 339;
},
{
anchors = (
{
name = top;
position = "{204, 553}";
},
{
name = topright;
position = "{376, 553}";
}
);
layerId = "DC607D84-584B-45E6-A9EB-D1AF471CA2AE";
paths = (
{
closed = 1;
nodes = (
"372 262 OFFCURVE",
"324 302 OFFCURVE",
"258 343 CURVE SMOOTH",
"200 379 OFFCURVE",
"181 383 OFFCURVE",
"181 408 CURVE SMOOTH",
"181 426 OFFCURVE",
"192 434 OFFCURVE",
"215 434 CURVE SMOOTH",
"253 434 OFFCURVE",
"291 415 OFFCURVE",
"324 393 CURVE",
"364 516 LINE",
"311 547 OFFCURVE",
"262 563 OFFCURVE",
"205 563 CURVE SMOOTH",
"90 563 OFFCURVE",
"25 503 OFFCURVE",
"25 400 CURVE SMOOTH",
"25 322 OFFCURVE",
"60 265 OFFCURVE",
"128 231 CURVE SMOOTH",
"205 193 OFFCURVE",
"211 178 OFFCURVE",
"211 162 CURVE SMOOTH",
"211 138 OFFCURVE",
"197 129 OFFCURVE",
"166 129 CURVE SMOOTH",
"116 129 OFFCURVE",
"66 150 OFFCURVE",
"26 174 CURVE",
"26 21 LINE",
"77 -2 OFFCURVE",
"132 -10 OFFCURVE",
"178 -10 CURVE SMOOTH",
"303 -10 OFFCURVE",
"372 51 OFFCURVE",
"372 167 CURVE SMOOTH"
);
}
);
width = 396;
}
);
leftKerningGroup = s.right;
unicode = 0073;
script = latin;
category = Letter;
subCategory = Lowercase;
}
{
glyphname = u;
layers = (
{
anchors = (
{
name = top;
position = "{335, 553}";
},
{
name = topright;
position = "{636, 553}";
}
);
layerId = "C62AB4C0-B70D-46F6-9B13-45217A94AFC9";
paths = (
{
closed = 1;
nodes = (
"413 553 LINE",
"413 311 LINE SMOOTH",
"413 200 OFFCURVE",
"392 141 OFFCURVE",
"325 141 CURVE SMOOTH",
"275 141 OFFCURVE",
"256 176 OFFCURVE",
"256 251 CURVE SMOOTH",
"256 553 LINE",
"65 553 LINE",
"65 193 LINE SMOOTH",
"65 51 OFFCURVE",
"149 -10 OFFCURVE",
"258 -10 CURVE SMOOTH",
"326 -10 OFFCURVE",
"390 13 OFFCURVE",
"425 69 CURVE",
"436 69 LINE",
"460 0 LINE",
"604 0 LINE",
"604 553 LINE"
);
}
);
width = 670;
},
{
anchors = (
{
name = top;
position = "{309, 536}";
},
{
name = topright;
position = "{562, 536}";
}
);
layerId = UUID0;
paths = (
{
closed = 1;
nodes = (
"445 536 LINE",
"445 257 LINE SMOOTH",
"445 132 OFFCURVE",
"404 63 OFFCURVE",
"291 63 CURVE SMOOTH",
"206 63 OFFCURVE",
"168 103 OFFCURVE",
"168 191 CURVE SMOOTH",
"168 536 LINE",
"79 536 LINE",
"79 185 LINE SMOOTH",
"79 52 OFFCURVE",
"145 -10 OFFCURVE",
"268 -10 CURVE SMOOTH",
"343 -10 OFFCURVE",
"409 14 OFFCURVE",
"444 71 CURVE",
"448 71 LINE",
"461 0 LINE",
"533 0 LINE",
"533 536 LINE"
);
}
);
width = 618;
},
{
anchors = (
{
name = top;
position = "{287, 528}";
},
{
name = topright;
position = "{553, 528}";
}
);
layerId = "7977A986-4EFB-4152-84F8-5A02CD382AAF";
paths = (
{
closed = 1;
nodes = (
"455 528 LINE",
"455 226 LINE SMOOTH",
"455 82 OFFCURVE",
"377 15 OFFCURVE",
"262 15 CURVE SMOOTH",
"163 15 OFFCURVE",
"108 68 OFFCURVE",
"108 186 CURVE SMOOTH",
"108 528 LINE",
"82 528 LINE",
"82 182 LINE SMOOTH",
"82 57 OFFCURVE",
"144 -10 OFFCURVE",
"262 -10 CURVE SMOOTH",
"374 -10 OFFCURVE",
"431 50 OFFCURVE",
"454 111 CURVE",
"456 111 LINE",
"460 0 LINE",
"481 0 LINE",
"481 528 LINE"
);
}
);
width = 573;
},
{
anchors = (
{
name = top;
position = "{204, 527}";
},
{
name = topright;
position = "{388, 527}";
}
);
layerId = "CF8E177F-0CDC-40C1-8828-F158AA64F32E";
paths = (
{
closed = 1;
nodes = (
"311 527 LINE",
"311 228 LINE",
"311 83 OFFCURVE",
"261 15 OFFCURVE",
"186 15 CURVE SMOOTH",
"127 15 OFFCURVE",
"95 59 OFFCURVE",
"95 167 CURVE SMOOTH",
"95 527 LINE",
"69 527 LINE",
"69 159 LINE SMOOTH",
"69 45 OFFCURVE",
"105 -10 OFFCURVE",
"183 -10 CURVE SMOOTH",
"268 -10 OFFCURVE",
"300 54 OFFCURVE",
"314 112 CURVE",
"316 112 LINE",
"317 0 LINE",
"337 0 LINE",
"337 527 LINE"
);
}
);
width = 408;
},
{
anchors = (
{
name = top;
position = "{229, 537}";
},
{
name = topright;
position = "{414, 537}";
}
);
layerId = "56AEB5FB-BA14-4784-B08F-18006463EEDB";
paths = (
{
closed = 1;
nodes = (
"310 537 LINE",
"310 251 LINE SMOOTH",
"310 123 OFFCURVE",
"281 63 OFFCURVE",
"216 63 CURVE SMOOTH",
"165 63 OFFCURVE",
"144 101 OFFCURVE",
"144 202 CURVE SMOOTH",
"144 537 LINE",
"63 537 LINE",
"63 187 LINE SMOOTH",
"63 66 OFFCURVE",
"100 -10 OFFCURVE",
"192 -10 CURVE SMOOTH",
"246 -10 OFFCURVE",
"288 18 OFFCURVE",
"311 72 CURVE",
"317 72 LINE",
"326 0 LINE",
"391 0 LINE",
"391 537 LINE"
);
}
);
width = 456;
},
{
anchors = (
{
name = top;
position = "{265, 553}";
},
{
name = topright;
position = "{499, 553}";
}
);
layerId = "DC607D84-584B-45E6-A9EB-D1AF471CA2AE";
paths = (
{
closed = 1;
nodes = (
"317 553 LINE",
"317 280 LINE SMOOTH",
"317 216 OFFCURVE",
"317 134 OFFCURVE",
"258 134 CURVE SMOOTH",
"222 134 OFFCURVE",
"211 167 OFFCURVE",
"211 246 CURVE SMOOTH",
"211 553 LINE",
"49 553 LINE",
"49 193 LINE SMOOTH",
"49 64 OFFCURVE",
"105 -10 OFFCURVE",
"202 -10 CURVE SMOOTH",
"261 -10 OFFCURVE",
"300 16 OFFCURVE",
"326 68 CURVE",
"334 68 LINE",
"353 0 LINE",
"479 0 LINE",
"479 553 LINE"
);
}
);
width = 529;
}
);
leftKerningGroup = n.right;
unicode = 0075;
script = latin;
category = Letter;
subCategory = Lowercase;
}
{
glyphname = "bha-u-sinh";
layers = (
{
layerId = "7977A986-4EFB-4152-84F8-5A02CD382AAF";
paths = (
{
closed = 1;
nodes = (
"540 -11 OFFCURVE",
"613 90 OFFCURVE",
"613 217 CURVE SMOOTH",
"613 303 OFFCURVE",
"577 357 OFFCURVE",
"511 357 CURVE SMOOTH",
"475 357 OFFCURVE",
"446 341 OFFCURVE",
"426 319 CURVE",
"436 312 LINE",
"473 515 OFFCURVE",
"563 586 OFFCURVE",
"676 586 CURVE SMOOTH",
"809 586 OFFCURVE",
"897 482 OFFCURVE",
"897 297 CURVE SMOOTH",
"897 135 OFFCURVE",
"833 54 OFFCURVE",
"712 27 CURVE",
"723 4 LINE",
"855 31 OFFCURVE",
"924 127 OFFCURVE",
"924 297 CURVE SMOOTH",
"924 488 OFFCURVE",
"832 612 OFFCURVE",
"676 612 CURVE SMOOTH",
"554 612 OFFCURVE",
"448 539 OFFCURVE",
"409 305 CURVE",
"434 297 LINE",
"457 320 OFFCURVE",
"482 331 OFFCURVE",
"508 331 CURVE SMOOTH",
"563 331 OFFCURVE",
"586 288 OFFCURVE",
"586 219 CURVE SMOOTH",
"586 107 OFFCURVE",
"526 15 OFFCURVE",
"360 15 CURVE SMOOTH",
"208 15 OFFCURVE",
"111 89 OFFCURVE",
"111 212 CURVE SMOOTH",
"111 351 OFFCURVE",
"228 387 OFFCURVE",
"306 387 CURVE SMOOTH",
"391 387 LINE",
"391 424 LINE SMOOTH",
"391 459 OFFCURVE",
"391 612 OFFCURVE",
"244 612 CURVE SMOOTH",
"168 612 OFFCURVE",
"96 569 OFFCURVE",
"96 490 CURVE SMOOTH",
"96 485 OFFCURVE",
"96 484 OFFCURVE",
"97 478 CURVE",
"126 478 LINE",
"125 484 OFFCURVE",
"125 486 OFFCURVE",
"125 488 CURVE SMOOTH",
"125 557 OFFCURVE",
"184 586 OFFCURVE",
"243 586 CURVE SMOOTH",
"364 586 OFFCURVE",
"364 472 OFFCURVE",
"364 411 CURVE SMOOTH",
"364 405 LINE",
"382 413 LINE",
"38 413 LINE",
"38 387 LINE",
"149 387 LINE",
"277 394 LINE",
"250 397 LINE",
"168 397 OFFCURVE",
"84 332 OFFCURVE",
"84 209 CURVE SMOOTH",
"84 73 OFFCURVE",
"192 -11 OFFCURVE",
"361 -11 CURVE SMOOTH"
);
},
{
closed = 1;
nodes = (
"857 -214 OFFCURVE",
"908 -155 OFFCURVE",
"908 -50 CURVE SMOOTH",
"908 -30 OFFCURVE",
"906 -13 OFFCURVE",
"904 0 CURVE",
"877 0 LINE",
"879 -14 OFFCURVE",
"881 -29 OFFCURVE",
"881 -49 CURVE SMOOTH",
"881 -136 OFFCURVE",
"847 -188 OFFCURVE",
"747 -188 CURVE SMOOTH",
"666 -188 OFFCURVE",
"628 -149 OFFCURVE",
"628 -88 CURVE SMOOTH",
"628 -36 OFFCURVE",
"655 -9 OFFCURVE",
"723 4 CURVE",
"712 27 LINE",
"640 15 OFFCURVE",
"601 -26 OFFCURVE",
"601 -90 CURVE SMOOTH",
"601 -155 OFFCURVE",
"642 -214 OFFCURVE",
"748 -214 CURVE SMOOTH"
);
}
);
width = 977;
},
{
layerId = UUID0;
paths = (
{
closed = 1;
nodes = (
"541 -11 OFFCURVE",
"634 89 OFFCURVE",
"634 221 CURVE SMOOTH",
"634 310 OFFCURVE",
"589 358 OFFCURVE",
"521 358 CURVE SMOOTH",
"499 358 OFFCURVE",
"476 353 OFFCURVE",
"459 342 CURVE",
"469 341 LINE",
"513 500 OFFCURVE",
"588 541 OFFCURVE",
"671 541 CURVE SMOOTH",
"792 541 OFFCURVE",
"863 448 OFFCURVE",
"863 283 CURVE SMOOTH",
"863 154 OFFCURVE",
"821 94 OFFCURVE",
"699 63 CURVE",
"724 1 LINE",
"851 37 OFFCURVE",
"938 97 OFFCURVE",
"938 290 CURVE SMOOTH",
"938 483 OFFCURVE",
"846 612 OFFCURVE",
"682 612 CURVE SMOOTH",
"574 612 OFFCURVE",
"429 554 OFFCURVE",
"392 296 CURVE",
"463 274 LINE",
"479 287 OFFCURVE",
"495 292 OFFCURVE",
"511 292 CURVE SMOOTH",
"542 292 OFFCURVE",
"561 273 OFFCURVE",
"561 223 CURVE SMOOTH",
"561 128 OFFCURVE",
"498 60 OFFCURVE",
"365 60 CURVE SMOOTH",
"228 60 OFFCURVE",
"149 129 OFFCURVE",
"149 223 CURVE SMOOTH",
"149 309 OFFCURVE",
"212 359 OFFCURVE",
"310 359 CURVE SMOOTH",
"381 359 LINE",
"381 410 LINE SMOOTH",
"381 510 OFFCURVE",
"356 612 OFFCURVE",
"226 612 CURVE SMOOTH",
"142 612 OFFCURVE",
"69 567 OFFCURVE",
"69 482 CURVE SMOOTH",
"69 480 OFFCURVE",
"69 480 OFFCURVE",
"69 478 CURVE",
"143 478 LINE",
"143 480 OFFCURVE",
"143 480 OFFCURVE",
"143 482 CURVE SMOOTH",
"143 521 OFFCURVE",
"175 546 OFFCURVE",
"223 546 CURVE SMOOTH",
"310 546 OFFCURVE",
"310 468 OFFCURVE",
"310 416 CURVE SMOOTH",
"310 412 LINE",
"342 425 LINE",
"30 425 LINE",
"30 360 LINE",
"79 360 LINE",
"221 372 LINE",
"221 379 LINE",
"127 375 OFFCURVE",
"76 310 OFFCURVE",
"76 217 CURVE SMOOTH",
"76 86 OFFCURVE",
"183 -11 OFFCURVE",
"363 -11 CURVE SMOOTH"
);
},
{
closed = 1;
nodes = (
"882 -225 OFFCURVE",
"938 -152 OFFCURVE",
"938 -44 CURVE SMOOTH",
"938 -32 OFFCURVE",
"938 -17 OFFCURVE",
"934 0 CURVE",
"864 0 LINE",
"866 -18 OFFCURVE",
"866 -22 OFFCURVE",
"866 -42 CURVE SMOOTH",
"866 -113 OFFCURVE",
"837 -156 OFFCURVE",
"742 -156 CURVE SMOOTH",
"667 -156 OFFCURVE",
"633 -127 OFFCURVE",
"633 -86 CURVE SMOOTH",
"633 -47 OFFCURVE",
"663 -17 OFFCURVE",
"724 1 CURVE",
"699 63 LINE",
"606 35 OFFCURVE",
"561 -19 OFFCURVE",
"561 -86 CURVE SMOOTH",
"561 -151 OFFCURVE",
"601 -225 OFFCURVE",
"741 -225 CURVE SMOOTH"
);
}
);
width = 974;
},
{
layerId = "C62AB4C0-B70D-46F6-9B13-45217A94AFC9";
paths = (
{
closed = 1;
nodes = (
"584 -11 OFFCURVE",
"678 90 OFFCURVE",
"678 228 CURVE SMOOTH",
"678 340 OFFCURVE",
"616 371 OFFCURVE",
"561 371 CURVE SMOOTH",
"544 371 OFFCURVE",
"528 368 OFFCURVE",
"492 360 CURVE",
"538 350 LINE",
"552 414 OFFCURVE",
"610 477 OFFCURVE",
"695 477 CURVE SMOOTH",
"784 477 OFFCURVE",
"835 411 OFFCURVE",
"835 303 CURVE SMOOTH",
"835 199 OFFCURVE",
"790 137 OFFCURVE",
"701 94 CURVE",
"750 -17 LINE",
"914 61 OFFCURVE",
"989 136 OFFCURVE",
"989 299 CURVE SMOOTH",
"989 477 OFFCURVE",
"896 622 OFFCURVE",
"705 622 CURVE SMOOTH",
"584 622 OFFCURVE",
"438 561 OFFCURVE",
"395 291 CURVE",
"488 255 LINE",
"490 268 OFFCURVE",
"501 272 OFFCURVE",
"511 272 CURVE SMOOTH",
"530 272 OFFCURVE",
"538 259 OFFCURVE",
"538 235 CURVE SMOOTH",
"538 184 OFFCURVE",
"498 134 OFFCURVE",
"387 134 CURVE SMOOTH",
"280 134 OFFCURVE",
"232 179 OFFCURVE",
"232 238 CURVE SMOOTH",
"232 295 OFFCURVE",
"277 330 OFFCURVE",
"352 330 CURVE SMOOTH",
"390 330 LINE",
"390 431 LINE SMOOTH",
"390 546 OFFCURVE",
"329 622 OFFCURVE",
"216 622 CURVE SMOOTH",
"110 622 OFFCURVE",
"48 562 OFFCURVE",
"48 490 CURVE SMOOTH",
"48 486 OFFCURVE",
"48 484 OFFCURVE",
"49 475 CURVE",
"183 475 LINE",
"183 475 OFFCURVE",
"183 476 OFFCURVE",
"183 476 CURVE",
"183 487 OFFCURVE",
"192 504 OFFCURVE",
"218 504 CURVE SMOOTH",
"246 504 OFFCURVE",
"260 482 OFFCURVE",
"260 449 CURVE SMOOTH",
"260 425 LINE",
"335 444 LINE",
"16 444 LINE",
"16 330 LINE",
"81 330 LINE",
"195 342 LINE",
"215 355 LINE",
"125 355 OFFCURVE",
"67 303 OFFCURVE",
"67 207 CURVE SMOOTH",
"67 99 OFFCURVE",
"144 -11 OFFCURVE",
"370 -11 CURVE SMOOTH"
);
},
{
closed = 1;
nodes = (
"946 -248 OFFCURVE",
"981 -130 OFFCURVE",
"981 -45 CURVE SMOOTH",
"981 -28 OFFCURVE",
"979 -10 OFFCURVE",
"977 0 CURVE",
"838 0 LINE",
"839 -14 OFFCURVE",
"840 -24 OFFCURVE",
"840 -35 CURVE SMOOTH",
"840 -83 OFFCURVE",
"822 -122 OFFCURVE",
"758 -122 CURVE SMOOTH",
"715 -122 OFFCURVE",
"699 -103 OFFCURVE",
"699 -77 CURVE SMOOTH",
"699 -51 OFFCURVE",
"715 -35 OFFCURVE",
"750 -17 CURVE",
"701 94 LINE",
"606 43 OFFCURVE",
"542 5 OFFCURVE",
"542 -83 CURVE SMOOTH",
"542 -170 OFFCURVE",
"598 -248 OFFCURVE",
"753 -248 CURVE SMOOTH"
);
}
);
width = 1005;
},
{
layerId = "CF8E177F-0CDC-40C1-8828-F158AA64F32E";
paths = (
{
closed = 1;
nodes = (
"385 -11 OFFCURVE",
"445 78 OFFCURVE",
"445 207 CURVE SMOOTH",
"445 298 OFFCURVE",
"414 357 OFFCURVE",
"363 357 CURVE SMOOTH",
"341 357 OFFCURVE",
"319 346 OFFCURVE",
"302 321 CURVE",
"309 312 LINE",
"345 513 OFFCURVE",
"402 586 OFFCURVE",
"483 586 CURVE SMOOTH",
"577 586 OFFCURVE",
"625 483 OFFCURVE",
"625 304 CURVE SMOOTH",
"625 104 OFFCURVE",
"569 53 OFFCURVE",
"478 18 CURVE",
"487 -6 LINE",
"581 28 OFFCURVE",
"652 79 OFFCURVE",
"652 303 CURVE SMOOTH",
"652 497 OFFCURVE",
"596 612 OFFCURVE",
"483 612 CURVE SMOOTH",
"397 612 OFFCURVE",
"319 548 OFFCURVE",
"282 305 CURVE",
"307 297 LINE",
"321 318 OFFCURVE",
"337 331 OFFCURVE",
"358 331 CURVE SMOOTH",
"397 331 OFFCURVE",
"419 284 OFFCURVE",
"419 207 CURVE SMOOTH",
"419 88 OFFCURVE",
"368 15 OFFCURVE",
"251 15 CURVE SMOOTH",
"147 15 OFFCURVE",
"72 73 OFFCURVE",
"72 211 CURVE SMOOTH",
"72 342 OFFCURVE",
"143 399 OFFCURVE",
"215 399 CURVE SMOOTH",
"280 399 LINE",
"280 457 LINE SMOOTH",
"280 549 OFFCURVE",
"251 612 OFFCURVE",
"176 612 CURVE SMOOTH",
"107 612 OFFCURVE",
"77 554 OFFCURVE",
"77 500 CURVE SMOOTH",
"77 493 OFFCURVE",
"77 490 OFFCURVE",
"78 480 CURVE",
"105 480 LINE",
"104 488 OFFCURVE",
"104 492 OFFCURVE",
"104 497 CURVE SMOOTH",
"104 540 OFFCURVE",
"123 586 OFFCURVE",
"176 586 CURVE SMOOTH",
"235 586 OFFCURVE",
"254 529 OFFCURVE",
"254 457 CURVE SMOOTH",
"254 416 LINE",
"266 425 LINE",
"26 425 LINE",
"26 399 LINE",
"102 399 LINE",
"167 406 LINE",
"167 411 LINE",
"92 392 OFFCURVE",
"45 312 OFFCURVE",
"45 207 CURVE SMOOTH",
"45 62 OFFCURVE",
"131 -11 OFFCURVE",
"252 -11 CURVE SMOOTH"
);
},
{
closed = 1;
nodes = (
"617 -214 OFFCURVE",
"644 -141 OFFCURVE",
"644 -67 CURVE SMOOTH",
"644 -43 OFFCURVE",
"641 -16 OFFCURVE",
"638 0 CURVE",
"612 0 LINE",
"615 -18 OFFCURVE",
"617 -44 OFFCURVE",
"617 -65 CURVE SMOOTH",
"617 -124 OFFCURVE",
"603 -188 OFFCURVE",
"511 -188 CURVE SMOOTH",
"451 -188 OFFCURVE",
"413 -160 OFFCURVE",
"413 -99 CURVE SMOOTH",
"413 -48 OFFCURVE",
"438 -26 OFFCURVE",
"487 -6 CURVE",
"478 18 LINE",
"423 -1 OFFCURVE",
"386 -36 OFFCURVE",
"386 -99 CURVE SMOOTH",
"386 -167 OFFCURVE",
"431 -214 OFFCURVE",
"512 -214 CURVE SMOOTH"
);
}
);
width = 692;
},
{
layerId = "56AEB5FB-BA14-4784-B08F-18006463EEDB";
paths = (
{
closed = 1;
nodes = (
"428 -11 OFFCURVE",
"493 113 OFFCURVE",
"493 227 CURVE SMOOTH",
"493 312 OFFCURVE",
"456 358 OFFCURVE",
"405 358 CURVE SMOOTH",
"388 358 OFFCURVE",
"372 353 OFFCURVE",
"360 341 CURVE",
"369 339 LINE",
"400 495 OFFCURVE",
"447 545 OFFCURVE",
"510 545 CURVE SMOOTH",
"585 545 OFFCURVE",
"631 470 OFFCURVE",
"631 313 CURVE SMOOTH",
"631 159 OFFCURVE",
"590 91 OFFCURVE",
"502 51 CURVE",
"537 -8 LINE",
"642 40 OFFCURVE",
"701 112 OFFCURVE",
"701 304 CURVE SMOOTH",
"701 500 OFFCURVE",
"637 612 OFFCURVE",
"512 612 CURVE SMOOTH",
"411 612 OFFCURVE",
"336 543 OFFCURVE",
"296 291 CURVE",
"358 271 LINE",
"366 288 OFFCURVE",
"377 294 OFFCURVE",
"389 294 CURVE SMOOTH",
"410 294 OFFCURVE",
"425 275 OFFCURVE",
"425 226 CURVE SMOOTH",
"425 124 OFFCURVE",
"362 56 OFFCURVE",
"266 56 CURVE SMOOTH",
"176 56 OFFCURVE",
"110 114 OFFCURVE",
"110 220 CURVE SMOOTH",
"110 322 OFFCURVE",
"168 375 OFFCURVE",
"226 375 CURVE SMOOTH",
"291 375 LINE",
"291 471 LINE SMOOTH",
"291 546 OFFCURVE",
"262 612 OFFCURVE",
"176 612 CURVE SMOOTH",
"105 612 OFFCURVE",
"59 564 OFFCURVE",
"59 496 CURVE SMOOTH",
"59 490 OFFCURVE",
"59 482 OFFCURVE",
"59 480 CURVE",
"127 480 LINE",
"127 482 OFFCURVE",
"127 486 OFFCURVE",
"127 489 CURVE SMOOTH",
"127 524 OFFCURVE",
"143 549 OFFCURVE",
"174 549 CURVE SMOOTH",
"211 549 OFFCURVE",
"224 517 OFFCURVE",
"224 471 CURVE SMOOTH",
"224 414 LINE",
"257 437 LINE",
"26 437 LINE",
"26 375 LINE",
"73 375 LINE",
"141 382 LINE",
"141 390 LINE",
"82 368 OFFCURVE",
"41 310 OFFCURVE",
"41 216 CURVE SMOOTH",
"41 79 OFFCURVE",
"132 -11 OFFCURVE",
"268 -11 CURVE SMOOTH"
);
},
{
closed = 1;
nodes = (
"660 -225 OFFCURVE",
"706 -153 OFFCURVE",
"706 -48 CURVE SMOOTH",
"706 -32 OFFCURVE",
"705 -17 OFFCURVE",
"702 0 CURVE",
"634 0 LINE",
"637 -16 OFFCURVE",
"638 -30 OFFCURVE",
"638 -46 CURVE SMOOTH",
"638 -116 OFFCURVE",
"618 -159 OFFCURVE",
"551 -159 CURVE SMOOTH",
"502 -159 OFFCURVE",
"472 -135 OFFCURVE",
"472 -92 CURVE SMOOTH",
"472 -50 OFFCURVE",
"499 -25 OFFCURVE",
"537 -8 CURVE",
"502 51 LINE",
"432 19 OFFCURVE",
"399 -25 OFFCURVE",
"399 -87 CURVE SMOOTH",
"399 -160 OFFCURVE",
"448 -225 OFFCURVE",
"550 -225 CURVE SMOOTH"
);
}
);
width = 740;
},
{
layerId = "DC607D84-584B-45E6-A9EB-D1AF471CA2AE";
paths = (
{
closed = 1;
nodes = (
"507 -11 OFFCURVE",
"583 95 OFFCURVE",
"583 233 CURVE SMOOTH",
"583 346 OFFCURVE",
"529 385 OFFCURVE",
"474 385 CURVE SMOOTH",
"453 385 OFFCURVE",
"433 379 OFFCURVE",
"425 376 CURVE",
"478 362 LINE",
"504 422 OFFCURVE",
"532 473 OFFCURVE",
"587 473 CURVE SMOOTH",
"637 473 OFFCURVE",
"678 432 OFFCURVE",
"678 297 CURVE SMOOTH",
"678 182 OFFCURVE",
"649 111 OFFCURVE",
"564 66 CURVE",
"636 -25 LINE",
"745 31 OFFCURVE",
"815 118 OFFCURVE",
"815 304 CURVE SMOOTH",
"815 502 OFFCURVE",
"731 622 OFFCURVE",
"593 622 CURVE SMOOTH",
"452 622 OFFCURVE",
"387 491 OFFCURVE",
"338 286 CURVE",
"425 257 LINE",
"428 264 OFFCURVE",
"432 278 OFFCURVE",
"445 278 CURVE SMOOTH",
"456 278 OFFCURVE",
"461 267 OFFCURVE",
"461 243 CURVE SMOOTH",
"461 165 OFFCURVE",
"406 134 OFFCURVE",
"326 134 CURVE SMOOTH",
"233 134 OFFCURVE",
"189 174 OFFCURVE",
"189 238 CURVE SMOOTH",
"189 293 OFFCURVE",
"220 341 OFFCURVE",
"287 339 CURVE SMOOTH",
"331 338 LINE",
"331 461 LINE SMOOTH",
"331 522 OFFCURVE",
"315 622 OFFCURVE",
"198 622 CURVE SMOOTH",
"121 622 OFFCURVE",
"68 575 OFFCURVE",
"68 499 CURVE SMOOTH",
"68 494 OFFCURVE",
"68 489 OFFCURVE",
"69 479 CURVE",
"189 479 LINE",
"189 480 OFFCURVE",
"189 484 OFFCURVE",
"189 485 CURVE SMOOTH",
"189 498 OFFCURVE",
"198 508 OFFCURVE",
"209 508 CURVE SMOOTH",
"228 508 OFFCURVE",
"233 478 OFFCURVE",
"226 441 CURVE SMOOTH",
"223 425 LINE",
"260 455 LINE",
"20 455 LINE",
"20 338 LINE",
"57 338 LINE",
"130 345 LINE",
"130 364 LINE",
"79 348 OFFCURVE",
"46 271 OFFCURVE",
"49 198 CURVE SMOOTH",
"53 99 OFFCURVE",
"126 -11 OFFCURVE",
"321 -11 CURVE SMOOTH"
);
},
{
closed = 1;
nodes = (
"766 -258 OFFCURVE",
"815 -159 OFFCURVE",
"815 -54 CURVE SMOOTH",
"815 -39 OFFCURVE",
"814 -24 OFFCURVE",
"812 -13 CURVE",
"684 -13 LINE",
"684 -28 OFFCURVE",
"685 -39 OFFCURVE",
"685 -50 CURVE SMOOTH",
"685 -111 OFFCURVE",
"654 -130 OFFCURVE",
"622 -130 CURVE SMOOTH",
"596 -130 OFFCURVE",
"580 -116 OFFCURVE",
"580 -93 CURVE SMOOTH",
"580 -67 OFFCURVE",
"600 -46 OFFCURVE",
"636 -25 CURVE",
"564 66 LINE",
"515 40 OFFCURVE",
"432 -11 OFFCURVE",
"432 -106 CURVE SMOOTH",
"432 -189 OFFCURVE",
"499 -258 OFFCURVE",
"619 -258 CURVE SMOOTH"
);
}
);
width = 841;
}
);
leftMetricsKey = "bha-sinh";
rightMetricsKey = "bha-sinh";
}
{
glyphname = "bha-uu-sinh";
layers = (
{
layerId = "7977A986-4EFB-4152-84F8-5A02CD382AAF";
paths = (
{
closed = 1;
nodes = (
"540 -11 OFFCURVE",
"613 90 OFFCURVE",
"613 217 CURVE SMOOTH",
"613 303 OFFCURVE",
"577 357 OFFCURVE",
"511 357 CURVE SMOOTH",
"475 357 OFFCURVE",
"446 341 OFFCURVE",
"426 319 CURVE",
"436 312 LINE",
"473 514 OFFCURVE",
"563 586 OFFCURVE",
"675 586 CURVE SMOOTH",
"807 586 OFFCURVE",
"897 483 OFFCURVE",
"897 301 CURVE SMOOTH",
"897 154 OFFCURVE",
"835 21 OFFCURVE",
"721 21 CURVE SMOOTH",
"705 21 OFFCURVE",
"692 24 OFFCURVE",
"677 29 CURVE",
"677 7 LINE",
"689 0 OFFCURVE",
"706 -3 OFFCURVE",
"725 -3 CURVE SMOOTH",
"861 -3 OFFCURVE",
"924 146 OFFCURVE",
"924 300 CURVE SMOOTH",
"924 487 OFFCURVE",
"832 612 OFFCURVE",
"676 612 CURVE SMOOTH",
"554 612 OFFCURVE",
"448 539 OFFCURVE",
"409 305 CURVE",
"434 297 LINE",
"457 320 OFFCURVE",
"482 331 OFFCURVE",
"508 331 CURVE SMOOTH",
"563 331 OFFCURVE",
"586 288 OFFCURVE",
"586 219 CURVE SMOOTH",
"586 107 OFFCURVE",
"526 15 OFFCURVE",
"360 15 CURVE SMOOTH",
"208 15 OFFCURVE",
"111 89 OFFCURVE",
"111 212 CURVE SMOOTH",
"111 351 OFFCURVE",
"228 387 OFFCURVE",
"306 387 CURVE SMOOTH",
"391 387 LINE",
"391 424 LINE SMOOTH",
"391 459 OFFCURVE",
"391 612 OFFCURVE",
"244 612 CURVE SMOOTH",
"168 612 OFFCURVE",
"96 569 OFFCURVE",
"96 490 CURVE SMOOTH",
"96 485 OFFCURVE",
"96 484 OFFCURVE",
"97 478 CURVE",
"126 478 LINE",
"125 484 OFFCURVE",
"125 486 OFFCURVE",
"125 488 CURVE SMOOTH",
"125 557 OFFCURVE",
"184 586 OFFCURVE",
"243 586 CURVE SMOOTH",
"364 586 OFFCURVE",
"364 472 OFFCURVE",
"364 411 CURVE SMOOTH",
"364 405 LINE",
"382 413 LINE",
"38 413 LINE",
"38 387 LINE",
"149 387 LINE",
"277 394 LINE",
"250 397 LINE",
"168 397 OFFCURVE",
"84 332 OFFCURVE",
"84 209 CURVE SMOOTH",
"84 73 OFFCURVE",
"192 -11 OFFCURVE",
"361 -11 CURVE SMOOTH"
);
},
{
closed = 1;
nodes = (
"871 -248 OFFCURVE",
"920 -189 OFFCURVE",
"920 -85 CURVE SMOOTH",
"920 -64 OFFCURVE",
"918 -47 OFFCURVE",
"916 -34 CURVE",
"889 -34 LINE",
"891 -48 OFFCURVE",
"893 -63 OFFCURVE",
"893 -83 CURVE SMOOTH",
"893 -170 OFFCURVE",
"860 -222 OFFCURVE",
"743 -222 CURVE SMOOTH",
"654 -222 OFFCURVE",
"616 -190 OFFCURVE",
"616 -142 CURVE SMOOTH",
"616 -98 OFFCURVE",
"647 -70 OFFCURVE",
"717 -70 CURVE SMOOTH",
"730 -70 OFFCURVE",
"743 -71 OFFCURVE",
"755 -73 CURVE",
"764 -54 LINE",
"677 29 LINE",
"658 15 LINE",
"734 -59 LINE",
"734 -49 LINE",
"726 -48 OFFCURVE",
"710 -47 OFFCURVE",
"698 -47 CURVE SMOOTH",
"619 -47 OFFCURVE",
"589 -96 OFFCURVE",
"589 -142 CURVE SMOOTH",
"589 -199 OFFCURVE",
"632 -248 OFFCURVE",
"744 -248 CURVE SMOOTH"
);
}
);
width = 977;
},
{
layerId = UUID0;
paths = (
{
closed = 1;
nodes = (
"541 -11 OFFCURVE",
"634 89 OFFCURVE",
"634 221 CURVE SMOOTH",
"634 310 OFFCURVE",
"589 358 OFFCURVE",
"521 358 CURVE SMOOTH",
"499 358 OFFCURVE",
"476 353 OFFCURVE",
"459 342 CURVE",
"469 341 LINE",
"513 499 OFFCURVE",
"588 541 OFFCURVE",
"670 541 CURVE SMOOTH",
"792 541 OFFCURVE",
"863 442 OFFCURVE",
"863 296 CURVE SMOOTH",
"863 170 OFFCURVE",
"807 65 OFFCURVE",
"716 65 CURVE SMOOTH",
"703 65 OFFCURVE",
"689 67 OFFCURVE",
"673 73 CURVE",
"673 21 LINE",
"695 12 OFFCURVE",
"717 7 OFFCURVE",
"739 7 CURVE SMOOTH",
"849 7 OFFCURVE",
"938 122 OFFCURVE",
"938 295 CURVE SMOOTH",
"938 477 OFFCURVE",
"843 612 OFFCURVE",
"679 612 CURVE SMOOTH",
"574 612 OFFCURVE",
"430 554 OFFCURVE",
"392 296 CURVE",
"463 274 LINE",
"479 287 OFFCURVE",
"495 292 OFFCURVE",
"511 292 CURVE SMOOTH",
"542 292 OFFCURVE",
"561 273 OFFCURVE",
"561 223 CURVE SMOOTH",
"561 128 OFFCURVE",
"498 60 OFFCURVE",
"365 60 CURVE SMOOTH",
"228 60 OFFCURVE",
"149 129 OFFCURVE",
"149 223 CURVE SMOOTH",
"149 309 OFFCURVE",
"212 359 OFFCURVE",
"310 359 CURVE SMOOTH",
"381 359 LINE",
"381 410 LINE SMOOTH",
"381 510 OFFCURVE",
"356 612 OFFCURVE",
"226 612 CURVE SMOOTH",
"142 612 OFFCURVE",
"69 567 OFFCURVE",
"69 482 CURVE SMOOTH",
"69 480 OFFCURVE",
"69 480 OFFCURVE",
"69 478 CURVE",
"143 478 LINE",
"143 480 OFFCURVE",
"143 480 OFFCURVE",
"143 482 CURVE SMOOTH",
"143 521 OFFCURVE",
"175 546 OFFCURVE",
"223 546 CURVE SMOOTH",
"310 546 OFFCURVE",
"310 468 OFFCURVE",
"310 416 CURVE SMOOTH",
"310 412 LINE",
"342 425 LINE",
"30 425 LINE",
"30 360 LINE",
"79 360 LINE",
"221 372 LINE",
"221 379 LINE",
"127 375 OFFCURVE",
"76 310 OFFCURVE",
"76 217 CURVE SMOOTH",
"76 86 OFFCURVE",
"183 -11 OFFCURVE",
"363 -11 CURVE SMOOTH"
);
},
{
closed = 1;
nodes = (
"878 -257 OFFCURVE",
"938 -183 OFFCURVE",
"938 -75 CURVE SMOOTH",
"938 -61 OFFCURVE",
"937 -47 OFFCURVE",
"934 -29 CURVE",
"864 -29 LINE",
"865 -46 OFFCURVE",
"866 -54 OFFCURVE",
"866 -69 CURVE SMOOTH",
"866 -145 OFFCURVE",
"837 -188 OFFCURVE",
"736 -188 CURVE SMOOTH",
"663 -188 OFFCURVE",
"638 -164 OFFCURVE",
"638 -130 CURVE SMOOTH",
"638 -105 OFFCURVE",
"653 -81 OFFCURVE",
"716 -81 CURVE SMOOTH",
"730 -81 OFFCURVE",
"748 -82 OFFCURVE",
"758 -83 CURVE",
"793 -39 LINE",
"673 73 LINE",
"634 39 LINE",
"734 -67 LINE",
"733 -27 LINE",
"725 -27 OFFCURVE",
"711 -27 OFFCURVE",
"703 -27 CURVE SMOOTH",
"608 -27 OFFCURVE",
"566 -76 OFFCURVE",
"566 -135 CURVE SMOOTH",
"566 -203 OFFCURVE",
"620 -257 OFFCURVE",
"737 -257 CURVE SMOOTH"
);
}
);
width = 974;
},
{
layerId = "C62AB4C0-B70D-46F6-9B13-45217A94AFC9";
paths = (
{
closed = 1;
nodes = (
"584 -11 OFFCURVE",
"678 90 OFFCURVE",
"678 228 CURVE SMOOTH",
"678 340 OFFCURVE",
"616 371 OFFCURVE",
"561 371 CURVE SMOOTH",
"544 371 OFFCURVE",
"528 368 OFFCURVE",
"492 360 CURVE",
"538 350 LINE",
"551 412 OFFCURVE",
"610 477 OFFCURVE",
"692 477 CURVE SMOOTH",
"784 477 OFFCURVE",
"835 396 OFFCURVE",
"835 284 CURVE SMOOTH",
"835 196 OFFCURVE",
"804 100 OFFCURVE",
"730 100 CURVE SMOOTH",
"719 100 OFFCURVE",
"707 102 OFFCURVE",
"694 108 CURVE",
"694 26 LINE",
"725 12 OFFCURVE",
"748 7 OFFCURVE",
"775 7 CURVE SMOOTH",
"902 7 OFFCURVE",
"989 113 OFFCURVE",
"989 286 CURVE SMOOTH",
"989 460 OFFCURVE",
"896 622 OFFCURVE",
"702 622 CURVE SMOOTH",
"584 622 OFFCURVE",
"437 559 OFFCURVE",
"395 291 CURVE",
"488 255 LINE",
"490 268 OFFCURVE",
"501 272 OFFCURVE",
"511 272 CURVE SMOOTH",
"530 272 OFFCURVE",
"538 259 OFFCURVE",
"538 235 CURVE SMOOTH",
"538 184 OFFCURVE",
"498 134 OFFCURVE",
"387 134 CURVE SMOOTH",
"280 134 OFFCURVE",
"232 179 OFFCURVE",
"232 238 CURVE SMOOTH",
"232 295 OFFCURVE",
"277 330 OFFCURVE",
"352 330 CURVE SMOOTH",
"390 330 LINE",
"390 431 LINE SMOOTH",
"390 546 OFFCURVE",
"329 622 OFFCURVE",
"216 622 CURVE SMOOTH",
"110 622 OFFCURVE",
"48 562 OFFCURVE",
"48 490 CURVE SMOOTH",
"48 486 OFFCURVE",
"48 484 OFFCURVE",
"49 475 CURVE",
"183 475 LINE",
"183 475 OFFCURVE",
"183 476 OFFCURVE",
"183 476 CURVE",
"183 487 OFFCURVE",
"192 504 OFFCURVE",
"218 504 CURVE SMOOTH",
"246 504 OFFCURVE",
"260 482 OFFCURVE",
"260 449 CURVE SMOOTH",
"260 425 LINE",
"335 444 LINE",
"16 444 LINE",
"16 330 LINE",
"81 330 LINE",
"195 342 LINE",
"215 355 LINE",
"125 355 OFFCURVE",
"67 303 OFFCURVE",
"67 207 CURVE SMOOTH",
"67 99 OFFCURVE",
"144 -11 OFFCURVE",
"370 -11 CURVE SMOOTH"
);
},
{
closed = 1;
nodes = (
"946 -271 OFFCURVE",
"981 -158 OFFCURVE",
"981 -78 CURVE SMOOTH",
"981 -59 OFFCURVE",
"979 -43 OFFCURVE",
"977 -38 CURVE",
"838 -39 LINE",
"839 -47 OFFCURVE",
"840 -56 OFFCURVE",
"840 -67 CURVE SMOOTH",
"840 -114 OFFCURVE",
"823 -144 OFFCURVE",
"748 -144 CURVE SMOOTH",
"701 -144 OFFCURVE",
"686 -133 OFFCURVE",
"686 -116 CURVE SMOOTH",
"686 -97 OFFCURVE",
"702 -88 OFFCURVE",
"729 -88 CURVE SMOOTH",
"749 -88 OFFCURVE",
"761 -93 OFFCURVE",
"771 -96 CURVE",
"831 -20 LINE",
"694 108 LINE",
"626 32 LINE",
"736 -79 LINE",
"736 6 LINE",
"729 6 OFFCURVE",
"719 6 OFFCURVE",
"713 6 CURVE SMOOTH",
"612 6 OFFCURVE",
"546 -56 OFFCURVE",
"546 -135 CURVE SMOOTH",
"546 -217 OFFCURVE",
"616 -271 OFFCURVE",
"753 -271 CURVE SMOOTH"
);
}
);
width = 1005;
},
{
layerId = "CF8E177F-0CDC-40C1-8828-F158AA64F32E";
paths = (
{
closed = 1;
nodes = (
"385 -11 OFFCURVE",
"445 78 OFFCURVE",
"445 207 CURVE SMOOTH",
"445 298 OFFCURVE",
"414 357 OFFCURVE",
"363 357 CURVE SMOOTH",
"341 357 OFFCURVE",
"319 346 OFFCURVE",
"302 321 CURVE",
"309 312 LINE",
"345 513 OFFCURVE",
"402 586 OFFCURVE",
"483 586 CURVE SMOOTH",
"577 586 OFFCURVE",
"625 482 OFFCURVE",
"625 306 CURVE SMOOTH",
"625 107 OFFCURVE",
"564 24 OFFCURVE",
"488 24 CURVE SMOOTH",
"474 24 OFFCURVE",
"463 27 OFFCURVE",
"450 32 CURVE",
"450 9 LINE",
"474 1 OFFCURVE",
"481 -1 OFFCURVE",
"494 -1 CURVE SMOOTH",
"588 -1 OFFCURVE",
"652 92 OFFCURVE",
"652 304 CURVE SMOOTH",
"652 497 OFFCURVE",
"596 612 OFFCURVE",
"483 612 CURVE SMOOTH",
"397 612 OFFCURVE",
"319 548 OFFCURVE",
"282 305 CURVE",
"307 297 LINE",
"321 318 OFFCURVE",
"337 331 OFFCURVE",
"358 331 CURVE SMOOTH",
"397 331 OFFCURVE",
"419 284 OFFCURVE",
"419 207 CURVE SMOOTH",
"419 88 OFFCURVE",
"368 15 OFFCURVE",
"251 15 CURVE SMOOTH",
"147 15 OFFCURVE",
"72 73 OFFCURVE",
"72 211 CURVE SMOOTH",
"72 342 OFFCURVE",
"143 399 OFFCURVE",
"215 399 CURVE SMOOTH",
"280 399 LINE",
"280 457 LINE SMOOTH",
"280 549 OFFCURVE",
"251 612 OFFCURVE",
"176 612 CURVE SMOOTH",
"107 612 OFFCURVE",
"77 554 OFFCURVE",
"77 500 CURVE SMOOTH",
"77 493 OFFCURVE",
"77 490 OFFCURVE",
"78 480 CURVE",
"105 480 LINE",
"104 488 OFFCURVE",
"104 492 OFFCURVE",
"104 497 CURVE SMOOTH",
"104 540 OFFCURVE",
"123 586 OFFCURVE",
"176 586 CURVE SMOOTH",
"235 586 OFFCURVE",
"254 529 OFFCURVE",
"254 457 CURVE SMOOTH",
"254 416 LINE",
"266 425 LINE",
"26 425 LINE",
"26 399 LINE",
"102 399 LINE",
"167 406 LINE",
"167 411 LINE",
"92 392 OFFCURVE",
"45 312 OFFCURVE",
"45 207 CURVE SMOOTH",
"45 62 OFFCURVE",
"131 -11 OFFCURVE",
"252 -11 CURVE SMOOTH"
);
},
{
closed = 1;
nodes = (
"614 -249 OFFCURVE",
"644 -176 OFFCURVE",
"644 -101 CURVE SMOOTH",
"644 -78 OFFCURVE",
"641 -51 OFFCURVE",
"638 -35 CURVE",
"611 -35 LINE",
"615 -53 OFFCURVE",
"617 -80 OFFCURVE",
"617 -100 CURVE SMOOTH",
"617 -159 OFFCURVE",
"600 -223 OFFCURVE",
"509 -223 CURVE SMOOTH",
"444 -223 OFFCURVE",
"413 -192 OFFCURVE",
"413 -146 CURVE SMOOTH",
"413 -98 OFFCURVE",
"446 -70 OFFCURVE",
"505 -70 CURVE SMOOTH",
"516 -70 OFFCURVE",
"523 -71 OFFCURVE",
"531 -72 CURVE",
"541 -58 LINE",
"450 32 LINE",
"432 17 LINE",
"516 -64 LINE",
"516 -47 LINE",
"511 -47 OFFCURVE",
"507 -48 OFFCURVE",
"505 -48 CURVE SMOOTH",
"419 -48 OFFCURVE",
"386 -92 OFFCURVE",
"386 -146 CURVE SMOOTH",
"386 -210 OFFCURVE",
"432 -249 OFFCURVE",
"507 -249 CURVE SMOOTH"
);
}
);
width = 692;
},
{
layerId = "56AEB5FB-BA14-4784-B08F-18006463EEDB";
paths = (
{
closed = 1;
nodes = (
"428 -11 OFFCURVE",
"493 113 OFFCURVE",
"493 227 CURVE SMOOTH",
"493 312 OFFCURVE",
"456 358 OFFCURVE",
"405 358 CURVE SMOOTH",
"388 358 OFFCURVE",
"372 353 OFFCURVE",
"360 341 CURVE",
"369 339 LINE",
"400 495 OFFCURVE",
"447 545 OFFCURVE",
"509 545 CURVE SMOOTH",
"585 545 OFFCURVE",
"631 467 OFFCURVE",
"631 309 CURVE SMOOTH",
"631 173 OFFCURVE",
"599 59 OFFCURVE",
"529 59 CURVE SMOOTH",
"520 59 OFFCURVE",
"510 61 OFFCURVE",
"499 66 CURVE",
"500 11 LINE",
"516 6 OFFCURVE",
"531 4 OFFCURVE",
"544 4 CURVE SMOOTH",
"648 4 OFFCURVE",
"701 131 OFFCURVE",
"701 307 CURVE SMOOTH",
"701 494 OFFCURVE",
"637 612 OFFCURVE",
"511 612 CURVE SMOOTH",
"411 612 OFFCURVE",
"335 541 OFFCURVE",
"296 291 CURVE",
"358 271 LINE",
"366 288 OFFCURVE",
"377 294 OFFCURVE",
"389 294 CURVE SMOOTH",
"410 294 OFFCURVE",
"425 275 OFFCURVE",
"425 226 CURVE SMOOTH",
"425 124 OFFCURVE",
"362 56 OFFCURVE",
"266 56 CURVE SMOOTH",
"176 56 OFFCURVE",
"110 114 OFFCURVE",
"110 220 CURVE SMOOTH",
"110 322 OFFCURVE",
"168 375 OFFCURVE",
"226 375 CURVE SMOOTH",
"291 375 LINE",
"291 471 LINE SMOOTH",
"291 546 OFFCURVE",
"262 612 OFFCURVE",
"176 612 CURVE SMOOTH",
"105 612 OFFCURVE",
"59 564 OFFCURVE",
"59 496 CURVE SMOOTH",
"59 490 OFFCURVE",
"59 482 OFFCURVE",
"59 480 CURVE",
"127 480 LINE",
"127 482 OFFCURVE",
"127 486 OFFCURVE",
"127 489 CURVE SMOOTH",
"127 524 OFFCURVE",
"143 549 OFFCURVE",
"174 549 CURVE SMOOTH",
"211 549 OFFCURVE",
"224 517 OFFCURVE",
"224 471 CURVE SMOOTH",
"224 414 LINE",
"257 437 LINE",
"26 437 LINE",
"26 375 LINE",
"73 375 LINE",
"141 382 LINE",
"141 390 LINE",
"82 368 OFFCURVE",
"41 310 OFFCURVE",
"41 216 CURVE SMOOTH",
"41 79 OFFCURVE",
"132 -11 OFFCURVE",
"268 -11 CURVE SMOOTH"
);
},
{
closed = 1;
nodes = (
"664 -257 OFFCURVE",
"706 -185 OFFCURVE",
"706 -79 CURVE SMOOTH",
"706 -63 OFFCURVE",
"705 -47 OFFCURVE",
"702 -30 CURVE",
"635 -30 LINE",
"637 -50 OFFCURVE",
"638 -62 OFFCURVE",
"638 -79 CURVE SMOOTH",
"638 -148 OFFCURVE",
"622 -191 OFFCURVE",
"548 -191 CURVE SMOOTH",
"502 -191 OFFCURVE",
"475 -173 OFFCURVE",
"475 -136 CURVE SMOOTH",
"475 -102 OFFCURVE",
"498 -81 OFFCURVE",
"543 -81 CURVE SMOOTH",
"553 -81 OFFCURVE",
"563 -82 OFFCURVE",
"571 -83 CURVE",
"605 -40 LINE",
"499 66 LINE",
"464 29 LINE",
"553 -66 LINE",
"553 -29 LINE",
"551 -29 OFFCURVE",
"545 -29 OFFCURVE",
"541 -29 CURVE SMOOTH",
"452 -29 OFFCURVE",
"407 -74 OFFCURVE",
"407 -139 CURVE SMOOTH",
"407 -213 OFFCURVE",
"464 -257 OFFCURVE",
"550 -257 CURVE SMOOTH"
);
}
);
width = 740;
},
{
layerId = "DC607D84-584B-45E6-A9EB-D1AF471CA2AE";
paths = (
{
closed = 1;
nodes = (
"507 -11 OFFCURVE",
"583 95 OFFCURVE",
"583 233 CURVE SMOOTH",
"583 346 OFFCURVE",
"529 385 OFFCURVE",
"474 385 CURVE SMOOTH",
"453 385 OFFCURVE",
"433 379 OFFCURVE",
"425 376 CURVE",
"478 362 LINE",
"504 422 OFFCURVE",
"532 473 OFFCURVE",
"586 473 CURVE SMOOTH",
"641 473 OFFCURVE",
"678 421 OFFCURVE",
"678 292 CURVE SMOOTH",
"678 190 OFFCURVE",
"656 81 OFFCURVE",
"597 81 CURVE SMOOTH",
"588 81 OFFCURVE",
"579 84 OFFCURVE",
"568 89 CURVE",
"574 6 LINE",
"597 -4 OFFCURVE",
"618 -3 OFFCURVE",
"651 -3 CURVE SMOOTH",
"753 -3 OFFCURVE",
"815 136 OFFCURVE",
"815 300 CURVE SMOOTH",
"815 482 OFFCURVE",
"742 622 OFFCURVE",
"593 622 CURVE SMOOTH",
"452 622 OFFCURVE",
"387 491 OFFCURVE",
"338 286 CURVE",
"425 257 LINE",
"428 264 OFFCURVE",
"432 278 OFFCURVE",
"445 278 CURVE SMOOTH",
"456 278 OFFCURVE",
"461 267 OFFCURVE",
"461 243 CURVE SMOOTH",
"461 165 OFFCURVE",
"406 134 OFFCURVE",
"326 134 CURVE SMOOTH",
"233 134 OFFCURVE",
"189 174 OFFCURVE",
"189 238 CURVE SMOOTH",
"189 293 OFFCURVE",
"220 341 OFFCURVE",
"287 339 CURVE SMOOTH",
"331 338 LINE",
"331 461 LINE SMOOTH",
"331 522 OFFCURVE",
"315 622 OFFCURVE",
"198 622 CURVE SMOOTH",
"121 622 OFFCURVE",
"68 575 OFFCURVE",
"68 499 CURVE SMOOTH",
"68 494 OFFCURVE",
"68 489 OFFCURVE",
"69 479 CURVE",
"189 479 LINE",
"189 480 OFFCURVE",
"189 484 OFFCURVE",
"189 485 CURVE SMOOTH",
"189 498 OFFCURVE",
"198 508 OFFCURVE",
"209 508 CURVE SMOOTH",
"228 508 OFFCURVE",
"233 478 OFFCURVE",
"226 441 CURVE SMOOTH",
"223 425 LINE",
"260 455 LINE",
"20 455 LINE",
"20 338 LINE",
"57 338 LINE",
"130 345 LINE",
"130 364 LINE",
"79 348 OFFCURVE",
"46 271 OFFCURVE",
"49 198 CURVE SMOOTH",
"53 99 OFFCURVE",
"126 -11 OFFCURVE",
"321 -11 CURVE SMOOTH"
);
},
{
closed = 1;
nodes = (
"767 -271 OFFCURVE",
"815 -178 OFFCURVE",
"815 -76 CURVE SMOOTH",
"815 -61 OFFCURVE",
"814 -48 OFFCURVE",
"813 -42 CURVE",
"696 -42 LINE",
"696 -50 OFFCURVE",
"696 -60 OFFCURVE",
"696 -73 CURVE SMOOTH",
"696 -130 OFFCURVE",
"654 -150 OFFCURVE",
"614 -150 CURVE SMOOTH",
"583 -150 OFFCURVE",
"565 -138 OFFCURVE",
"565 -118 CURVE SMOOTH",
"565 -104 OFFCURVE",
"575 -90 OFFCURVE",
"595 -90 CURVE SMOOTH",
"606 -90 OFFCURVE",
"612 -93 OFFCURVE",
"616 -96 CURVE",
"686 -26 LINE",
"568 89 LINE",
"510 30 LINE",
"614 -71 LINE",
"613 3 LINE",
"604 3 OFFCURVE",
"594 3 OFFCURVE",
"585 3 CURVE SMOOTH",
"492 3 OFFCURVE",
"430 -52 OFFCURVE",
"430 -136 CURVE SMOOTH",
"430 -220 OFFCURVE",
"496 -271 OFFCURVE",
"609 -271 CURVE SMOOTH"
);
}
);
width = 841;
}
);
leftMetricsKey = "bha-sinh";
rightMetricsKey = "bha-sinh";
}
